<svg xmlns="http://www.w3.org/2000/svg" viewBox="0 0 29.28 23.78"><defs><linearGradient id="a" x1="14.64" y1="16.26" x2="14.64" y2="-2.25" gradientUnits="userSpaceOnUse"><stop offset="0" stop-color="#977243"/><stop offset="1" stop-color="#e1be7c"/></linearGradient></defs><g data-name="Layer 2"><g data-name="Layer 1"><path d="M24.56 21.44c.05-.1.11-.2.15-.3l4.57-9.2-4.44-8.89a4.19 4.19 0 0 0-.68-1.37v-.06A4.21 4.21 0 0 0 20.8 0H4.23A4.23 4.23 0 0 0 0 4.23v15.32a4.23 4.23 0 0 0 4.23 4.23H20.8a4.21 4.21 0 0 0 3.38-1.71v.14z" fill="url(#a)"/><path d="M16.53 13.78c1.4-2.21 1.91-4.69 1.47-6.2a3.07 3.07 0 0 0-2.57-2.16c-.31 0-.55.18-.93.72a2.1 2.1 0 0 0-.5 2 1.32 1.32 0 0 0 1.58.75A7.37 7.37 0 0 1 14.51 12l-1.17 1.63a7.36 7.36 0 0 1-2.64 2 1.32 1.32 0 0 0-1.21-1.26 2.1 2.1 0 0 0-1.71 1.1c-.39.54-.52.83-.39 1.11a3.06 3.06 0 0 0 2.87 1.74C11.83 18.31 14 17 15.66 15z" fill="#fff"/></g></g></svg>