<svg xmlns="http://www.w3.org/2000/svg" viewBox="0 0 33.88 33.88"><defs><style>.cls-2{fill:#604529}</style></defs><g id="Layer_2" data-name="Layer 2"><g id="Layer_1-2" data-name="Layer 1"><circle cx="16.94" cy="16.94" r="16.94" fill="#d0d1d2"/><path class="cls-2" d="M16.94 26.93a10 10 0 1 1 10-10 10 10 0 0 1-10 10zm0-19.13a9.15 9.15 0 1 0 0 18.3 9.15 9.15 0 0 0 0-18.3z"/><path class="cls-2" d="M21.3 21.71a.41.41 0 0 1-.29-.12l-4.36-4.35a.42.42 0 0 1-.12-.29v-6.16a.42.42 0 0 1 .42-.42.42.42 0 0 1 .42.42v6L21.6 21a.42.42 0 0 1-.29.71z"/></g></g></svg>