<svg xmlns="http://www.w3.org/2000/svg" viewBox="0 0 33.88 33.88"><defs><style>.cls-2{fill:#604529}</style></defs><g id="Layer_2" data-name="Layer 2"><g id="Layer_1-2" data-name="Layer 1"><circle cx="16.94" cy="16.94" r="16.94" fill="#d0d1d2"/><path class="cls-2" d="M19.05 20.5a.33.33 0 0 1-.23-.1l-2.15-2.15a.33.33 0 1 1 .46-.46l1.93 1.93c1.38-1.24 8.54-7.95 6.74-12l-9.61 9.63-.46-.46 9.93-9.95a.33.33 0 0 1 .51.06c3 4.9-6.5 13.1-6.91 13.44a.32.32 0 0 1-.21.06z"/><path class="cls-2" d="M10.94 27.06a1.43 1.43 0 0 1-.51-.09c-1.22-.46-1.8-2.47-1.86-2.69a.33.33 0 0 1 .09-.28l7.08-7.09a.33.33 0 0 1 .46.46l-6.94 7c.2.62.71 1.81 1.41 2.08a.93.93 0 0 0 .87-.16c1.79-1.18 5.71-7.61 5.74-7.68a.33.33 0 1 1 .56.34c-.16.27-4 6.63-5.94 7.88a1.73 1.73 0 0 1-.96.23z"/><path class="cls-2" d="M11.11 24.95a.48.48 0 0 1-.34-.82.49.49 0 0 1 .68 0 .48.48 0 0 1 0 .68.48.48 0 0 1-.34.14zm0-.65a.17.17 0 0 0-.12.29.18.18 0 0 0 .24 0 .17.17 0 0 0-.12-.29zM25.7 26.76a2.11 2.11 0 0 1-1.49-.55l-4.07-4.64a.33.33 0 1 1 .49-.43l4.06 4.63a1.67 1.67 0 0 0 1.91.11 1.67 1.67 0 0 0-.11-1.91l-5.86-5.21a.33.33 0 0 1 .43-.49l5.86 5.21a2.28 2.28 0 0 1 .08 2.83 2 2 0 0 1-1.3.45zM13.1 16.35h-.22a2.59 2.59 0 0 1-1.56-.76L7.38 11a.33.33 0 0 1 .49-.43l3.92 4.55a1.93 1.93 0 0 0 1.16.57 1.21 1.21 0 0 0 1-.32l2.13-2.13a1.21 1.21 0 0 0 .32-1 1.94 1.94 0 0 0-.57-1.16L11.24 7a.33.33 0 0 1 .43-.49l4.59 4a2.59 2.59 0 0 1 .74 1.67 1.84 1.84 0 0 1-.51 1.52l-2.13 2.13a1.81 1.81 0 0 1-1.26.52z"/><path class="cls-2" d="M15 13.12a.33.33 0 0 1-.23-.1L10 8.25a.33.33 0 0 1 .46-.46l4.79 4.78a.33.33 0 0 1-.23.56zM13.6 14.56a.33.33 0 0 1-.23-.1L8.58 9.69A.33.33 0 0 1 9 9.22L13.83 14a.33.33 0 0 1-.23.56zM16.88 16.5a.32.32 0 0 1-.23-.1L15 14.76a.33.33 0 0 1 .46-.46l1.64 1.64a.33.33 0 0 1-.23.56z"/></g></g></svg>