<svg xmlns="http://www.w3.org/2000/svg" viewBox="0 0 38.78 19.83">

  <g id="Layer_2" data-name="Layer 2">
    <g id="Layer_1-2" data-name="Layer 1">
      <path class="cls-1" d="M36 12.69s-.53 5.8-1.08 7.15l-.78-.05s1-2.06.21-3.18-1-1.64-1-1.64l.38-.11 1.44 1.95a20.5 20.5 0 0 0 .25-3.81l.62-.28z"/>
      <path class="cls-1" d="M36.45 8.66c.22-.54-.16-1.31-.74-.91-.68-1-2.63-.3-2 .92-.75.07-.58.39-1 .8 0 .06-.27.41-.28.47-.27.29-.61 0-.77.5-.08.3.34.52.32.76s-.29.6-.23.72c0 .5-.25 1 .56.9-.28.54-.33 1.21.33 1.5-1.28.72 1.52 2.2 1.85 1a2.93 2.93 0 0 0 2.59.05c.64-.39 1.33-1.45.69-2.05.58-.39 1-.73 1-1.48 0-.43-.65-1.34-1.08-1.37 0-.86-.09-1.36-.94-1.67M19.94 12.53h3.81v6.35h-3.81v-6.35zm.28-4.72h3.25v2.9h-3.25V7.8zm5.34 5.25h3.25v4.1h-3.25v-4.1zm0-5.25h3.25v2.9h-3.25V7.8zm-6.88.6l.39.85h-1.62v10.35h13.47V5.79H17.48l1.2 2.62zM16.73 0l-1.25 2.87H16.31l.16.34.11.25.62 1.36H32.21L30 0H16.73zM13.95 16.81H9.54v-5.57h4.41v5.57zm-6.36 0H3.18v-5.57h4.4v5.57zm8.71 2.8V9.26h-15v10.35h15z"/>
      <path class="cls-1" d="M15.36 8.29H17.58l-.69-1.5-.3-.66-.25-.55-.08-.16-.06-.14-.07-.16-.14-.3-.62-1.36H2.1l-.79 1.82-.13.3-.19.44-.3.69L0 8.29h15.36z"/>
    </g>
  </g>
</svg>
