<svg xmlns="http://www.w3.org/2000/svg" viewBox="0 0 33.88 33.88"><defs><style>.cls-2{fill:#604529}</style></defs><g id="Layer_2" data-name="Layer 2"><g id="Layer_1-2" data-name="Layer 1"><circle cx="16.94" cy="16.94" r="16.94" fill="#d0d1d2"/><path class="cls-2" d="M22 26.59H12a.76.76 0 1 1 0-1.52 4.2 4.2 0 0 0 2.63-.74 1.5 1.5 0 0 0 .47-1.15 2.53 2.53 0 0 1 .07-.59.25.25 0 1 1 .49.12 2 2 0 0 0-.05.47 2 2 0 0 1-.61 1.53 4.6 4.6 0 0 1-3 .87.25.25 0 0 0 0 .5h10a.25.25 0 0 0 0-.5 4.66 4.66 0 0 1-3.13-.8 2.06 2.06 0 0 1-.67-1.59 2.22 2.22 0 0 0 0-.47.25.25 0 1 1 .5-.11 2.76 2.76 0 0 1 .06.58 1.55 1.55 0 0 0 .5 1.22 4.26 4.26 0 0 0 2.75.67.76.76 0 0 1 0 1.52z"/><path class="cls-2" d="M25.74 22.91h-7.49a.25.25 0 1 1 0-.51h7.49a.74.74 0 0 0 .73-.73v-12a.74.74 0 0 0-.73-.73H8.14a.74.74 0 0 0-.73.73v12a.74.74 0 0 0 .73.73h8.41a.25.25 0 1 1 0 .51H8.14a1.24 1.24 0 0 1-1.24-1.24v-12a1.24 1.24 0 0 1 1.24-1.24h17.6A1.24 1.24 0 0 1 27 9.67v12a1.24 1.24 0 0 1-1.26 1.24z"/><path class="cls-2" d="M25.27 20.31H8.61a.25.25 0 0 1-.25-.25v-10a.25.25 0 0 1 .25-.25h16.66a.25.25 0 0 1 .25.25v10a.25.25 0 0 1-.25.25zM8.86 19.8H25v-9.48H8.86zM18.79 21.65h-3.7a.25.25 0 1 1 0-.51h3.7a.25.25 0 1 1 0 .51z"/></g></g></svg>