<svg xmlns="http://www.w3.org/2000/svg" viewBox="0 0 217.28 282.82"><g data-name="Layer 2"><path d="M88.73 248.54zm-.57.15l-.68.17zm.23-.06l-.23.06zm0 0l.31-.08zm-1.86.47zm-2.41.65h-.18zm2.27-.62h.09zm-10.83 3.77c-2.77.82-43.11 12.92-75.56 28.34v-.61c32.93-15.6 73.79-27.78 75.51-28.29A124.5 124.5 0 0 1 90 241.13l1.4-.91 1.36-.85a104.67 104.67 0 0 1 9.93-5.44 96.76 96.76 0 0 1 10.12-4.15l1.46-.49a92.73 92.73 0 0 1 8.19-2.26l3.33-.69 2.11-.37a91.69 91.69 0 0 1 9.38-1l2.12-.1a95.86 95.86 0 0 1 14.74.63l3.43.47 1.34.22c2.83.48 5.69 1.08 8.51 1.8l3.59 1a117.17 117.17 0 0 1 16.59 6.26c2.36 1.1 4.7 2.28 7 3.52l1.14.63a88.76 88.76 0 0 1 10.19 6.6v.1a.28.28 0 0 1 0 .05.25.25 0 0 1 0 .06l-3.46 4.23-1.12 1.3-.8.91c-1.33 1.5-2.69 2.95-4 4.32l-2 2a111.04 111.04 0 0 1-5.26 4.79l-.88.74-3 2.42a86.44 86.44 0 0 1-8.85 6 74.25 74.25 0 0 1-12.36 5.81c-1.61.58-3.24 1.09-4.84 1.54-1.78.49-3.57.91-5.34 1.25a66.79 66.79 0 0 1-7.32 1 70.46 70.46 0 0 1-16-.63l-2.75-.47a.27.27 0 0 0 .25-.08.27.27 0 0 1-.25.08 84.55 84.55 0 0 1-13.41-3.75l-1.32-.49-4.08-1.69c-2.91-1.28-5.84-2.73-8.71-4.32l-2.44-1.39a120.87 120.87 0 0 1-10.69-7.07l-2.29-1.74-3-2.43c-3.69-2.89-5.93-5.11-6.45-5.63zm6.32 5l1-5.85v-.29l.14-.82.06-.33c-2.38.67-4.71 1.38-7 2.12.78.7 2.77 2.62 5.8 5.17zm4.39-8.16h-.13l-2.45.66-1.32 7.87 2.51 2zm1 11.23l1.22-11.79-1.64.42v.64l-1.27 9.68-.05.4-.05.41 1.77 1.34v-.76zm12.13-14.22c-3.5.68-7 1.44-10.35 2.27V249.25l-1.36 13.18a120.37 120.37 0 0 0 10.13 6.72zm1.35 12.62v-1.63l.54-11.37-.31.06-1.1.21-1.4 19.54v.52l-.07 1-.13 1.78 1.9 1.08zm8.13 15.52l-.05-2.49V268.8l-.41-20.13V245.24l-1.5.24h-.38l-.38.06-.61.1h-1.08l-2.35.41h-.07v1.05l-.18 3.73-.93 19.79c2.49 1.71 5.22 3.07 7.94 4.28zm4 1.69l-3-31.6-1.09.16.62 30zm1.32.51l-2.56-32.37-1.23.17v.11l.05.56.09.91 2.9 30.39zm13.29 3.79l-3-10.61-1-3.62-.31-1.09-6-21.46v-.07l-3.33.41H113.51l-1.16.15h-.14l2.47 31.15.09 1.14v.33a84.16 84.16 0 0 0 12.76 3.67zm2.74.49l-11.13-37.55h-.22l-1.15.13 9.5 33.84.39 1.38.15.52.33 1.17v.12zm16 .71l-16.56-39.2-3.17.26-3.55.29h-1.08l-2.2.23.33 1.34.19.62.37 1.25v.08l1 3.24.19.64.28 1 .09.3.4 1.34.05.18.43 1.35v.17l.39 1.3.34 1.13 1.41 4.75.2.66.41 1.37.07.22 1.41 4.76.27.92.6 2 .38 1.27.33 1.12.17.57.26.86.48 1.61.78 2.62.09.29.1.34.07.24.05.18v.09a69.9 69.9 0 0 0 15.41.62zm7.32-.93l-14.78-37.68-.41-1.06c-2.69.11-5.42.26-8.11.44l5 11.94.39.92.72 1.72.94 2.22 9.5 22.35a66.2 66.2 0 0 0 6.74-.84zm5.3-1.22l-17.58-37.63h-2.33l15.16 38.66c1.56-.21 3.16-.59 4.74-1.02zm4.82-1.5l-19.48-36.2h-2.33l17.52 37.5c1.42-.33 2.86-.79 4.28-1.29zm12.33-5.71l-20.7-30.54h-10.48l2.66 4.94 1.21 2.24.12.22.61 1.12.06.11 14.74 27.39a73.7 73.7 0 0 0 11.78-5.48zm8.85-5.92l-.29-.49-.3-.5-.77-1.28-.24-.4-12.8-21.41-4.08-.18H156l16 23.59.27.39.6.89 3.64 5.38a85.8 85.8 0 0 0 8.32-5.99zm3-2.39l-.08-.11-15.36-21-.37-.51-1-.06 14.2 23.74zm.91-.76l-14.38-20.71h-.35l-1.28-.09.27.37 6 8.22 9.24 12.64zm5.25-4.76l-.73-1-.34-.48-9.68-13.65-.06-.09-2.37-.21h-1.23l-2.58-.18h-.46l-.91-.06h-.54l14.1 20.3c1.59-1.63 3.21-3.1 4.79-4.64zm2-2l-10.26-13.06h-.57l-.74-.07-.54-.05 8.7 12.29.42.6.48.67.65.92.25.35zm4-4.3l-.21-.26-.22-.26-.14-.16-6-7.21-3-.32-.68-.07-.62-.07-1.74-.19-.88-.1.06.08 4.65 5.92.73.93.14.18 4.19 5.33.11.14c1.19-1.27 2.41-2.53 3.6-3.93zm.81-.91l-4-5-.89-1.11-.32-.4-.08-.1-.09-.12-1.19-.15 6.2 7.42zm1.13-1.3l-.42-.54-3.2-4.09-.4-.51-1.33-.18H196.18l4.12 5.13.21.26.18.22.33.41.17.22zm3.3-4c-.91-.16-3.18-.53-6.54-1l3.6 4.59zm-9.67-6.42l-3.53 4 1.51.17 2 .25 2.54.33 1 .14h.27l.69.1h.29l.67.1h.2l.81.12.69.11h.15l.51.08h.15l.51.08.51.08a96.61 96.61 0 0 0-8.96-5.57zm-1.14-.64l-4.38 4.46 1.33.14 3.71-4.24zm-6.92-3.51l-6.25 7.1 2.07.18 1.68.16h.98l3.35.37 4.57-4.65c-2.07-1.06-4.22-2.15-6.4-3.17zm-23.63 6l6.22.28h2.08l1.47.1H174.46l1.16.08.82.06h.14l1.55.11 2.35.17h.08l6.41-7.28a116.57 116.57 0 0 0-16-6zm-3-.08h2.38l7.21-12.43-3-.83zm-8.53-.15H160.33l6.63-13.33c-2.63-.66-5.29-1.23-7.93-1.68zm-2 0h1.39l6.66-15-.78-.13zm-1.84 0h1.24l7.31-15.18-2.83-.39zm-13.28.38l3.25-.15 2.91-.1 2.91-.07 3.62-.05L153.7 226a95.22 95.22 0 0 0-14.12-.6zm-2.88.16l2.31-.13 4.33-16.58-1.54.07zm-6.22.46l1.38-.11 2.16-.18h.11l2-.12 5.08-16.69c-2.91.18-5.84.5-8.72 1zm-2.52.21h.77l1.2-.1 2-16.1-1.55.27zm-1.32.11h.76l2.4-15.92-2.72.56-.22 7.73V238.24zm-7.71-13.19l.84 13.94 1.63-.2h.27l1.92-.21h.93l.71-.07.85-.09.15-5.4v-2.8l.2-7.14c-2.44.5-4.99 1.2-7.48 2.01zm-1.46.48l.35 7 .13 2.56.2 4.07 1.08-.13-.84-13.83zm-10.06 4.1l2.06 10.83 1.22-.19 1.57-.25h.55l1.61-.24 1.78-.25 1.24-.17h.15l-.17-3.41-.08-1.62-.42-8.51a96.27 96.27 0 0 0-9.49 3.86zm-9.87 5.38l2.73 7.18 1.57-.32 2.14-.43h.36l1.62-.3H102.19l2.44-.43-2-10.67a104.18 104.18 0 0 0-9.42 5.02zm-1.35.84l2.64 6.64.9-.19-2.66-7zm-1.41.91l2.25 6.13 1.26-.28-2.57-6.46zm-13.6 10.5c2.12-.68 4.31-1.35 6.54-2h.08l.48-.13.37-.1-.19.05 2.27-.62-1.88.51 2-.54.66-.17.25-.06 1.27-.32 1.8-.43 1.63-.39-2.12-5.94a123.56 123.56 0 0 0-13.16 10.14zM204.78 16.81c7.35-2.18 11.82-3 11.88-3.05h.12a.27.27 0 0 1 .1.08.27.27 0 0 1 0 .09c.15 3.06.24 6.13.28 9.38v5.1c0 3.42-.15 6.86-.35 10.23l-.34 4.91c-.34 4.14-.81 8.31-1.41 12.37l-.19 2.08c-.35 2.22-.75 4.49-1.2 6.76a165.55 165.55 0 0 1-4.74 18.42 149 149 0 0 1-9.45 22.82c-1.42 2.74-2.94 5.47-4.53 8.1-1.74 2.89-3.59 5.73-5.5 8.42-2.58 3.65-5.4 7.25-8.37 10.71a148.4 148.4 0 0 1-21.45 20.28l-4.09 3.06a172.58 172.58 0 0 1-21.59 13.29l-2.26 1.16c-2.31 1.16-4.73 2.31-7.19 3.42-5.2 2.35-10.63 4.53-16.15 6.48l-4.73 1.61a224.23 224.23 0 0 1-21.82 5.97l-4.92 1-6.66 1.19c-8.37 1.36-13.89 1.72-14.8 1.77-1.39 2-22.49 32.6-51.27 69.3L0 267v-.88l3.67-4.66c12.87-53.25 15.81-113.9 16-117.11-.56-.45-3.31-2.68-7.1-6.38l-3-3.06-2.27-2.3c-2.57-2.8-5-5.71-7.3-8.68V123c2.38 3.12 4.92 6.18 7.6 9.11l14-2.84h.14l.66-.13c.56-3.81 1-7.75 1.41-11.71L0 121.47v-.56l5.53-.91h.09l2-.34 1.25-.21.81-.14 12.79-2.17 1.49-.25v-.12l.13-1.52-21.56 3.1-.74.11-1.79.26v-.55l22.82-3.32 1.27-.19.26-3.45a.28.28 0 0 1 .1-.19.28.28 0 0 0-.1.19l.21-3.57v-.14h-1.58l-10.31.8h-.23l-2.94.23-1.35.1h-.32l-3.45.27h-.16l-4.22.5v-.55l8.49-.66h.12l2.85-.22 2.35-.18h.58l10.22-.79v-1.23H0v-.55l13.95-.05h10.76V105l.06-1.33-24.69.49H0v-.55l18.19-.36H20.41l4.38-.09.05-1.55v-4.02L0 93.2v-.56L25 97v-1.58h-.15L0 90.67v-.56l17 3.23 8 1.51v-1.61-1.1c0-2.72 0-5.56-.13-8.45L0 76.08v-.58l1.18.36 7 2.13 16.65 5.1c-.09-3-.23-6-.4-9L0 67.27v-.57l24.4 6.79-.17-2.64L0 62.44v-.58l23.78 8.26.4.14-.18-2.08v-.55L0 57.76v-.59l20.82 8.57L23.94 67v-.23c-.3-3.76-.66-7.58-1.09-11.38L0 43.17v-.62l2.53 1.36 1.7.91 5.48 2.93 1.46.78 2.37 1.27.88.47.88.47.84.45h.05l6.57 3.52-.63-5.07-.36-2.92v-.28l-.08-.57-.06-.43-.12-.83-.07-.48L21 41.4v-.08l-.37-2.52-.33-.15-.3-.15h-.11L14.71 36 0 29.21v-.6l1.39.64 1.21.56 1.21.56 1.6.74 1.6.75 13.52 6.29-.14-.9v-.23l-3.45-2L0 25.18v-.63l.68.4 3.74 2.18 6.75 3.93.18.11 1 .56.89.52 1 .58.51.3 1.92 1.12.23.13.64.38 1 .57.41.24 1 .57h.08l.26.15c-.1-.62-.21-1.23-.31-1.85L0 23.52v-.62l19.8 10.88c-.35-2.1-.72-4.18-1.09-6.21l-.51-2.72L0 14.61v-1l1.66-2C3.05 10 4.53 8.32 6 6.71l.93-1H7l1.29-1.37c1.44-1.46 2.89-2.9 4.34-4.27h.18a.27.27 0 0 1 .19 0 98.14 98.14 0 0 1 8.5 10.59l.83 1.18c1.62 2.35 3.2 4.79 4.68 7.27a128.68 128.68 0 0 1 8.79 17.58l1.49 3.85c1.11 3 2.1 6.11 2.94 9.17l.39 1.45.9 3.73a104.7 104.7 0 0 1 2.32 16.17l.16 2.35q.08 2 .08 4c0 2.15-.07 4.3-.21 6.43l-.18 2.39-.4 3.74c-.39 3.1-.94 6.21-1.62 9.27l-.39 1.66a106 106 0 0 1-3.52 11.59 115.28 115.28 0 0 1-5 11.52l-.8 1.58-.86 1.65a137.73 137.73 0 0 1-10.92 17.14c-.12 2.57-3 62.8-15.7 116.11C33.13 223.86 54 193.58 55 192.1a232.88 232.88 0 0 1 6.08-31.85l.79-2.88.79-2.75a206.4 206.4 0 0 1 6.72-19.23 196.36 196.36 0 0 1 8.42-18 .27.27 0 0 1 .08-.09.28.28 0 0 0-.08.09l1.34-2.47c2.49-4.52 5.2-9 8.06-13.32l3.53-5.15 2.32-3.19c3.44-4.64 7.13-9.17 11-13.48l2.62-2.87a202.18 202.18 0 0 1 19.81-18.62l5-4 2-1.5c4.2-3.16 8.59-6.22 13.05-9.09l5.76-3.59a233.68 233.68 0 0 1 28.54-14.59c4.3-1.84 8.66-3.55 13-5.1l2.18-.77c3.18-1.1 6.07-2 8.63-2.79h-.22M69.71 190.22l-1.9-2.84-1.26-1.89-.07-.1-3.76-5.65a439.09 439.09 0 0 0-7 12.16c1.52-.1 6.58-.49 13.99-1.68zm6.64-1.17l-.13-.18-.84-1.16-1.64-2.25-7.9-10.84-2.84 4.59 3.14 4.71 1.53 2.29.21.32.51.76.4.6.11.16 1.27 1.9.12.18zm4.91-1L68.76 172l-.32-.41-.15-.2-.19-.25-.72 1.14-1.2 1.9 10.8 14.83zm21.8-5.87l-22.67-27.12-.45-.54-.12-.15-.32-.37a428.82 428.82 0 0 0-11.12 16.59l12.36 15.91.21.26.91 1.17c7.14-1.58 14.29-3.51 21.2-5.75zm4.72-1.59L81.62 151l-1.56 2.2-.23.33L103.62 182zm16.12-6.43l-17.9-17.3-4.84-4.68-.26-.25-11.67-11.3-.55.74-.1.14-2.16 2.88-.36.48-.06.13-.21.28-.22.3-.13.17-.27.37-3.2 4.41 26.39 29.84c5.3-1.87 10.53-3.96 15.54-6.22zm7.16-3.39l-.08-.07-.26-.21-.09-.08-1-.83-.32-.26-.62-.51-.8-.65-.48-.39-1-.82-.18-.14-30.68-25-.11-.09-.64-.52-3.67-3-.48.64-.1.13-.16.21-.17.22-.06.08-.3.4-.17.22-.06.08L105 155.09l.58.56 1.22 1.18 2.13 2.07 1 .93 1.57 1.52.55.53 3 2.9 9.45 9.14c2.2-1.03 4.42-2.09 6.56-3.15zm2.27-1.16l-26.49-22.4-.23-.19-1.33-1.12-.93-.79-1.25-1.11-1.1-.93-.73-.61-.64-.54-1.31-1.11-6.21-5.25-1.69 2.18 40.18 32.76zm21.52-13.18l-51.45-26.78-.79-.41-.14-.07-3-1.58-.44.55-1.03 1.33-2.12 2.66-.08.1-.42.53-.16.2-.05.07-.14.18-.07.09-1.46 1.87 40.41 34.17a172.11 172.11 0 0 0 20.94-12.91zm4.09-3l-57.24-28.59-1 1.17-.94 1.16.3.16 1.64.85 1.11.58 1.9 1 .72.37 1 .53 1.78.93 9.16 4.77.37.19 1.36.71 3.28 1.71.16.08 2.4 1.25.14.07 30.19 15.71zm21.45-20.17l-15.29-5.39-1.08-.38-11.55-4.07-1.41-.5-7.49-2.64-4.24-1.49-5.19-1.83-3.49-1.23-4.35-1.53-1.2-.42-5.17-1.82-2.29-.81-1.15-.41-2.17-.76c-2.39 2.73-4.74 5.46-7 8.15l-2.25 2.68-.08.1-.28.34-.13.16-1 1.21-.37.45-.06.08-1.08 1.31 42.63 21.26.43.22 3.09 1.54.37.18 6.16 3.07.18.09 4.51 2.25a147.89 147.89 0 0 0 20.95-19.86zm8.4-10.68L125.05 98c-3.49 3.79-7 7.65-10.34 11.51l21.16 7.46h.06l6.57 2.31 1.63.57 1.06.37 3.8 1.34.53.19 2.73 1 .47.17 28.06 9.89c2.85-3.35 5.54-6.81 8.01-10.28zm5.5-8.37h-.15l-.17-.05-1-.32L128.71 94l-2.24 2.41-1 1-.06.07 13.11 5.05 2.47 1 4.88 1.88 2.14.83 2.5 1 16.53 6.37 1.48.57 2.09.8 14.8 5.7.34.13 2.17.84.64.25.3.12.21.08c1.84-2.57 3.58-5.23 5.23-7.94zm4.54-8.06l-66.42-16-3.28 3.47 5.46 1.67 2.77.85h.14l33.31 10.22.46.14 5.82 1.78 4.41 1.35.63.19 12.48 3.83c1.47-2.45 2.89-4.99 4.22-7.55zm9.47-22.75h-.13l-61.44-7.82C142 80.2 137.34 85 132.85 89.67l.47.11 1.14.27 2.6.63.84.2 1.86.45 1.16.28.64.15 57.53 13.83a148.39 148.39 0 0 0 9.22-22.24zm4.78-18.4l-32.13-6.08-1.19-.22-.45-.09-1.31-.28-.68-.13-1.1-.21-.91-.17-1.82-.34-.59-.11-1-.2-.45-.09-1.26-.24-1-.2h-.26l-2-.38c-3.16 2.91-6.36 5.9-9.51 8.9-3.35 3.19-6.77 6.52-10.19 9.9l35 4.46 2.41.31 3.41.43 2 .25 3.25.41 3.46.44 1.47.19 1.33.17.81.1L202 82l1.23.16.8.1 1.57.2 1.56.2 1.37.17A165 165 0 0 0 213.08 65zm1.2-6.72l-38.8-3.47h-.09l-3-.27-1-.09-.82-.07h-.23l-.7-.06h-.58l-1.55 1.42-.15.14H167.77l.44.08.62.12 1.52.29 1.3.25 2 .38.92.17.81.15 19.15 3.62 1.86.35 2.24.42 14.47 2.74c.49-2.11.9-4.18 1.18-6.21zm.32-2.06l-42.28-4.87-2.64 2.39 41.93 3.75 1.06.09h.45l1.25.11zm1.4-12.39l-31.52-3.3-2.93 2.55-.25.22-.06.05-.24.21h-.05c-2.7 2.36-5.4 4.78-8.1 7.21l41.81 4.81c.57-3.82 1.03-7.79 1.34-11.75zM200.62 27l-1 .82 17.1.37v-1.56h-.09l-2.18-.09H212.54L201.85 26zm-11.92 9.93l27.68 1.47c.18-3.19.29-6.43.33-9.66l-3.95-.09h-1.93l-11.83-.3c-3.42 2.77-6.87 5.65-10.3 8.58zM185.07 40l31 3.24.3-4.35h-.97l-27.3-1.45zm31.65-16.39L205.51 23l-.51.41-2.51 2 14.24.61zm-.26-9.1c-1.14.84-4.79 3.59-10.3 8l10.55.58c-.03-2.93-.12-5.74-.25-8.53zm-20.21 15.36l2.44-2 2.89-2.35 3.67-3 1.16-.93.3-.24.9-.71.21-.17 1.06-.83.1-.08.89-.7.2-.16.87-.68.84-.65.22-.17.52-.4.29-.22.39-.3.62-.48.12-.09 1.55-1.17a176.75 176.75 0 0 0-19.27 5.57c.06.37.04 8.72.03 9.76zm-2.84 2.36l2.29-1.91v-10l-1.64.58zm.12-11.13c-4.12 1.49-8.29 3.12-12.39 4.87l-.09 16.84.95-.81 2-1.73.28-.25 3.6-3.09q2.5-2.14 5-4.24zm-40.86 19.4l4.72 23.89c3.07-2.92 6.18-5.83 9.25-8.66l.06-.05.21-.2.29-.27 1.63-1.49c3.84-3.5 7.76-7 11.64-10.41 0-.24.09-16.28.09-17.08a233.1 233.1 0 0 0-27.89 14.27zm-5.74 3.57l6.5 24.12 3.5-3.36-4.75-24zm-13 9.06l8.33 26.11q2.1-2.11 4.21-4.22 3.27-3.25 6.54-6.4l-6.53-24.24a205.22 205.22 0 0 0-12.58 8.75zm-2 1.5l7.73 27.23 2.15-2.17-8.36-26.21zm-5 3.93l10.32 25.71 1.91-2L131.45 55zm-19.75 18.56l13.34 25q2.12-2.34 4.25-4.66l.22-.24.22-.23.42-.45 2.8-3 3.69-3.91c1.56-1.64 3.15-3.29 4.75-4.94l-10.35-25.76a201.64 201.64 0 0 0-19.34 18.19zM104.56 80L117 106.11l3.17-3.54-13.35-25zM93.62 93.4l15.81 21.35q2.27-2.65 4.6-5.31l2.54-2.88-12.4-26.11c-3.69 4.14-7.24 8.49-10.55 12.95zm-2.32 3.19l15.1 21.72 2.66-3.14-15.78-21.31zm-3.51 5.12l.11.12.31.33.16.17.39.42 1 1.1.43.46 1.4 1.52.3.32 12.94 14 1.2-1.43L91 97.06zm-8 13.27L96.8 130l1.35-1.69.34-.43.13-.16.23-.29.13-.17.1-.13 2.25-2.76 3.08-3.73-10.29-11.27-3.19-3.46-3.11-3.36-.31-.34c-2.77 4.12-5.37 8.42-7.77 12.79zm-1.34 2.47l16.52 15 .18-.22.07-.09.21-.27.22-.28.79-1 .07-.09-17-15zM70 135.38l15.14 9.85.31-.41.31-.41 1-1.33.15-.19 1.53-2 .07-.09.48-.64v-.06l.37-.49 1.45-1.9.1-.13.29-.38.15-.2.91-1.18.57-.73.07-.09.64-.81.12-.16.21-.27.68-.87-16.41-14.94c-2.98 5.63-5.72 11.49-8.14 17.43zm-6.72 19.15l11.9 4.75q2-3 4.08-5.89l.15-.21 2-2.78.1-.14.09-.13.27-.37.06-.09.71-1 .24-.34.17-.24.45-.62.17-.24 1.16-1.59h-.06l-.49-.32-14.5-9.42c-2.42 5.98-4.61 12.25-6.51 18.63zm-.8 2.74l11.18 4.24 1.2-1.77-11.74-4.68zm-.79 2.89l10.09 4.18 1.56-2.34-11-4.17zm-5.94 30.62c1.58-2.88 3.24-5.79 5-8.72q.87-1.49 1.77-3l3.11-5.1 2.22-3.53c1.19-1.87 2.42-3.75 3.66-5.64l-9.92-4.11a231.92 231.92 0 0 0-5.84 30.1zm-25.3-63.53l-6.94-1.76c-.08.61-.17 1.22-.25 1.83s-.18 1.38-.28 2.06v.2l-.09.59-.06.36-.11.72v.07l-.08.55-.64 3.57c-.46 2.58-1 5.11-1.51 7.57a136.75 136.75 0 0 0 9.96-15.76zm.88-1.65l-7.55-2.14c-.06.5-.12 1-.19 1.48l7.14 1.81zm9.31-24.52l-1.08.05h-.77l-1.65.08-2.24.11-1.14.06h-.41l-1.69.08h-.19l-1.07.05h-1.55l-1.06.05-1.12.06H25.4l-.05 1.49v.08l-.08 2-.07 1.35v.45l-.2 3.46v.52l8.79.78h.3l1.3.12.58.05h.77l.6.05a105.52 105.52 0 0 0 3.29-10.88zm.14-.55l.22-1.1-15.57.57v1.27l5.86-.29zm1.9-10.32l-.45.06h-.21l-16.48 2.11v4.91l-.05 2.15 15.7-.6c.59-2.84 1.1-5.73 1.48-8.62zm.08-.56l.34-3.12-17.55 4.4v.91zm.53-5.5l-17.77 4v2.24L43.14 86zm.16-10.35l-18.13 7.46c0 .74.06 1.48.08 2.22q.06 2.06.09 4.09l17.82-4c.13-2.06.2-4.14.2-6.21 0-1.18-.03-2.36-.07-3.55zm-.11-2.35l-18.14 6.6c0 .87.07 1.74.11 2.62l18.13-7.45zm-2.27-16.11l-16.89 8.07c.12 1.34.24 2.68.35 4l.24 3.22.23 3.22c.07 1.21.13 2.42.19 3.64l18.13-6.6a104.11 104.11 0 0 0-2.25-15.55zm-.88-3.69L24 61.4v.39c0 .35.06.69.09 1l16.82-8zm-4.76-14.43l-4.57 3.25-1.34 1-5.77 4.11-1.44 1 .33 2.68 14.06-8.74zm-14.18-26l-4.36 4.59.2 1 .12.56L21.76 12zm-7.86-10l.51 1.89v.16l.2.73v.17l.23.9v.06l.23.93v.2l.23.94v.16l.29 1.2.65 2.76V11.73l.41 1.78.05.26.11.53.13.6.06.28 4.18-4.4a106.53 106.53 0 0 0-7.29-9.5zM8.93 4.49l2 1.27L14.54 8c-.92-3.77-1.6-6.28-1.87-7.22-1.24 1.22-2.5 2.44-3.74 3.71zM7.59 5.86l6.2 4 1.41.91v-.08l-.45-1.91-6.22-3.9zm-.93 1l3.49 2.34 5.56 3.73-.32-1.4-.54-.35-1.39-.89-6.24-4zm-4.38 4.88l15.2 9.57-.3-1.4-.08-.38-.1-.35-1.16-5.47-7.07-4.78-.41-.27-1.59-1.07-.21-.14-.28-.19c-1.37 1.47-2.71 2.98-4 4.48zm-2 2.4l17.78 10-.06-.33-.36-1.81-.55-.35-5-3.17-.8-.5-2.63-1.58-6.74-4.24zm18.86 12.8l7.29-7.72c-1.39-2.31-2.85-4.58-4.36-6.77L17.35 18l.43 2 .22 1v.2l.08.4v.16l.55 2.8V24.71l.31 1.66zm3.06 18.94v.07l12.68-9 .32-.23a128.09 128.09 0 0 0-8.49-17l-.11.12-7.1 7.52-.24.25v.06c.55 3 1.08 6 1.58 9.13l.28 1.76.28 1.89zm1.52 12.73l15.93-9c-.8-2.88-1.73-5.77-2.76-8.61L22.7 49.84l.62 5v.36c.17 1.13.28 2.28.4 3.42zm.23 2.18L40 51.1l-.24-.91-16 9c.07.55.13 1.08.18 1.61zm.5 56.31c-.08.82-.16 1.63-.25 2.44l-.18 1.75 8.35 2.23a114.74 114.74 0 0 0 4.72-10.93l-6.88-.59-5.32-.47-.26 3.4zm-.45 4.75c0 .36-.08.71-.12 1.07l7.75 2.19.55-1.08zm-14.23 12.6l12.3-2.83v-.18l.07-.45.13-.86v-.43l-.26.05L8 132.6zm3 3.05l8.49-2.28.19-.05.51-3-.22.05h-.28l-6.1 1.41-.32.07-1.31.3-3.52.81zm6.94 6.26c.58-2.58 1.13-5.26 1.63-8h-.24l-.66.18h-.1l-.74.2-.42.11-5.82 1.56h-.1c3.24 3.28 5.65 5.28 6.48 5.95z" fill="#977243" opacity=".5" data-name="Layer 1"/></g></svg>