<svg xmlns="http://www.w3.org/2000/svg" viewBox="0 0 246.58 222.42"><defs><style>.cls-2{fill:#694323}.cls-22,.cls-3{mix-blend-mode:multiply}.cls-20,.cls-21,.cls-4,.cls-6,.cls-7,.cls-8{fill:none}.cls-21,.cls-4,.cls-6,.cls-7,.cls-8{stroke:#808184;stroke-linejoin:round;stroke-width:.94px;stroke-linecap:round}.cls-6{stroke-dasharray:.2 2.68}.cls-7{stroke-dasharray:.2 2.7}.cls-8{stroke-dasharray:.2 2.62}.cls-12,.cls-22{fill:#a4723f}.cls-18{fill:#fff}.cls-22{opacity:.5}.cls-16{fill:#6d6e70}.cls-17{fill:#f6921e}.cls-18{font-size:21.5px;font-family:PlayfairDisplay-Italic,PlayfairDisplay Italic;font-style:italic}.cls-21{stroke-dasharray:.2 2.68}</style><linearGradient id="linear-gradient" x1="55.83" y1="55.89" x2="183.4" y2="55.89" gradientUnits="userSpaceOnUse"><stop offset="0" stop-color="#ad6b2c"/><stop offset=".14" stop-color="#f4d3a0"/><stop offset=".29" stop-color="#fcc97e"/><stop offset=".55" stop-color="#ad6b2c"/><stop offset=".75" stop-color="#f4d3a0"/><stop offset="1" stop-color="#ad6b2c"/></linearGradient><linearGradient id="linear-gradient-2" x1="128.77" y1="184.04" x2="179.49" y2="184.04" gradientUnits="userSpaceOnUse"><stop offset="0" stop-color="#ad6b2c"/><stop offset=".14" stop-color="#f4d3a0"/><stop offset=".23" stop-color="#fcc97e"/><stop offset=".54" stop-color="#ad6b2c"/><stop offset=".75" stop-color="#f4d3a0"/><stop offset="1" stop-color="#ad6b2c"/></linearGradient></defs><g style="isolation:isolate"><g id="Layer_2" data-name="Layer 2"><g id="Layer_1-2" data-name="Layer 1"><path class="cls-2" d="M0 109.02l9.28 13.56L4.64 139l53.2-12.12V95.84L0 109.02z"/><g class="cls-3"><path class="cls-4" d="M13.41 122l.03-.1-.06-.08"/><path stroke-dasharray=".22 2.94" stroke-linecap="round" stroke="#808184" stroke-linejoin="round" stroke-width=".94" fill="none" d="M11.72 119.39l-4.52-6.6"/><path class="cls-4" d="M6.37 111.57l-.06-.08.1-.02"/><path class="cls-6" d="M9.02 110.87l43.61-9.93"/><path class="cls-4" d="M53.93 100.64l.1-.02v.1"/><path class="cls-7" d="M54.03 103.42v18.97"/><path class="cls-4" d="M54.03 123.74v.1l-.1.02"/><path class="cls-8" d="M51.38 124.44l-39.95 9.1"/><path class="cls-4" d="M10.15 133.83l-.09.02.02-.09"/><path stroke-dasharray=".22 2.89" stroke-linecap="round" stroke="#808184" stroke-linejoin="round" stroke-width=".94" fill="none" d="M10.87 130.98l2.15-7.59"/></g><path class="cls-2" d="M246.58 157.75l-9.28-13.57 4.64-16.41-53.2 12.12v31.03l57.84-13.17z"/><g class="cls-3"><path class="cls-4" d="M192.55 143.03v-.1l.1-.03"/><path class="cls-8" d="M195.21 142.32l39.94-9.1"/><path class="cls-4" d="M236.43 132.93l.1-.02-.03.1"/><path stroke-dasharray=".22 2.89" stroke-linecap="round" stroke="#808184" stroke-linejoin="round" stroke-width=".94" fill="none" d="M235.71 135.79l-2.14 7.58"/><path class="cls-4" d="M233.17 144.76l-.02.1.05.08"/><path stroke-dasharray=".22 2.94" stroke-linecap="round" stroke="#808184" stroke-linejoin="round" stroke-width=".94" fill="none" d="M234.86 147.37l4.53 6.61"/><path class="cls-4" d="M240.22 155.19l.05.08-.09.03"/><path class="cls-6" d="M237.56 155.89l-43.6 9.94"/><path class="cls-4" d="M192.65 166.12l-.1.03v-.1"/><path class="cls-7" d="M192.55 163.35v-18.97"/></g><path class="cls-2" d="M126.75 168.42L22.4 192.19h104.35v-23.77z"/><path class="cls-12" d="M39.06 202.92l85.6 19.5.8-.18v-56.43h-86.4v37.11z"/><path class="cls-2" d="M210.26 202.92l-85.6 19.5-.8-.18v-56.43h86.4v37.11zM126.75 127.55L22.4 151.32h104.35v-23.77z"/><path class="cls-2" d="M122.57 138.54l104.35-23.77H122.57v23.77zM122.57 97.47L226.92 73.7H122.57v23.77z"/><path fill="#fff" d="M210.26 0H39.06v198.67l85.6 19.51 85.6-19.51V0z"/><path stroke-width="4.03" opacity=".2" stroke="#a4723f" stroke-miterlimit="10" stroke-linecap="round" fill="none" d="M44.41 194.4V5.35h160.5V194.4l-80.25 18.29-80.25-18.29z"/><path opacity=".5" stroke-width=".67" stroke="#a4723f" stroke-miterlimit="10" stroke-linecap="round" fill="none" d="M50.13 189.84V11.07H199.2v178.77l-74.54 16.98-74.53-16.98z"/><path class="cls-16" d="M138.44 76.82l.51-1.34a8.46 8.46 0 0 0-.51 1.34zM117.62 53.5l.12-.1z"/><path class="cls-2" d="M165 79.42s-16.88-.67-19.68 23.62c-.74 6.39-.22 4.37-19.68 16.61 0 0 3.28-19.9 17.49-31.7 0 0 8.65-3.93 15.37-30.17 0 0-8.86 26-20.89 31.49 0 0-.49-8 .85-12.44l-8 20.77c5.68-18.77-.26-48.34-.26-48.34 1.53 7.87 3.28 40.89-6.89 24l-.49-.82c-8.57-14.49-5.84-18.35-5.21-19-10.81 9.72-11-21.75-11-21.75-5.25 17.71 8.09 35 8.09 35 13.12 16.84 6.56 55.32 6.56 55.32-.87-11.81-8.75-29.74-8.75-29.74-9.84-23.18-24.93-22.74-24.93-22.74 29.5 6.39 30.42 60.18 30.42 60.18-6.12-16.83-21.43-25.58-21.43-25.58-11.85-5.91-17.1-19.46-17.1-19.46 3.06 14.65 18.81 26 18.81 26-3.5-2.62-10.71-2.79-10.71-2.79-16.18-.62-22.08-17.1-22.08-17.1 5 18.37 22.57 20.44 22.57 20.44 11.31 3 16.24 9.67 16.24 9.67a33.54 33.54 0 0 0-10.5 3.44c30.5-5.25 23.62 23.29 23.62 23.29-4.1 17.92-5 37.37-4.86 53.11l10.25 2.33c-3.93-21.49-6.1-51 4.12-75.12 0 0 3-12.79 26.9-10.17a39.11 39.11 0 0 0-14.43-3.94s37.83-9.51 41.76-19.35c0 0-6.56 6.78-33.35 12.46 0 .06-2.74-20.94 17.19-27.52z"/><path class="cls-17" d="M103.47 83.4a9.07 9.07 0 1 1-14.83 10.47c-2.89-4.09-1.69-18.13-1.69-18.13s13.63 3.57 16.52 7.66zM106.23 57.2A9.07 9.07 0 0 1 89.86 65c-2.16-4.52 1.36-18.16 1.36-18.16s12.84 5.84 15.01 10.36zM153 66.5a9.07 9.07 0 0 1-17.32-5.41c1.49-4.78 13.37-12.37 13.37-12.37s5.48 12.99 3.95 17.78zM127.86 41.13a9.07 9.07 0 1 1-18.07 1.73c-.48-5 7.52-16.59 7.52-16.59s10.07 9.87 10.55 14.86zM171.33 73.08a6.93 6.93 0 0 1-10.82-8.67c2.39-3 13-5.09 13-5.09s.21 10.77-2.18 13.76zM68.35 82.31a6.63 6.63 0 1 1-12.05 5.55c-1.53-3.33 1.2-13.26 1.2-13.26s9.32 4.4 10.85 7.71zM179.5 88.39A6.33 6.33 0 0 1 171 79c2.59-2.35 12.42-2.73 12.42-2.73s-1.33 9.73-3.92 12.12zM168.43 49.19a6.33 6.33 0 1 1-12.22-3.33c.92-3.38 9-9 9-9s4.14 8.96 3.22 12.33zM84.54 117.36a6.06 6.06 0 1 1 4.32 11.33c-3.13 1.19-12-1.91-12-1.91s4.55-8.23 7.68-9.42zM148.72 37.67a6.33 6.33 0 1 1-12-4.16c1.15-3.31 9.6-8.34 9.6-8.34s3.55 9.19 2.4 12.5zM137.3 25.26a6.33 6.33 0 1 1-12.66-.35c.1-3.5 6.64-10.84 6.64-10.84s6.11 7.69 6.02 11.19zM86.34 40.39a6.49 6.49 0 1 1-11.47 6.09c-1.68-3.17.44-13 .44-13s9.35 3.74 11.03 6.91zM102.56 29.52a6.49 6.49 0 0 1-12.06 4.81c-1.33-3.33 1.84-12.9 1.84-12.9s8.89 4.76 10.22 8.09zM83.61 59.77A6.49 6.49 0 1 1 75 69.46c-2.67-2.39-4.1-12.37-4.1-12.37s10.04.29 12.71 2.68z"/><path class="cls-12" d="M226.92 145.6L22.4 192.19v-31.03l204.52-46.6v31.04z"/><text class="cls-18" transform="matrix(.97 -.22 0 1 83.19 170.89)"><tspan letter-spacing="0">б</tspan><tspan x="11.44" y="0">лизких</tspan></text><g class="cls-3"><path class="cls-4" d="M23.6 164.9l.1-.02"/><path class="cls-21" d="M26.31 164.28l198.01-45.05"/><path class="cls-4" d="M225.62 118.93l.1-.02"/></g><path class="cls-22" d="M22.4 151.32l187.86-42.79v2.1L31.61 151.32H22.4zM22.4 192.19l187.86-42.8v2.1l-178.65 40.7H22.4z"/><path d="M103.47 83.4a9.07 9.07 0 1 1-14.83 10.47c-2.89-4.09-1.69-18.13-1.69-18.13s13.63 3.57 16.52 7.66zM91.22 46.88S87.7 60.52 89.86 65a9.07 9.07 0 0 0 16.37-7.84c-2.17-4.48-15.01-10.28-15.01-10.28zm57.86 1.84s-11.88 7.58-13.37 12.37A9.07 9.07 0 0 0 153 66.5c1.53-4.79-3.92-17.78-3.92-17.78zm-31.77-22.44s-8 11.6-7.52 16.59a9.07 9.07 0 1 0 18.07-1.73c-.48-5-10.55-14.86-10.55-14.86zm56.14 33.05s-10.56 2.1-13 5.09a6.93 6.93 0 0 0 10.82 8.67c2.45-3 2.19-13.76 2.19-13.76zM57.49 74.6s-2.73 9.93-1.2 13.26a6.63 6.63 0 0 0 12.05-5.55C66.82 79 57.49 74.6 57.49 74.6zm125.9 1.69s-9.82.37-12.39 2.71a6.33 6.33 0 0 0 8.52 9.38c2.57-2.38 3.88-12.09 3.88-12.09zm-18.19-39.4s-8.09 5.6-9 9a6.33 6.33 0 1 0 12.22 3.33c.93-3.4-3.21-12.33-3.21-12.33zm-18.84-11.71s-8.45 5-9.6 8.34a6.33 6.33 0 1 0 12 4.16c1.11-3.32-2.4-12.5-2.4-12.5zm-15.09-11.12s-6.54 7.35-6.64 10.84a6.33 6.33 0 1 0 12.66.35c.1-3.49-6.02-11.19-6.02-11.19zm-56 19.39s-2.12 9.86-.44 13a6.49 6.49 0 1 0 11.47-6.09c-1.64-3.14-10.99-6.91-10.99-6.91zm17-12s-3.1 9.55-1.78 12.89a6.49 6.49 0 0 0 12.06-4.81c-1.32-3.34-10.21-8.1-10.21-8.1zM70.86 57.08s1.43 10 4.1 12.37a6.49 6.49 0 1 0 8.65-9.68c-2.67-2.39-12.75-2.69-12.75-2.69z" opacity=".6" fill="url(#linear-gradient)"/><path class="cls-12" d="M226.92 104.73L22.4 151.32v-31.03L226.92 73.7v31.03z"/><g class="cls-3"><path class="cls-4" d="M23.6 124.11l.1-.02"/><path class="cls-21" d="M26.31 123.5l198.01-45.06"/><path class="cls-4" d="M225.62 78.14l.1-.02"/></g><text class="cls-18" transform="matrix(.97 -.22 0 1 39.9 139.88)"><tspan letter-spacing="0">л</tspan><tspan x="10.81" y="0">учшее </tspan><tspan x="73.97" y="0" letter-spacing=".01em">д</tspan><tspan x="85.55" y="0" letter-spacing="0">л</tspan><tspan x="96.54" y="0" letter-spacing="0">я </tspan><tspan x="111.75" y="0" letter-spacing="0">с</tspan><tspan x="121.45" y="0">амых</tspan></text><path d="M144.93 189.85a6.88 6.88 0 1 1 7.34-11.63c3.21 2 6.45 12.21 6.45 12.21s-10.58 1.44-13.79-.58z" fill="url(#linear-gradient-2)"/></g></g></g></svg>