<svg xmlns="http://www.w3.org/2000/svg" viewBox="0 0 38.74 48.41"><defs><style>.cls-2{fill:#fff}</style></defs><g id="Layer_2" data-name="Layer 2"><g id="Layer_1-2" data-name="Layer 1"><path d="M21.84 46.91l12.35-15.07c3-3.91 4.55-7.23 4.55-12.38a19.37 19.37 0 1 0-38.74 0c0 5.16 1.54 8.47 4.57 12.39l12.34 15.06c1.64 2 3.28 2 4.93 0" fill="#3b2314" fill-rule="evenodd"/><path class="cls-2" d="M19.88 36.7h-1c-1.16 0-4-.13-5-1.32-2.53-2.87-4.15-7.8-4.22-8a.4.4 0 0 1 .18-.46 20.32 20.32 0 0 1 19.14 0 .4.4 0 0 1 .18.46c-.07.21-1.69 5.14-4.22 8-1.09 1.19-3.94 1.32-5.06 1.32zm-.5-.8h.51c2.16 0 3.86-.4 4.43-1.05a25.55 25.55 0 0 0 3.95-7.42 20.25 20.25 0 0 0-8.88-2.13 20.2 20.2 0 0 0-8.88 2.13 25.58 25.58 0 0 0 3.95 7.42c.57.65 2.27 1.05 4.43 1.05h.5zM19.37 23.55a6.28 6.28 0 0 1-6.27-6.27.4.4 0 0 1 .79 0 5.48 5.48 0 1 0 10.77-1.4.4.4 0 1 1 .77-.2 6.28 6.28 0 0 1-6.06 7.87z"/><path class="cls-2" d="M15.68 31.32a.4.4 0 0 1-.25-.09c-2.69-2.17-1.63-5.61-1.58-5.76a.4.4 0 0 1 .76.24c0 .13-.94 3.07 1.32 4.9a.4.4 0 0 1-.25.71z"/><path class="cls-2" d="M16.58 33.36a1.62 1.62 0 1 1 1.62-1.62 1.62 1.62 0 0 1-1.62 1.62zm0-2.44a.82.82 0 1 0 .82.82.82.82 0 0 0-.82-.82zM23.2 34.13a.4.4 0 0 1-.24-.71 4 4 0 0 0 1.23-1.83c.55-1.57.32-3-.54-3.27s-2.22.54-2.77 2.12a8.35 8.35 0 0 0-.25 1.85l.61.43a.4.4 0 0 1 0 .63l-.74.65a.4.4 0 0 1-.65-.27 9.68 9.68 0 0 1 0-1.25 10.34 10.34 0 0 1 .31-2.28c.66-1.9 2.39-3.09 3.78-2.6s1.73 2.25 1 4.28A4.76 4.76 0 0 1 23.45 34a.4.4 0 0 1-.25.13z"/><path class="cls-2" d="M23.79 28.35a.4.4 0 0 1-.25-.7 3.11 3.11 0 0 0 1-2 .4.4 0 0 1 .79 0A3.87 3.87 0 0 1 24 28.26a.4.4 0 0 1-.21.09zM22.93 34.91a.4.4 0 0 1-.35-.22l-.46-.93a.4.4 0 0 1 .3-.57l1.06-.19a.4.4 0 0 1 .4.59l-.6 1.07a.4.4 0 0 1-.35.25zM25.25 16.43a.37.37 0 0 1-.35-.23c-.07-.1-1-1.27-5.52-1.27-4.7 0-5.51 1.25-5.52 1.26a.4.4 0 0 1-.76-.19V7.93a.4.4 0 0 1 .12-.28c.06-.06 1.51-1.42 6.15-1.42s6.09 1.36 6.15 1.42a.4.4 0 0 1 .12.28V16a.41.41 0 0 1-.32.41zm-5.87-2.3c3.1 0 4.68.54 5.48 1v-7C24.44 7.85 22.92 7 19.37 7s-5.07.82-5.48 1.1v7c.8-.43 2.38-.97 5.48-.97z"/><path class="cls-2" d="M20.18 13.44h-1.61a.4.4 0 0 1-.4-.4v-1.21H17a.4.4 0 0 1-.4-.4v-1.6a.4.4 0 0 1 .4-.4h1.21v-1.2a.4.4 0 0 1 .4-.4h1.6a.4.4 0 0 1 .4.4v1.2h1.21a.4.4 0 0 1 .4.4v1.6a.4.4 0 0 1-.4.4h-1.25V13a.41.41 0 0 1 0 .05.4.4 0 0 1-.39.39zm-1.18-.8h.81v-1.2a.4.4 0 0 1 .4-.4h1.21v-.81h-1.25a.4.4 0 0 1-.4-.4V8.62H19v1.21a.4.4 0 0 1-.4.4h-1.24V11h1.21a.4.4 0 0 1 .4.4z"/></g></g></svg>