<svg xmlns="http://www.w3.org/2000/svg" viewBox="0 0 126.92 115.45"><defs><style>.cls-2{fill:#977243}.cls-3{fill:#604428}.cls-4{fill:#fff}</style></defs><g style="isolation:isolate"><g id="Layer_2" data-name="Layer 2"><g id="Layer_1-2" data-name="Layer 1"><path class="cls-2" d="M92.72 10.06l31.51 5.76-24.43 8.86-7.08-14.62z"/><path class="cls-3" d="M93.29 10.49L123 15.92l-23 8.36-6.71-13.79m-1.13-.86l7.48 15.45 25.82-9.37-33.31-6.08z"/><path class="cls-2" d="M2.69 102.46l24.43-8.86 7.08 14.62-31.51-5.76z"/><path class="cls-3" d="M27 94l6.67 13.79-29.75-5.43L27 94m.33-.8l-25.87 9.36 33.3 6.09-7.48-15.45z"/><path class="cls-3" d="M4.2 59.37l1.27-2.56-1.19-2.59 1.49-2.43-.95-2.69 1.7-2.29-.71-2.76 1.91-2.13-.46-2.81 2.09-1.95-.2-2.84 2.26-1.75.05-2.85 2.41-1.54.31-2.84 2.53-1.31.57-2.8 2.63-1.09.82-2.73 2.72-.85 1.05-2.65 2.79-.6 1.29-2.54 2.83-.35L32.92 8l2.85-.1 1.72-2.27 2.84.16 1.92-2.11 2.82.42 2.1-1.93 2.78.68 2.26-1.74 2.7.92L57.33.51l2.6 1.16L62.47.36l2.5 1.39L67.61.67l2.36 1.6 2.73-.83 2.21 1.81 2.79-.58 2.04 2 2.83-.33 1.85 2.17 2.85-.07 1.65 2.33 2.84.19 1.43 2.47 2.82.44 1.2 2.58 2.77.69.97 2.69 2.69.93.73 2.76 2.6 1.17.47 2.81 2.49 1.4.22 2.84 2.35 1.62-.03 2.85 2.19 1.82-.29 2.84 2.02 2.01-.55 2.8 1.84 2.19-.8 2.73 1.63 2.35-1.04 2.65 1.41 2.48-1.27 2.56 1.19 2.59-1.49 2.43.95 2.69-1.7 2.29.71 2.76-1.91 2.13.46 2.81-2.09 1.95.2 2.84-2.26 1.75-.06 2.85-2.4 1.54-.31 2.84-2.53 1.31-.57 2.8-2.63 1.08-.82 2.74-2.72.85-1.05 2.65-2.79.6-1.29 2.54-2.83.35-1.51 2.42-2.85.1-1.72 2.27-2.84-.16-1.92 2.11-2.82-.42-2.1 1.93-2.78-.68-2.26 1.73-2.7-.91-2.42 1.52-2.6-1.16-2.54 1.3-2.5-1.38-2.64 1.08-2.36-1.6-2.73.83-2.21-1.81-2.79.58-2.04-2-2.83.33-1.85-2.17-2.85.07-1.65-2.33-2.84-.19-1.43-2.47-2.82-.44-1.2-2.58-2.77-.69-.97-2.69-2.69-.93-.73-2.76-2.6-1.17-.48-2.81-2.48-1.4-.22-2.84-2.35-1.62.03-2.85-2.19-1.82.29-2.84-2.02-2.01.55-2.8-1.84-2.19.8-2.74-1.63-2.34 1.04-2.66-1.41-2.47z"/><path class="cls-4" d="M65.78 115.3l-2.62-1.16-2.55 1.31-2.51-1.39-2.66 1.08-2.38-1.61-2.75.84-2.22-1.82-2.81.58-2-2-2.85.33-1.86-2.19-2.87.07L34 107l-2.86-.19-1.44-2.48-2.84-.44-1.21-2.6-2.79-.69-1-2.7-2.71-.94-.73-2.78-2.6-1.18-.48-2.83-2.5-1.41-.22-2.86-2.36-1.63V81.4l-2.18-1.84.29-2.86-2-2 .55-2.82L5 69.66l.8-2.76-1.59-2.36 1-2.67-1.38-2.49 1.28-2.57-1.2-2.61 1.5-2.45L4.46 49l1.72-2.3-.72-2.7 1.92-2.14L6.92 39 9 37l-.2-2.86 2.27-1.76.06-2.87L13.56 28l.32-2.85 2.55-1.33L17 21l2.65-1.09.82-2.75 2.74-.85 1.06-2.67 2.8-.6 1.29-2.56 2.85-.35 1.52-2.44 2.87-.09 1.73-2.3 2.87.17 1.93-2.12 2.87.41 2.11-1.94 2.79.68L52.15.76l2.72.93L57.3.15l2.62 1.16L62.48 0 65 1.39 67.65.31 70 1.92l2.75-.84L75 2.9l2.81-.58 2 2 2.9-.32 1.86 2.19 2.87-.07 1.66 2.35 2.9.18 1.44 2.48 2.84.44 1.21 2.6 2.78.69 1 2.7 2.71.94.73 2.78 2.62 1.18.48 2.83 2.5 1.41.22 2.86 2.37 1.63v2.87l2.1 1.83-.29 2.86 2 2-.55 2.82 1.84 2.2-.8 2.76 1.64 2.36-1 2.67 1.42 2.49-1.26 2.59 1.2 2.61-1.5 2.45 1 2.71-1.71 2.3.71 2.78-1.92 2.14.46 2.83-2.1 2 .2 2.86L112 83l-.06 2.87-2.42 1.55-.32 2.85-2.55 1.33-.57 2.81-2.65 1.09-.82 2.75-2.74.85-1.06 2.67-2.81.6-1.29 2.63-2.85.35-1.52 2.44-2.87.09-1.73 2.29-2.86-.17-1.88 2.11-2.84-.42-2.16 1.94-2.79-.63-2.28 1.74-2.72-.93zm-2.65-1.88l2.59 1.15 2.4-1.51 2.68.91 2.25-1.72 2.75.67 2.1-1.92 2.8.42 1.91-2.1 2.83.16 1.71-2.26 2.83-.09 1.5-2.41 2.81-.35 1.28-2.53 2.77-.6 1-2.63 2.71-.84.81-2.72 2.66-1.05.56-2.78 2.51-1.31.31-2.82 2.39-1.53.06-2.83L113.6 81l-.2-2.83 2.07-1.93-.45-2.8 1.89-2.11-.7-2.75 1.69-2.27-.9-2.69 1.48-2.42-1.18-2.58 1.26-2.54-1.41-2.46 1-2.64-1.62-2.33.79-2.72-1.82-2.17.5-2.76-2-2 .29-2.82-2.18-1.81v-2.83l-2.34-1.61-.22-2.83-2.47-1.39-.47-2.8-2.58-1.16-.65-2.75-2.68-.93-1-2.67-2.7-.67-1.2-2.57-2.8-.44-1.43-2.45-2.83-.18-1.63-2.32-2.83.07-1.84-2.16-2.82.32-2-2-2.77.58-2.22-1.78-2.71.83L67.57 1l-2.62 1.1L62.47.73 59.94 2 57.35.88 55 2.39l-2.68-.91L50 3.2l-2.76-.67-2.06 1.91-2.8-.44-1.91 2.1-2.83-.1-1.71 2.22-2.83.09-1.5 2.4-2.81.35-1.28 2.53-2.77.6-1 2.63-2.74.85-.81 2.72-2.62 1.08-.57 2.77-2.51 1.31-.31 2.82-2.4 1.53-.06 2.83-2.24 1.74.2 2.83-2.07 1.93.45 2.77-1.89 2.13.7 2.75-1.69 2.27.95 2.67-1.49 2.42 1.18 2.58-1.26 2.54L6 61.82l-1 2.64 1.62 2.33-.79 2.72 1.82 2.17L7 74.46l2 2-.29 2.82 2.18 1.81v2.83l2.34 1.61.22 2.83 2.47 1.39.47 2.8L19 93.7l.72 2.74 2.68.93 1 2.67 2.75.69 1.2 2.57 2.8.44 1.42 2.45 2.83.19 1.6 2.3 2.83-.07 1.84 2.16 2.82-.32 2 2 2.77-.58 2.19 1.79 2.71-.83 2.35 1.59 2.63-1.07 2.48 1.37z"/><circle class="cls-4" cx="61.54" cy="57.72" r="52.64" transform="rotate(-1.64 61.717 57.838)"/><path class="cls-4" d="M63.06 110.66a53 53 0 1 1 51.42-54.46 53 53 0 0 1-51.42 54.46zM60 5.43a52.32 52.32 0 1 0 53.8 50.8A52.38 52.38 0 0 0 60 5.43z"/><path class="cls-4" d="M63.05 110.5a52.8 52.8 0 1 1 51.27-54.29 52.86 52.86 0 0 1-51.27 54.29zM60 5.27a52.48 52.48 0 1 0 54 51 52.54 52.54 0 0 0-54-51z"/><path class="cls-4" d="M63.06 110.83a53.12 53.12 0 1 1 51.58-54.63 53.18 53.18 0 0 1-51.58 54.63zM60 5.59a52.16 52.16 0 1 0 53.63 50.64A52.22 52.22 0 0 0 60 5.59z"/><circle cx="61.54" cy="57.72" r="51.5" transform="rotate(-1.64 61.717 57.838)" fill="#a32330"/><path class="cls-4" d="M63 109.52a51.82 51.82 0 1 1 50.31-53.28A51.88 51.88 0 0 1 63 109.52zm-2.95-103a51.18 51.18 0 1 0 52.65 49.74A51.23 51.23 0 0 0 60.07 6.57z"/><path class="cls-4" d="M63 109.36a51.66 51.66 0 1 1 50.16-53.12A51.72 51.72 0 0 1 63 109.36zm-2.95-103a51.34 51.34 0 1 0 52.79 49.85 51.39 51.39 0 0 0-52.77-49.8z"/><path class="cls-4" d="M63 109.68a52 52 0 1 1 50.5-53.44A52 52 0 0 1 63 109.68zm-2.95-103a51 51 0 1 0 52.46 49.53A51.07 51.07 0 0 0 60.08 6.73z"/><path fill="#f2f2f2" d="M.17 51.62L125.3 15.93l1.45 50.72L1.62 102.33.17 51.62z"/><path class="cls-3" d="M125.14 16.14l1.44 50.39L1.77 102.12.33 51.74l124.81-35.6m.31-.42L0 51.5l1.46 51.05 125.46-35.78-1.46-51.05z"/><path class="cls-2" d="M4.49 99.48a.16.16 0 0 1 0-.32l2.47-.71a.16.16 0 0 1 .09.31l-2.48.71zm4.95-1.41a.16.16 0 0 1 0-.32l2.48-.71a.16.16 0 0 1 .09.31l-2.48.71zm-5.1-1a.16.16 0 0 1-.17-.16l-.07-2.62a.16.16 0 0 1 .32 0l.07 2.57a.16.16 0 0 1-.15.14zm10.05-.36a.16.16 0 0 1 0-.32l2.48-.71a.16.16 0 1 1 .09.31l-2.48.71zm4.95-1.41a.16.16 0 0 1 0-.32l2.48-.71a.16.16 0 1 1 .09.31l-2.48.71zm5-1.41a.16.16 0 0 1 0-.32l2.48-.71a.16.16 0 1 1 .09.31l-2.48.71zm4.95-1.41a.16.16 0 0 1 0-.32l2.48-.71a.16.16 0 0 1 .09.31l-2.48.71zm-25.1-.6a.16.16 0 0 1-.19-.16l-.07-2.57a.16.16 0 1 1 .32 0l.07 2.57a.16.16 0 0 1-.13.16zm30-.86a.16.16 0 0 1 0-.32l2.43-.7a.16.16 0 1 1 .09.31l-2.48.69zm5-1.41a.16.16 0 0 1 0-.32l2.48-.71a.16.16 0 1 1 .09.31l-2.48.71zm4.95-1.41a.16.16 0 0 1 0-.32l2.48-.71a.16.16 0 0 1 .09.31l-2.47.71zM49 86.78a.16.16 0 0 1 0-.32l2.48-.71a.16.16 0 1 1 .09.31l-2.48.71zm5-1.41a.16.16 0 0 1 0-.32l2.48-.71a.16.16 0 0 1 .09.31l-2.57.71zM4 86.73a.16.16 0 0 1-.17-.16L3.8 84a.16.16 0 1 1 .32 0l.07 2.57a.16.16 0 0 1-.19.16zM58.94 84a.16.16 0 0 1 0-.32l2.48-.71a.16.16 0 1 1 .09.31L59 84zm5-1.41a.16.16 0 0 1 0-.32l2.48-.71a.16.16 0 1 1 .09.31l-2.48.71zm5-1.41a.16.16 0 0 1 0-.32l2.47-.71a.16.16 0 1 1 .09.31l-2.47.71zm5-1.41a.16.16 0 0 1 0-.32l2.47-.71a.16.16 0 0 1 .09.31l-2.47.71zM3.89 81.59a.16.16 0 0 1-.17-.16l-.07-2.57a.16.16 0 0 1 .32 0L4 81.42a.16.16 0 0 1-.11.17zm74.85-3.28a.16.16 0 0 1 0-.32l2.47-.71a.16.16 0 0 1 .09.31l-2.47.71zm5-1.41a.16.16 0 0 1 0-.32l2.47-.71a.16.16 0 0 1 .09.31l-2.47.71zm4.95-1.41a.16.16 0 0 1 0-.32l2.47-.71a.16.16 0 0 1 .09.31l-2.47.71zm4.95-1.41a.16.16 0 0 1 0-.32l2.36-.71a.16.16 0 1 1 .09.31l-2.47.71zM3.75 76.44a.16.16 0 0 1-.17-.16l-.07-2.57a.16.16 0 0 1 .32 0l.07 2.57a.16.16 0 0 1-.15.16zm94.79-3.78a.16.16 0 0 1 0-.32l2.47-.71a.16.16 0 0 1 .09.31l-2.47.71zm4.95-1.41a.16.16 0 0 1 0-.32l2.47-.71a.16.16 0 0 1 .09.31l-2.47.71zm4.95-1.41a.16.16 0 0 1 0-.32l2.47-.71a.16.16 0 0 1 .09.31l-2.47.71zm5-1.41a.16.16 0 0 1 0-.32l2.47-.71a.16.16 0 1 1 .09.31l-2.47.71zM3.6 71.3a.16.16 0 0 1-.17-.16l-.07-2.57a.16.16 0 1 1 .32 0l.07 2.57a.16.16 0 0 1-.15.16zM118.34 67a.16.16 0 0 1 0-.32l2.47-.71a.16.16 0 0 1 .09.31l-2.47.71zm4.95-1.41a.16.16 0 0 1 0-.32l1.35-.38v-.92a.16.16 0 0 1 .32 0v1a.16.16 0 0 1-.12.16l-1.47.42zm-119.84.56a.16.16 0 0 1-.16-.15l-.07-2.57a.16.16 0 1 1 .32 0L3.61 66a.16.16 0 0 1-.16.15zm121.2-4.59a.16.16 0 0 1-.17-.16l-.07-2.57a.16.16 0 1 1 .32 0l.07 2.57a.16.16 0 0 1-.15.17zM3.3 61a.16.16 0 0 1-.17-.16l-.07-2.57a.16.16 0 1 1 .32 0l.07 2.57a.16.16 0 0 1-.15.16zm121.2-4.59a.16.16 0 0 1-.17-.16l-.07-2.57a.16.16 0 1 1 .32 0l.07 2.57a.16.16 0 0 1-.15.17zM3.16 55.86a.16.16 0 0 1-.16-.15l-.06-2.1a.16.16 0 0 1 .06-.16l2.48-.71a.16.16 0 1 1 .09.31l-2.36.67.06 2a.16.16 0 0 1-.11.14zm121.2-4.59a.16.16 0 0 1-.17-.16l-.07-2.57a.16.16 0 0 1 .32 0l.07 2.57a.16.16 0 0 1-.15.17zM8 52.36A.16.16 0 0 1 8 52l2.48-.71a.16.16 0 0 1 .09.31l-2.48.71zm5-1.42a.16.16 0 0 1 0-.32l2.48-.71a.16.16 0 1 1 .09.31l-2.57.72zm5-1.41a.16.16 0 0 1 0-.32l2.48-.71a.16.16 0 0 1 .09.31l-2.57.72zm106.26-3.4A.16.16 0 0 1 124 46v-2.6a.16.16 0 0 1 .32 0l.07 2.57a.16.16 0 0 1-.18.16zm-101.31 2a.16.16 0 0 1 0-.32l2.47-.71a.16.16 0 0 1 .09.31l-2.48.71zm4.95-1.41a.16.16 0 0 1 0-.32l2.48-.71a.16.16 0 1 1 .09.31l-2.48.71zm5-1.41a.16.16 0 0 1 0-.32l2.48-.71a.16.16 0 0 1 .09.31l-2.48.71zm4.95-1.41a.16.16 0 0 1 0-.32l2.48-.71a.16.16 0 0 1 .09.31l-2.48.71zm86.21-2.9a.16.16 0 0 1-.17-.16l-.07-2.57a.16.16 0 1 1 .32 0l.07 2.57a.16.16 0 0 1-.15.16zM42.7 42.47a.16.16 0 0 1 0-.32l2.48-.71a.16.16 0 0 1 .09.31l-2.48.71zm4.95-1.41a.16.16 0 0 1 0-.32l2.42-.74a.16.16 0 1 1 .09.31l-2.48.71zm4.95-1.41a.16.16 0 0 1 0-.32l2.4-.7a.16.16 0 1 1 .09.31l-2.48.71zm5-1.41a.16.16 0 0 1 0-.32l2.4-.7a.16.16 0 0 1 .09.31l-2.48.71zm66.37-2.4a.16.16 0 0 1-.17-.16l-.07-2.57a.16.16 0 1 1 .32 0l.07 2.57a.16.16 0 0 1-.21.16zm-61.42 1a.16.16 0 0 1 0-.32l2.48-.71a.16.16 0 0 1 .09.31l-2.47.71zm5-1.41a.16.16 0 0 1 0-.32l2.48-.71a.16.16 0 1 1 .09.31l-2.48.71zM72.39 34a.16.16 0 0 1 0-.32l2.43-.68a.16.16 0 0 1 .09.31l-2.48.69zm4.95-1.41a.16.16 0 0 1 0-.32l2.48-.71a.16.16 0 0 1 .09.31l-2.48.71zm46.42-1.9a.16.16 0 0 1-.17-.16l-.06-2.53a.16.16 0 0 1 .32 0l.07 2.57a.16.16 0 0 1-.15.13zm-41.47.48a.16.16 0 0 1 0-.32l2.48-.71a.16.16 0 1 1 .09.31l-2.48.71zm4.95-1.41a.16.16 0 0 1 0-.32l2.47-.71a.16.16 0 1 1 .09.31l-2.48.71zm4.95-1.41a.16.16 0 0 1 0-.32l2.48-.71a.16.16 0 1 1 .09.31l-2.48.71zm5-1.41a.16.16 0 0 1 0-.32l2.48-.71a.16.16 0 1 1 .09.31l-2.48.71zm26.48-1.39a.16.16 0 0 1-.17-.16l-.07-2.57a.16.16 0 0 1 .32 0l.07 2.57a.16.16 0 0 1-.2.16zm-21.53 0a.16.16 0 0 1 0-.32l2.47-.71a.16.16 0 0 1 .09.31l-2.48.71zm4.86-1.43a.16.16 0 0 1 0-.32l2.48-.71a.16.16 0 0 1 .09.31l-2.48.71zm5-1.41a.16.16 0 0 1 0-.32l2.48-.71a.16.16 0 1 1 .09.31l-2.48.71zm4.95-1.41a.16.16 0 0 1 0-.32l2.48-.71a.16.16 0 0 1 .09.31l-2.48.71zm6.53-.89a.16.16 0 0 1-.17-.16v-.75l-1.35.39a.16.16 0 1 1-.09-.31l1.55-.44a.16.16 0 0 1 .14 0 .16.16 0 0 1 .07.13v1a.16.16 0 0 1-.16.14z"/><text transform="matrix(.96 -.27 0 1 35.77 72.33)" font-size="33.33" font-family="Probel,Probel" fill="#a32330">1000</text><text transform="matrix(.96 -.27 0 1 18.81 90.84)" font-family="21CentCondensed,21CentCondensed" font-size="15.69" fill="#604428"><tspan letter-spacing="-.01em">р</tspan><tspan x="8.77" y="0" letter-spacing=".01em">у</tspan><tspan x="16.29" y="0" letter-spacing="0">б</tspan><tspan x="24.64" y="0">лей в </tspan><tspan x="63.65" y="0" letter-spacing=".01em">с</tspan><tspan x="70.9" y="0" letter-spacing=".02em">у</tspan><tspan x="78.63" y="0" letter-spacing="-.01em">т</tspan><tspan x="84.97" y="0">ки</tspan></text><text transform="matrix(.96 -.27 0 1 32.95 36.7)" font-size="14.58" font-family="21CentCondensed,21CentCondensed" fill="#fff">АКЦИЯ</text><circle class="cls-2" cx="17.2" cy="68.73" r="3.14"/><circle class="cls-2" cx="116.5" cy="39.83" r="3.14"/></g></g></g></svg>