<svg xmlns="http://www.w3.org/2000/svg" viewBox="0 0 33.88 33.88"><defs><style>.cls-2{fill:#604529}</style></defs><g id="Layer_2" data-name="Layer 2"><g id="Layer_1-2" data-name="Layer 1"><circle cx="16.94" cy="16.94" r="16.94" fill="#d0d1d2"/><path class="cls-2" d="M24.71 28H9.81a1.44 1.44 0 0 1-1.44-1.44V8.24A1.44 1.44 0 0 1 9.81 6.8h10.88a.29.29 0 0 1 .21.09l5.16 5.16a.29.29 0 0 1-.41.41l-5.08-5.07H9.81a.86.86 0 0 0-.81.85v18.35a.86.86 0 0 0 .85.85h14.9a.86.86 0 0 0 .85-.85V13.5a.29.29 0 1 1 .58 0v13.09A1.44 1.44 0 0 1 24.71 28z"/><path class="cls-2" d="M25.86 12.55h-4a1.44 1.44 0 0 1-1.44-1.44v-4a.29.29 0 0 1 .5-.21l5.16 5.16a.29.29 0 0 1-.21.5zM21 7.8v3.31a.86.86 0 0 0 .85.85h3.31zM22.13 26.29h-2a.29.29 0 0 1-.29-.29v-1.45h-1.45a.29.29 0 0 1-.29-.29v-2a.29.29 0 0 1 .29-.29h1.44v-1.46a.29.29 0 0 1 .29-.29h2a.29.29 0 0 1 .29.29V22h1.44a.29.29 0 0 1 .29.29v2a.29.29 0 0 1-.29.29h-1.42V26a.29.29 0 0 1-.3.29zm-1.72-.58h1.43v-1.45a.29.29 0 0 1 .29-.29h1.44v-1.43h-1.44a.29.29 0 0 1-.29-.29V20.8h-1.43v1.44a.29.29 0 0 1-.29.29h-1.44V24h1.44a.29.29 0 0 1 .29.29zM23.87 14.55H12.65a.29.29 0 0 1 0-.58h11.22a.29.29 0 1 1 0 .58zM23.87 16.78H10.65a.29.29 0 1 1 0-.58h13.22a.29.29 0 0 1 0 .58zM23.87 18.93H10.65a.29.29 0 1 1 0-.58h13.22a.29.29 0 0 1 0 .58z"/></g></g></svg>