<svg xmlns="http://www.w3.org/2000/svg" viewBox="0 0 33.88 33.88"><defs><style>.cls-2{fill:#604529}</style></defs><g id="Layer_2" data-name="Layer 2"><g id="Layer_1-2" data-name="Layer 1"><circle cx="16.94" cy="16.94" r="16.94" fill="#d0d1d2"/><path class="cls-2" d="M18.69 25.37a64.26 64.26 0 0 1-8.5-.67.26.26 0 0 1-.14-.07c-1.07-1-3.94-7.08-4.65-9.34a.26.26 0 1 1 .5-.16c.73 2.33 3.46 8 4.46 9.06 1 .15 11 1.53 14.23-.25.3-.41 2.53-3.52 2.71-5.11a.26.26 0 1 1 .52.06c-.2 1.83-2.74 5.26-2.84 5.41a.26.26 0 0 1-.08.07c-1.36.76-3.75 1-6.21 1z"/><path class="cls-2" d="M27.24 19.08a1.11 1.11 0 0 1-.58-.16 11.43 11.43 0 0 0-3.33-.3h-2.27c-2.1 0-4.45-.07-5.77-.9-2.09-1.31-7-3.32-9.23-3.32a1.49 1.49 0 0 0-.76.14 1.12 1.12 0 1 1-1.15-1.91 3.73 3.73 0 0 1 1.95-.46 14.58 14.58 0 0 1 4.6 1 33.46 33.46 0 0 1 5.78 2.65c.79.49 2.9.56 4.65.56h2.3c2.08 0 3.55.1 4.41.63a1.12 1.12 0 0 1-.58 2.07zm-3.91-1c2.11 0 3.16.11 3.6.38a.59.59 0 1 0 .61-1c-.84-.51-2.58-.55-4.14-.55h-2.3c-2 0-4-.08-4.93-.64a32.87 32.87 0 0 0-5.67-2.6 14.31 14.31 0 0 0-4.43-1 3.23 3.23 0 0 0-1.67.38.59.59 0 1 0 .61 1 2 2 0 0 1 1-.22c2.35 0 7.31 2 9.51 3.4 1.21.75 3.47.82 5.5.82h2.28zm-2.65-9.21a1.08 1.08 0 1 1 1-.81 1.08 1.08 0 0 1-1 .81zm0-1.64a.56.56 0 0 0-.14 1.1h.14a.56.56 0 0 0 .14-1.1z"/><path class="cls-2" d="M16.38 14.2h-.13a1.18 1.18 0 1 1 .13 0zm0-1.83a.65.65 0 1 0 .07 0z"/><path class="cls-2" d="M26.92 16.18a.26.26 0 0 1-.26-.25c-.07-1.2-1-2.12-2.59-2.53l-.35-.07a.26.26 0 0 1-.19-.13 2.75 2.75 0 0 0-1-1 .26.26 0 0 1 0-.45.56.56 0 1 0-.8-.26.26.26 0 0 1-.27.36 2.74 2.74 0 0 0-1.58.3.26.26 0 0 1-.35-.11.94.94 0 0 0-.53-.44.26.26 0 0 1-.16-.34 1.77 1.77 0 0 0-3-1.74.26.26 0 0 1-.29.08h-.09a1.09 1.09 0 0 0-1.15.42.26.26 0 0 1-.39 0 1.61 1.61 0 0 0-.69-.37 1.63 1.63 0 0 0-2 1.17.26.26 0 0 1-.23.18c-.6.16-1.2 1.19-1.43 2a.26.26 0 0 1-.48 0 3.8 3.8 0 0 1 1.65-2.37A2.15 2.15 0 0 1 14 9.48 1.62 1.62 0 0 1 15.52 9a2.3 2.3 0 0 1 3.88 2.16 1.46 1.46 0 0 1 .43.37 3.25 3.25 0 0 1 1.31-.27 1.06 1.06 0 0 1 0-.16 1.08 1.08 0 1 1 1.93.78 3.28 3.28 0 0 1 .84.9l.28.06c1.79.47 2.9 1.59 3 3a.26.26 0 0 1-.25.28z"/></g></g></svg>