<svg xmlns="http://www.w3.org/2000/svg" viewBox="0 0 17.21 44.64"><defs>
  <style>.cls-1{fill:#604428}</style></defs><g id="Layer_2" data-name="Layer 2"><g id="Layer_1-2" data-name="Layer 1"><path class="cls-1" d="M.07 14.19a20.39 20.39 0 0 1 2.58-2.57A18.75 18.75 0 0 0 0 15.44a13.62 13.62 0 0 0 .12 2 21.1 21.1 0 0 1 2.7-4.35A17.46 17.46 0 0 0 .44 19a13.4 13.4 0 0 0 .44 1.39 15.92 15.92 0 0 1 2.42-5.9 16.45 16.45 0 0 0-1.8 7.32 15.52 15.52 0 0 0 .81 1.43 15.05 15.05 0 0 0 2.54-5.93 13.75 13.75 0 0 0-2-9.92 12.45 12.45 0 0 0-2.78 6.8zM17.15 14.17a12.14 12.14 0 0 0-2.74-6.79 13.56 13.56 0 0 0-1.64 9.23 15 15 0 0 0 2.53 5.91c.16-.28.29-.56.43-.83a16.34 16.34 0 0 0-1.8-7.17 15.84 15.84 0 0 1 2.4 5.79 14.36 14.36 0 0 0 .44-1.4 17.66 17.66 0 0 0-2.36-5.85 21.47 21.47 0 0 1 2.67 4.25 13.92 13.92 0 0 0 .13-1.92 18.79 18.79 0 0 0-2.63-3.8 20.36 20.36 0 0 1 2.57 2.58z"/><path class="cls-1" d="M14.69 23.52a16.51 16.51 0 0 1-3-6.71 14.9 14.9 0 0 1 2-10.32C12.58 4.57 12.53 0 8.52 0c-4.25 0-3.91 4.7-5 6.57a15.09 15.09 0 0 1 2.37 11 16.49 16.49 0 0 1-3 6.68 19.56 19.56 0 0 0 2.71 2.86L2.38 44.64H5c1-5.16 1.56-10.69 2.25-16-.31 5.37-.43 10.56-1 16h1.37c.34-5.31.58-10.66.79-16 .2 5.33.37 10.65.43 16h1.72c-.43-5.27-.68-10.54-.84-15.81.56 5.29 1.22 10.58 2.06 15.81h2.52L11.76 27a19.71 19.71 0 0 0 2.93-3.48zm-8.36-20a.87.87 0 1 1 .87-.92.87.87 0 0 1-.88.87zM8.7 7.54s-.84-.66-1-3a7.3 7.3 0 0 1 1-.48c.28.13.28.13 1 .48a4.92 4.92 0 0 1-1 3zM10 2.6a.88.88 0 1 1 .88.88.88.88 0 0 1-.88-.88z"/></g></g></svg>