<svg xmlns="http://www.w3.org/2000/svg" viewBox="0 0 33.88 33.88"><defs><style>.cls-2{fill:#604529}</style></defs><g id="Layer_2" data-name="Layer 2"><g id="Layer_1-2" data-name="Layer 1"><circle cx="16.94" cy="16.94" r="16.94" fill="#d0d1d2"/><path class="cls-2" d="M24.83 26.31a3.91 3.91 0 0 1 0-7.82 3.91 3.91 0 0 1 3.24 1.72.4.4 0 1 1-.66.45 3.11 3.11 0 0 0-2.58-1.37 3.11 3.11 0 0 0 0 6.22 3.11 3.11 0 0 0 3-3.94.4.4 0 0 1 .77-.21 3.91 3.91 0 0 1-3.77 5z"/><path class="cls-2" d="M24.64 25.08a.4.4 0 0 1-.32-.16l-1.9-2.57a.4.4 0 1 1 .65-.48L24.64 24l3.78-5.18a.4.4 0 0 1 .65.47L25 24.92a.4.4 0 0 1-.32.16zM15.78 16.07c-2.59 0-4.7-4.07-4.71-6.72a4.7 4.7 0 0 1 9.4 0c.01 2.65-2.1 6.72-4.69 6.72zm0-10.63a3.91 3.91 0 0 0-3.9 3.9c0 2.23 1.83 5.92 3.9 5.92 2.08 0 3.9-3.7 3.9-5.93a3.91 3.91 0 0 0-3.91-3.88zM7 26.33a.4.4 0 0 1-.4-.4c0-4.71 4.1-8.55 9.14-8.56A9.4 9.4 0 0 1 22.36 20a.4.4 0 0 1-.56.58 8.6 8.6 0 0 0-6-2.38c-4.6 0-8.35 3.48-8.34 7.75a.4.4 0 0 1-.4.4z"/></g></g></svg>