<svg xmlns="http://www.w3.org/2000/svg" viewBox="0 0 33.88 33.88"><defs><style>.cls-2{fill:#604529}</style></defs><g id="Layer_2" data-name="Layer 2"><g id="Layer_1-2" data-name="Layer 1"><circle cx="16.94" cy="16.94" r="16.94" fill="#d0d1d2"/><path class="cls-2" d="M12.27 19.64a4.74 4.74 0 0 1-4.73-4.73v-7.6a.34.34 0 0 1 .68 0v7.61a4.05 4.05 0 0 0 8.1 0V7.31a.34.34 0 0 1 .68 0v7.61a4.74 4.74 0 0 1-4.73 4.72z"/><path class="cls-2" d="M18.87 29.44a7 7 0 0 1-6.94-6.94v-3.2a.34.34 0 0 1 .68 0v3.19a6.26 6.26 0 0 0 12.53 0V19.3a.34.34 0 0 1 .68 0v3.19a7 7 0 0 1-6.95 6.95z"/><path class="cls-2" d="M25.48 19.28a3.16 3.16 0 1 1 3.16-3.16 3.16 3.16 0 0 1-3.16 3.16zm0-5.64A2.48 2.48 0 1 0 28 16.12a2.48 2.48 0 0 0-2.52-2.48z"/><path class="cls-2" d="M25.48 17.63A1.51 1.51 0 1 1 27 16.12a1.51 1.51 0 0 1-1.52 1.51zm0-2.34a.83.83 0 1 0 .83.83.83.83 0 0 0-.83-.83zM15.13 9a1 1 0 0 1-.78-.27 1.45 1.45 0 0 1-.25-1.12v-.3-.3a1.45 1.45 0 0 1 .25-1.12 1 1 0 0 1 .78-.27A1.78 1.78 0 0 1 17 7.31 1.78 1.78 0 0 1 15.13 9zm0-2.69a.47.47 0 0 0-.29.06c-.08.08-.07.37-.06.62v.64c0 .26 0 .54.06.62a.47.47 0 0 0 .29.06 1.11 1.11 0 0 0 1.19-1 1.11 1.11 0 0 0-1.19-1.01zM9.4 9a1.78 1.78 0 0 1-1.86-1.69A1.78 1.78 0 0 1 9.4 5.62a1 1 0 0 1 .78.27A1.45 1.45 0 0 1 10.43 7v.6a1.45 1.45 0 0 1-.25 1.12A1 1 0 0 1 9.4 9zm0-2.69a1.11 1.11 0 0 0-1.19 1 1.11 1.11 0 0 0 1.19 1 .47.47 0 0 0 .29-.06c.08-.08.07-.37.06-.62v-.32-.32c0-.26 0-.54-.06-.62a.47.47 0 0 0-.29-.07z"/></g></g></svg>