<svg xmlns="http://www.w3.org/2000/svg" viewBox="0 0 33.88 33.88"><defs><style>.cls-2{fill:#604529}</style></defs><g id="Layer_2" data-name="Layer 2"><g id="Layer_1-2" data-name="Layer 1"><circle cx="16.94" cy="16.94" r="16.94" fill="#d0d1d2"/><path class="cls-2" d="M23.08 23.18a3.58 3.58 0 0 1-3.23-2.05l-5-10.74a3.57 3.57 0 0 1 1.72-4.74l.35-.16a3.53 3.53 0 0 1 1.51-.34 3.58 3.58 0 0 1 3.19 2.05l5 10.74a3.57 3.57 0 0 1-1.72 4.74l-.35.16a3.53 3.53 0 0 1-1.47.34zM18.39 5.8a2.88 2.88 0 0 0-1.23.28l-.35.16a2.91 2.91 0 0 0-1.4 3.87l5 10.74a2.92 2.92 0 0 0 2.64 1.68 2.88 2.88 0 0 0 1.23-.28l.35-.16a2.91 2.91 0 0 0 1.4-3.87L21 7.48a2.92 2.92 0 0 0-2.61-1.68z"/><path class="cls-2" d="M19 16.53a1.69 1.69 0 0 1-1.66-.78.33.33 0 0 1 .59-.28c.12.25.53.4 1.09.4a5.61 5.61 0 0 0 2.25-.58 5.6 5.6 0 0 0 1.89-1.36c.36-.43.51-.84.39-1.09a.33.33 0 0 1 .59-.28 1.7 1.7 0 0 1-.48 1.79 6.26 6.26 0 0 1-2.11 1.53 6.26 6.26 0 0 1-2.53.64zM20.92 20.28a.33.33 0 0 1-.3-.19L19.5 17.7a.33.33 0 1 1 .59-.28l1.12 2.39a.33.33 0 0 1-.3.47z"/><path class="cls-2" d="M18.64 15.4a.33.33 0 0 1-.3-.19l-2.28-4.87a.33.33 0 1 1 .59-.28l2.28 4.87a.33.33 0 0 1-.3.47zM10.82 27.28a3.54 3.54 0 0 1-1.21-.21l-.36-.13a3.57 3.57 0 0 1-2.14-4.56l4-11.15a3.55 3.55 0 0 1 2.12-2.13.33.33 0 0 1 .23.61 2.9 2.9 0 0 0-1.73 1.74l-4 11.15a2.91 2.91 0 0 0 1.74 3.72l.36.13a2.91 2.91 0 0 0 3.72-1.74l3-8.34a.33.33 0 0 1 .61.22l-3 8.34a3.57 3.57 0 0 1-3.34 2.35z"/><path class="cls-2" d="M14.22 20.3a6.64 6.64 0 0 1-2.22-.43 6.26 6.26 0 0 1-2.24-1.34 1.7 1.7 0 0 1-.64-1.74.33.33 0 0 1 .61.22c-.1.26.09.66.48 1.05a5.6 5.6 0 0 0 2 1.19 5.6 5.6 0 0 0 2.3.37c.56 0 1-.23 1-.5a.33.33 0 0 1 .61.22 1.7 1.7 0 0 1-1.6.93zM8.7 22.63h-.11a.33.33 0 0 1-.2-.42l.9-2.48a.33.33 0 0 1 .61.22L9 22.42a.33.33 0 0 1-.3.21z"/><path class="cls-2" d="M10.53 17.57h-.11a.33.33 0 0 1-.2-.42l1.83-5.06a.33.33 0 1 1 .61.22l-1.83 5.06a.33.33 0 0 1-.3.2z"/></g></g></svg>