<svg xmlns="http://www.w3.org/2000/svg" viewBox="0 0 33.88 33.88"><g data-name="Layer 2"><g data-name="Layer 1"><circle cx="16.94" cy="16.94" r="16.94" fill="#d0d1d2"/><path d="M19.32 24.24a.37.37 0 0 1-.33-.3L16.6 11.39l-2.21 9.18a.37.37 0 0 1-.7.06l-2.44-5.88L9 16.91a.37.37 0 0 1-.26.1H3a.37.37 0 0 1 0-.74h5.59l2.53-2.44a.37.37 0 0 1 .6.12l2.22 5.33 2.35-9.76a.37.37 0 0 1 .73 0l2.43 13 2.83-7.25a.37.37 0 0 1 .63-.11l2.62 3 1.42-1.74a.37.37 0 0 1 .29-.14h3.64a.37.37 0 0 1 0 .74H27.4L25.81 19a.37.37 0 0 1-.57 0l-2.5-2.9-3.08 7.9a.37.37 0 0 1-.34.24z" fill="#604529"/></g></g></svg>