<svg xmlns="http://www.w3.org/2000/svg" viewBox="0 0 33.88 33.88"><defs><style>.cls-2{fill:#604529}</style></defs><g id="Layer_2" data-name="Layer 2"><g id="Layer_1-2" data-name="Layer 1"><circle cx="16.94" cy="16.94" r="16.94" fill="#d0d1d2"/><path class="cls-2" d="M16.93 27.55a10.6 10.6 0 0 1-4.74-20.08l.55-.25a.28.28 0 1 1 .23.52l-.53.26a10 10 0 0 0-4.35 4.25 10 10 0 0 0-.62 8 10 10 0 1 0 7.18-13.07.28.28 0 1 1-.13-.55 10.6 10.6 0 1 1 2.41 20.92z"/><path class="cls-2" d="M24.05 18.39a.28.28 0 0 1-.26-.16C23.2 17 22.61 15.85 22 14.76a.28.28 0 0 1 0-.26c.54-1.05 1.08-2.13 1.66-3.31A.28.28 0 0 1 24 11h.76c.28 0 .34 0 1 .08a.28.28 0 0 1-.06.57c-.62-.06-.67-.07-.94-.08h-.58c-.53 1.07-1 2.06-1.52 3 .54 1 1.08 2.08 1.63 3.19l3-.1a.28.28 0 1 1 0 .57l-3.14.1z"/><path class="cls-2" d="M23.72 24.84a.28.28 0 0 1-.25-.16l-1.54-3a.28.28 0 0 1 0-.27 67.82 67.82 0 0 0 1.87-3.43.28.28 0 0 1 .25-.16l3.13-.1a.28.28 0 1 1 0 .57l-3 .1c-.57 1.1-1.15 2.17-1.73 3.17L24 24.43a.28.28 0 0 1-.25.41zM16.51 18.46H12.7a.28.28 0 0 1-.25-.15c-.59-1.1-1.19-2.28-1.78-3.49a.28.28 0 0 1 0-.25c.62-1.21 1.25-2.37 1.88-3.46a.28.28 0 0 1 .23-.14c1.21-.05 2.47-.08 3.74-.09a.28.28 0 0 1 .25.14c.64 1.13 1.29 2.29 1.93 3.46a.28.28 0 0 1 0 .27l-2 3.59a.28.28 0 0 1-.19.12zm-3.64-.6h3.47l1.8-3.31c-.59-1.07-1.19-2.14-1.77-3.18-1.15 0-2.3 0-3.4.08-.58 1-1.16 2.07-1.73 3.17a75.02 75.02 0 0 0 1.63 3.24z"/><path class="cls-2" d="M16.58 25c-1.22 0-2.43 0-3.6-.09a.28.28 0 0 1-.22-.13c-.67-1-1.33-2.07-2-3.2a.28.28 0 0 1 0-.26c.58-1.19 1.13-2.27 1.67-3.32a.28.28 0 0 1 .25-.15h3.81a.28.28 0 0 1 .25.15c.64 1.16 1.29 2.32 1.93 3.46a.28.28 0 0 1 0 .28c-.62 1.06-1.24 2.1-1.87 3.1a.28.28 0 0 1-.22.16zm-3.43-.65c1.07 0 2.17.07 3.28.08.57-.91 1.13-1.85 1.69-2.81-.59-1-1.19-2.11-1.77-3.18h-3.47c-.49 1-1 1.95-1.52 3 .58 1.04 1.18 2.02 1.78 2.92zM22.27 14.91h-3.81a.28.28 0 0 1-.25-.15c-.65-1.18-1.3-2.34-1.93-3.46a.28.28 0 0 1 0-.28c.62-1.06 1.25-2.11 1.87-3.1a.28.28 0 0 1 .24-.13c1.22 0 2.43 0 3.6.09a.28.28 0 0 1 .22.13c.67 1 1.33 2.07 2 3.2a.28.28 0 0 1 0 .26c-.59 1.21-1.14 2.29-1.67 3.32a.28.28 0 0 1-.27.12zm-3.64-.61h3.47c.48-.94 1-1.93 1.52-3-.58-1-1.18-2-1.79-2.92-1.07 0-2.17-.07-3.28-.08-.56.9-1.13 1.85-1.69 2.81.58 1.05 1.14 2.11 1.77 3.19z"/><path class="cls-2" d="M12.8 11.5a.28.28 0 0 1-.25-.15L11 8.43a.28.28 0 1 1 .51-.26L13 10.92c1.11 0 2.25-.07 3.4-.08.56-1 1.13-1.9 1.69-2.81l-.3-.47c-.15-.24-.17-.27-.52-.75a.28.28 0 1 1 .46-.33c.36.5.39.53.54.78l.4.62a.28.28 0 0 1 0 .31c-.62 1-1.25 2-1.86 3.09a.28.28 0 0 1-.24.14c-1.26 0-2.51 0-3.73.09zM11 21.74c-1.13-.07-2.2-.15-3.19-.26a.28.28 0 0 1-.23-.16c-.36-.77-.71-1.58-1.08-2.47a.28.28 0 1 1 .5-.2c.33.82.66 1.58 1 2.29.88.09 1.83.16 2.82.23.53-1.08 1-2.07 1.52-3-.54-1-1.08-2.08-1.63-3.19L8 15c-.44 1-.8 1.86-1.1 2.6a.28.28 0 0 1-.53-.21c.3-.75.7-1.73 1.15-2.74a.28.28 0 0 1 .25-.17l3.14-.1a.28.28 0 0 1 .26.16c.59 1.21 1.19 2.38 1.77 3.47a.28.28 0 0 1 0 .26c-.53 1-1.08 2.12-1.66 3.32a.28.28 0 0 1-.28.15z"/><path class="cls-2" d="M7.78 15a.28.28 0 0 1-.26-.17l-.29-.68-.23-.57a.28.28 0 1 1 .52-.23l.26.61.21.5 2.78-.09c.57-1.1 1.15-2.17 1.73-3.17L11 8.43a.28.28 0 0 1 .51-.26L13 11.08a.28.28 0 0 1 0 .27 67.82 67.82 0 0 0-1.87 3.43.28.28 0 0 1-.25.16L7.79 15zM12.19 26.38a.28.28 0 0 1-.25-.42l.71-1.3c-.61-.91-1.21-1.89-1.79-2.93-1.07-.07-2.09-.15-3-.25a.28.28 0 0 1 .06-.57c1 .1 2 .19 3.17.25a.28.28 0 0 1 .23.14c.63 1.13 1.28 2.19 1.94 3.16a.28.28 0 0 1 0 .29l-.79 1.46a.28.28 0 0 1-.28.17zM18.25 27.46a.28.28 0 0 1-.23-.12 67 67 0 0 1-1.69-2.45.28.28 0 0 1 0-.31c.62-1 1.24-2 1.86-3.09a.28.28 0 0 1 .24-.14c1.27 0 2.52 0 3.73-.09a.29.29 0 0 1 .26.15l1.54 3a.28.28 0 0 1-.51.26L22 21.84c-1.11 0-2.25.07-3.4.08-.56 1-1.13 1.9-1.69 2.81.56.85 1 1.56 1.57 2.28a.28.28 0 0 1-.23.45z"/></g></g></svg>