<svg xmlns="http://www.w3.org/2000/svg" viewBox="0 0 46.78 21.05">
  <defs>
    <style>.cls-1{fill:#be1e2d}</style>
</defs>
<g id="Layer_2" data-name="Layer 2">
  <g id="Layer_1-2" data-name="Layer 1">
    <path class="cls-1" d="M26.11 13h3.12v6.13h-3.12V13zm-4.56 7h12.1v-9.66h-12.1V20zM24.06 8.41h-2.51v.86h12.1v-.86h-2.51l1.04-1.17 4.32-4.86H18.7l4.32 4.86 1.04 1.17z"/>
    <path class="cls-1" d="M18.18 16.36h-5.82v-5h5.82v5zm2.3 4.64V7.7h1.65l-4.74-5.32-.31-.38-.31-.35L15.27 0 8.42 7.7h1.65V21zM42.84 16.36H37v-5h5.82v5zm-4.4-14.68l-.32.32-.31.35-4.74 5.35h1.65V21h10.42V7.7h1.65L39.93 0l-1.49 1.68zM6.38 13.69c-.31 2.22-.76 5.18-.76 5.18a26 26 0 0 0-1.67-4.32l-.43.18c1.29 1.29 2 6.1 2 6.1h.74a19.76 19.76 0 0 1 0-3c.12-1.6.55-4.19.55-4.19z"/>
    <path class="cls-1" d="M5.73 9.81a1.47 1.47 0 0 0-.55-1.91c-.86-.62-1 0-1.79.06s-1.29-.49-2-.12S.31 9 .87 9.56c-1.23.49-1.17 2.22.31 2-.92.25-.74 1.23-.25 1.85a2.63 2.63 0 0 0 2 .92c.18 1.85 4.68-.86 2.59-2.22.18-.37 1-.68 1-1 .12-.62-.55-.55-.68-1"/>
    <path class="cls-1" d="M8.32 11.84a.49.49 0 0 0-.25-.84c.86-1.17-2.83-1.78-2 0a1.16 1.16 0 0 0-.86 1.91c-1.42.37.68 1.85 1.6 1.72 1.35-.18 1.6-1.23 1.35-2.4"/>
  </g>
</g>
</svg>
