<svg xmlns="http://www.w3.org/2000/svg" viewBox="0 0 33.88 33.88"><defs><style>.cls-2{fill:#604529}</style></defs><g id="Layer_2" data-name="Layer 2"><g id="Layer_1-2" data-name="Layer 1"><circle cx="16.94" cy="16.94" r="16.94" fill="#d0d1d2"/><path class="cls-2" d="M26.2 16.89h-1.35a.3.3 0 0 1 0-.59h1.35c.14 0 .5-.31.79-.9a1.62 1.62 0 0 0 .24-1.27c-.43-.45-6.53-3-10.28-4.53a.3.3 0 0 1 .23-.6c2.35.95 10.06 4.09 10.53 4.73s0 1.59-.19 1.89-.66 1.27-1.32 1.27zM9.46 16.89H7.78c-.57 0-1.19-.74-1.51-1.47a1.54 1.54 0 0 1 0-1.66c.37-.41 2-1 4.53-2 1.61-.63 3.27-1.27 4.32-1.79a.3.3 0 1 1 .26.53c-1.07.53-2.75 1.18-4.36 1.81a26.28 26.28 0 0 0-4.3 1.88c-.15.16-.12.56.09 1 .29.67.78 1.12 1 1.12h1.65a.3.3 0 0 1 0 .59z"/><path class="cls-2" d="M17.07 9.62a.3.3 0 0 1-.3-.3v-.64c0-.67.79-1 1.17-1.16a2.28 2.28 0 1 0-3.17-2.1.3.3 0 1 1-.59 0 2.88 2.88 0 1 1 4 2.65c-.2.08-.81.34-.81.61v.64a.3.3 0 0 1-.3.3zM25.81 28.53h-5.73a.3.3 0 0 1-.3-.28c-.24-4.1-1.22-9.87-2.63-9.87s-2.43 5.77-2.7 9.87a.3.3 0 0 1-.3.28H8.8a.3.3 0 0 1-.3-.31l.72-12.67a.3.3 0 0 1 .3-.28h15.24a.3.3 0 0 1 .3.27l1 12.63a.3.3 0 0 1-.29.36zm-5.46-.59h5.13l-1-12.08H9.8l-.69 12.07h4.77c.06-.73.24-2.79.61-4.83.65-3.58 1.52-5.32 2.66-5.32s2 1.74 2.63 5.32c.35 2.04.52 4.1.57 4.83z"/></g></g></svg>