<svg xmlns="http://www.w3.org/2000/svg" viewBox="0 0 331.06 537.62"><g data-name="Layer 2"><path d="M242.37 248.55zm1.21.31l-.68-.17zm-.68-.17l-.23-.06zm-.53-.14l.31.08zm2.2.56zm2.55.69h-.18zm-2.55-.69h.09zm4.59 9.52l-3 2.43-2.29 1.74a120.87 120.87 0 0 1-10.69 7.07l-2.44 1.39c-2.87 1.59-5.8 3-8.71 4.32l-4.08 1.69-1.32.49a84.55 84.55 0 0 1-13.41 3.75.27.27 0 0 1-.25-.08.27.27 0 0 0 .25.08l-2.75.47a70.46 70.46 0 0 1-16 .63 66.79 66.79 0 0 1-7.32-1c-1.76-.34-3.56-.76-5.34-1.25-1.61-.44-3.24-1-4.84-1.54a74.25 74.25 0 0 1-12.42-5.82 86.44 86.44 0 0 1-8.85-6l-3-2.42-.88-.74a111.04 111.04 0 0 1-5.26-4.79l-2-2c-1.34-1.37-2.7-2.82-4-4.32l-.8-.91-1.12-1.3-3.46-4.23a.25.25 0 0 1 0-.06.28.28 0 0 1 0-.05v-.1a88.73 88.73 0 0 1 10.27-6.61l1.14-.63c2.26-1.24 4.6-2.42 7-3.52a117.17 117.17 0 0 1 16.49-6.32l3.59-1c2.82-.72 5.68-1.33 8.51-1.8l1.34-.22 3.43-.47a95.86 95.86 0 0 1 14.74-.63l2.12.1a91.69 91.69 0 0 1 9.38 1l2.11.37 3.33.69c2.75.62 5.51 1.38 8.19 2.26l1.46.49a96.76 96.76 0 0 1 10.12 4.15 104.67 104.67 0 0 1 9.93 5.44l1.36.85 1.4.91a124.5 124.5 0 0 1 14.46 11.22c1.71.51 42.58 12.68 75.51 28.29v.61c-32.46-15.41-72.79-27.51-75.56-28.34-.5.51-2.76 2.73-6.34 5.71zm5.75-5.9c-2.25-.74-4.58-1.45-7-2.12l.06.33.14.82v.29l1 5.85c3.1-2.55 5.09-4.47 5.79-5.18zm-8.73 7.6l2.51-2-1.32-7.87-2.45-.66h-.13zm-2.35 1v.76l1.77-1.34-.05-.41-.05-.4-1.27-9.68v-.64l-1.64-.42 1.2 11.8zm-10.57 7.85a120.37 120.37 0 0 0 10.13-6.72l-1.39-13.2V249.03c-3.37-.83-6.85-1.6-10.35-2.27zm-2.42 1.4l1.9-1.08-.13-1.78-.07-1v-.52l-1.4-19.54-1.1-.21-.31-.06.54 11.37v1.63zm-.53.3l-.93-19.79-.18-3.73v-1.05h-.07l-2.35-.41H225.64l-.61-.1-.38-.06h-.38l-1.5-.24v3.43l-.41 20.13v1.2-.26V272.37l-.05 2.49c2.59-1.17 5.32-2.53 7.99-4zm-8.68 4.29l.62-30-1.09-.16-3 31.6zm-4.06 1.67l2.9-30.39.09-.91.05-.56v-.06l-1.23-.17-2.56 32.37zm-1.32.49V277l.09-1.14 2.47-31.15h-.14l-1.16-.15H217.17l-3.33-.41v.07l-6 21.46-.31 1.09-1 3.62-3 10.61a84.16 84.16 0 0 0 12.72-3.7zM202.93 281v-.12l.33-1.17.15-.52.39-1.38 9.5-33.84-1.15-.13h-.22l-11.16 37.55zm-2.73.46v-.09l.05-.18.07-.24.1-.34.09-.29.78-2.62.48-1.61.26-.86.17-.57.33-1.12.38-1.27.6-2 .27-.92 1.41-4.76.07-.22.41-1.37.2-.66 1.41-4.75.34-1.13.39-1.3v-.17l.4-1.36.05-.18.4-1.34.09-.3.28-1 .19-.64 1-3.24v-.08l.37-1.25.21-.6.37-1.24-2.2-.23H208.09l-3.55-.29-3.17-.26-16.56 39.2a69.9 69.9 0 0 0 15.38-.72zm-15.93.59l9.47-22.4.94-2.22.72-1.72.39-.92 5-11.94c-2.69-.18-5.42-.33-8.11-.44l-.41 1.06-14.78 37.68a66.2 66.2 0 0 0 6.77.85zm-7.29-1l15.16-38.66h-2.33l-17.58 37.63c1.57.35 3.17.73 4.77 1.03zm-5.29-1.26l17.52-37.5h-2.33l-19.48 36.2c1.42.45 2.86.91 4.28 1.3zm-4.8-1.54l14.74-27.39.06-.11.61-1.12.12-.22 1.21-2.24 2.66-4.94c-3.45-.07-7-.08-10.48 0l-20.7 30.54a73.7 73.7 0 0 0 11.76 5.48zm-12.27-5.81l3.64-5.38.6-.89.27-.39 16-23.59h-10.44l-4.08.18-12.8 21.41-.24.4-.77 1.28-.3.5-.29.49a85.8 85.8 0 0 0 8.4 5.99zm-8.82-6l14.2-23.72-1 .06-.37.51-15.36 21-.08.11zm-3-2.41l9.2-12.61 6-8.22.27-.37-1.28.09h-.35l-14.38 20.71zm-.9-.77L156 243h-.54l-.91.06h-.46l-2.58.18h-1.23l-2.37.21-.06.09-9.68 13.65-.34.48-.73 1c1.54 1.75 3.16 3.22 4.79 4.62zm-5.23-4.79l.25-.35.65-.92.48-.67.42-.6 8.72-12.29-.54.05-.74.07h-.57l-10.28 13.14zm-2-2l.11-.14L139 251l.14-.18.73-.93 4.65-5.92.06-.08-.88.1-1.74.19-.62.07-.68.07-3 .32-6 7.21-.14.16-.22.26-.21.26c1.16 1.47 2.38 2.73 3.59 3.98zm-4-4.31l6.2-7.42-1.19.15-.09.12-.08.1-.32.4-.89 1.11-4 5zm-.8-.92l.17-.22.33-.41.18-.22.21-.26 4.12-5.13H134.46l-1.33.18-.4.51-3.2 4.09-.42.54zm-1.12-1.24l3.6-4.59c-3.36.47-5.64.85-6.54 1zm-2.37-4.24l.51-.08.51-.08h.15l.51-.08h.15l.69-.11.81-.12h.2l.67-.1h.29l.69-.1h.27l1-.14 2.54-.33 2-.25L139 244l-3.53-4a96.61 96.61 0 0 0-9.09 5.72zm9.58-6l3.71 4.24 1.33-.14-4.38-4.46zm1.16-.63l4.57 4.65 3.35-.37h.96l1.68-.16 2.07-.18-6.25-7.1c-2.14.85-4.29 1.94-6.38 3.03zm22.91-9.5a116.57 116.57 0 0 0-16 6l6.41 7.28h.08l2.35-.17 1.55-.11h.14l.82-.06 1.16-.08H157.34l1.47-.1h2.08l6.22-.28zm3.57-1l-3 .83 7.21 12.43h2.38zm8.47-1.81c-2.64.45-5.3 1-7.93 1.68l6.63 13.33H178.74zm1.34-.22l-.78.13 6.66 15h1.39zm3.4-.47l-2.83.39 7.31 15.18h1.24zm14.68-.66a95.22 95.22 0 0 0-14.12.6l5.74 15.64 3.62.05 2.91.07 2.91.1 3.25.15zm2.11.09l-1.54-.07 4.31 16.51 2.31.13zm9.31 1c-2.89-.46-5.82-.79-8.72-1l5.08 16.69 2 .12h.11l2.16.18 1.38.11zm2.11.36l-1.55-.27 2 16.1 1.2.1h.75zm3.6 11.38V235.33l-.22-7.73-2.72-.56 2.4 15.92h.76zm.25-10.58l.2 7.14v2.8l.15 5.4.85.09.71.07H211.71l1.92.21h.27l1.63.2.84-13.94c-2.37-.75-4.96-1.45-7.52-2.04zm8.14 2.27l-.84 13.83 1.08.13.2-4.07.13-2.56.35-7zm1.46.5l-.42 8.51-.08 1.62-.17 3.41h.15l1.24.17 1.78.25 1.61.24h.55l1.57.25 1.22.19 2.08-10.79a96.27 96.27 0 0 0-9.55-3.91zm10 4.16l-2 10.67 2.44.43H229.48l1.62.3H231.44l2.14.43 1.57.32 2.73-7.18a104.18 104.18 0 0 0-9.4-5.03zm9.84 5.42l-2.66 7 .9.19 2.64-6.64zm1.35.85l-2.57 6.46 1.26.28 2.25-6.13zm1.4.92l-2.17 5.94 1.63.39 1.8.43 1.27.32.25.06.66.17 2 .54-1.88-.51 2.27.62-.19-.05.37.1.48.13h.08c2.23.62 4.42 1.29 6.54 2a123.56 123.56 0 0 0-13.1-10.2zM126.72 16.86h-.22c2.56.76 5.46 1.69 8.63 2.79l2.18.77c4.31 1.55 8.68 3.26 13 5.1a233.68 233.68 0 0 1 28.54 14.59l5.76 3.59c4.46 2.87 8.85 5.93 13.05 9.09l2 1.5 5 4a202.18 202.18 0 0 1 19.81 18.62l2.53 2.85c3.84 4.31 7.53 8.84 11 13.48l2.32 3.19 3.53 5.15c2.86 4.32 5.57 8.8 8.06 13.32l1.34 2.47a.28.28 0 0 0-.08-.09.27.27 0 0 1 .08.09 196.36 196.36 0 0 1 8.42 18 207.42 207.42 0 0 1 6.72 19.23l.79 2.75.79 2.88A232.88 232.88 0 0 1 276 192.1c1 1.48 21.88 31.76 50.53 68.36-12.71-53.31-15.58-113.54-15.7-116.11A137.73 137.73 0 0 1 300 127.21l-.86-1.65-.8-1.58a115.28 115.28 0 0 1-5-11.52 106 106 0 0 1-3.52-11.59l-.39-1.66c-.68-3.05-1.23-6.17-1.62-9.27l-.4-3.74-.18-2.39c-.14-2.13-.21-4.29-.21-6.43q0-2 .08-4l.12-2.35a104.7 104.7 0 0 1 2.32-16.17l.9-3.73.39-1.45c.84-3.07 1.83-6.15 2.94-9.17l1.49-3.85A128.68 128.68 0 0 1 304 19.11c1.49-2.48 3.06-4.93 4.68-7.27l.83-1.18A98.14 98.14 0 0 1 318 .07a.27.27 0 0 1 .12-.07h.18c1.44 1.37 2.9 2.81 4.33 4.28l1.33 1.38.93 1c1.51 1.61 3 3.27 4.38 4.91l1.66 2v1l-18.06 10.28-.51 2.72c-.38 2-.74 4.12-1.09 6.21l19.8-10.89v.62l-19.91 11c-.1.62-.21 1.23-.31 1.85l.26-.15h.08l1-.57.41-.24 1-.57.64-.38.23-.13 1.92-1.12.51-.3 1-.58.89-.52 1-.56.18-.11 6.75-3.93 3.65-2.2.68-.4v.63L314.17 35l-3.45 2v.23l-.14.9 13.52-6.29 1.6-.75 1.6-.74 1.21-.56 1.21-.56 1.39-.64v.6L316.35 36l-5.17 2.41h-.11l-.25.12-.33.15-.37 2.52v.08l-.4 2.75-.07.48-.12.83-.06.43-.08.57v.28l-.36 2.92-.63 5.07 6.57-3.52h.05l.84-.45.88-.47.88-.47 2.37-1.27 1.46-.78 5.48-2.93 1.7-.91 2.53-1.36v.62L308.23 55.4c-.42 3.79-.79 7.62-1.09 11.38v.23l3.12-1.28 20.82-8.57v.59l-24 9.87v.55l-.15 2.08.4-.14 23.78-8.26v.58l-24.21 8.41-.17 2.64 24.4-6.79v.57l-24.43 6.8c-.18 3-.31 6-.4 9L322.87 78l7-2.13 1.18-.36v.57l-24.85 7.61c-.08 2.89-.13 5.74-.13 8.45v2.71l8-1.51 17-3.23v.56l-24.78 4.7h-.15v1.58l25-4.35v.56l-24.95 4.35v4.05l.05 1.55 4.38.09H312.84l18.19.36v.55H331l-24.69-.49.06 1.33v.11h10.77l13.95.05v.55h-24.68v1.23l10.22.79h.58l2.35.18 2.85.22h.12l8.49.66v.55l-4.22-.33h-.19l-3.45-.27h-.32l-1.35-.1-2.94-.23h-.23l-10.31-.8h-1.58v.14l.21 3.57a.28.28 0 0 0-.1-.19.28.28 0 0 1 .1.19l.26 3.45 1.27.19 22.82 3.32v.55l-1.79-.26-.74-.11-21.46-3.19.13 1.52v.12l1.49.25 12.79 2.17.81.14 1.25.21 2 .34h.09l5.53.94v.56l-23.86-4.06c.37 4 .84 7.89 1.41 11.71l.66.13h.14l14 2.84c2.69-2.94 5.23-6 7.6-9.11v.92c-2.29 3-4.73 5.88-7.3 8.68l-2.19 2.33-3 3.06c-3.79 3.7-6.54 5.93-7.1 6.38.15 3.21 3.09 63.87 16 117.11l3.67 4.66v.88l-4.12-5.23c-28.78-36.7-49.88-67.28-51.27-69.3-.91-.05-6.43-.42-14.8-1.77l-6.66-1.19-4.92-1a224.23 224.23 0 0 1-21.81-5.92l-4.83-1.59c-5.52-1.95-11-4.13-16.15-6.48-2.46-1.11-4.87-2.26-7.19-3.42l-2.26-1.16a172.58 172.58 0 0 1-21.59-13.29l-4.09-3.06A148.4 148.4 0 0 1 150 133.27c-3-3.45-5.8-7.06-8.37-10.71-1.9-2.7-3.75-5.53-5.5-8.42-1.59-2.64-3.12-5.36-4.53-8.1a149 149 0 0 1-9.45-22.83 165.55 165.55 0 0 1-4.74-18.42c-.45-2.26-.85-4.54-1.2-6.76l-.33-2.03c-.6-4.07-1.07-8.23-1.41-12.37l-.34-4.91c-.19-3.37-.31-6.81-.35-10.23v-5.1c0-3.25.13-6.32.28-9.38a.27.27 0 0 1 0-.09.27.27 0 0 1 .1-.08h.12c.06 0 4.53.87 11.88 3.05m149 175.09c-2.18-4-4.52-8.08-7-12.16l-3.76 5.65-.07.1-1.26 1.89-1.9 2.84c7.59 1.11 12.65 1.5 14.13 1.6zm-14.55-1.77l.12-.18 1.27-1.9.11-.16.4-.6.51-.76.21-.32 1.53-2.29 3.14-4.71-2.81-4.6-7.9 10.84-1.64 2.25-.84 1.16-.13.18zm-6.64-1.19l10.8-14.83-1.2-1.9-.72-1.14-.19.25-.15.2-.32.41-12.5 16.09zm-4.91-1l.91-1.17.21-.26 12.36-15.91c-3.5-5.5-7.24-11.08-11.12-16.59l-.28.34-.12.15-.45.54L228 182.18c6.91 2.24 14 4.17 21.21 5.74zM227.44 182l23.8-28.47-.23-.33-1.56-2.2-26.16 29.58zm-4.72-1.61l26.39-29.84-3.2-4.41-.27-.37-.13-.17-.22-.3-.29-.3-.07-.09-.36-.48-2.16-2.88-.1-.14-.55-.74-11.67 11.3-.26.25-4.83 4.64-17.87 17.29c5.04 2.26 10.27 4.35 15.59 6.24zm-16.11-6.47l9.45-9.14 3-2.9.55-.53 1.57-1.52 1-.93 2.13-2.07 1.22-1.18.58-.56 15.37-14.87-.06-.08-.17-.22-.3-.4-.06-.08-.17-.22-.16-.21-.1-.13-.48-.64-3.67 3-.64.52-.11.09-30.68 25-.18.14-1 .82-.48.39-.8.65-.62.51-.32.26-1 .83-.09.08-.26.21-.08.07c2.09 1.02 4.31 2.08 6.56 3.11zm-7.15-3.42l40.17-32.72-1.69-2.18-6.21 5.25-1.31 1.15-.64.54-.73.61-1.05.85-1.26 1.06-.93.79-1.37 1.15-.23.19-26.49 22.4zm-2.26-1.16l40.41-34.17-1.46-1.87-.07-.09-.14-.18-.05-.07-.16-.2-.42-.53-.08-.1-2.12-2.66-1.05-1.32-.44-.55-3 1.58-.14.07-.79.41-51.45 26.78a172.11 172.11 0 0 0 20.96 12.9zm-21.49-13.26l30.19-15.71.14-.07 2.4-1.25.16-.08 3.28-1.71 1.36-.71.37-.19 9.16-4.77 1.78-.93 1-.53.72-.37 1.9-1 1.11-.58 1.64-.85.3-.16-.94-1.16-1-1.17-57.25 28.55zm-4.08-3.08l4.51-2.25.18-.09 6.16-3.07.37-.18 3.09-1.54.43-.22L229 124.4l-1.08-1.31-.06-.08-.37-.45-1-1.21-.13-.16-.28-.34-.08-.1-2.25-2.68a670.45 670.45 0 0 0-7-8.15l-2.17.76-1.15.41-2.29.81-5.14 1.83-1.2.42-4.35 1.53-3.49 1.23-5.19 1.83-4.24 1.49-7.53 2.65-1.41.5-11.59 4.07-1.08.38-15.29 5.39a147.89 147.89 0 0 0 21 19.78zm-21.36-20.25l28.06-9.89.47-.17 2.73-1 .53-.19 3.8-1.34 1.06-.37 1.63-.57 6.57-2.31h.06l21.16-7.46C213 105.64 209.49 101.77 206 98l-63.74 24.55c2.48 3.45 5.17 6.91 8.02 10.22zm-8.34-10.7l.21-.08.3-.12.64-.25 2.17-.84.34-.13 14.8-5.7 2.09-.8 1.48-.57 16.53-6.37 2.5-1 2.14-.83 4.88-1.88 2.47-1 13.11-5.05-.06-.07-1-1-2.18-2.36-64.22 19.69-1 .32-.17.05h-.15c1.6 2.81 3.34 5.47 5.12 8.01zm-5.47-8.4l12.48-3.83.63-.19 4.41-1.35 5.82-1.78.46-.14 33.31-10.22h.14l2.77-.85 5.46-1.67-3.28-3.47-66.42 16c1.32 2.51 2.76 5.05 4.23 7.53zM132 105.6l57.5-13.83.64-.15 1.16-.28 1.86-.45.84-.2 2.6-.63 1.14-.27.47-.11a735.23 735.23 0 0 0-13.88-14.16l-61.44 7.82h-.13A148.39 148.39 0 0 0 132 105.6zm-9.39-22.78l1.37-.17 1.56-.2 1.57-.2.8-.1 1.23-.16 1.64-.21.81-.1 1.33-.17 1.47-.19 3.46-.44 3.25-.41 2-.25 3.41-.43 2.41-.31 35-4.46c-3.42-3.38-6.84-6.71-10.19-9.9-3.15-3-6.34-6-9.51-8.9l-2 .38h-.26l-1 .2-1.26.24-.45.09-1 .2-.59.11-1.82.34-.91.17-1.1.21-.68.13-1.27.24-.45.09-1.19.22L118 65a165 165 0 0 0 4.58 17.82zm-4.7-18.41l14.47-2.74 2.24-.42 1.86-.35 19.15-3.62.81-.15.92-.17 2-.38 1.3-.25 1.52-.29.62-.12.44-.08H163.65l-.15-.14-1.55-1.42h-.58l-.7.06h-.23l-.82.07-1 .09-3 .27h-.09l-38.8 3.47c.37 2.03.74 4.1 1.15 6.18zm-1.19-6.72l1.25-.11h.45l1.06-.09 41.93-3.75-2.64-2.39-42.28 4.87zm-.3-2.06l41.81-4.81c-2.69-2.43-5.4-4.84-8.1-7.21h-.05l-.24-.21-.06-.05-.25-.22-2.93-2.55-31.6 3.25c.37 3.96.82 7.93 1.39 11.81zM129.21 26l-10.71.45H116.59l-2.18.09h-.09v1.55l17.1-.37-1-.82zm2.88 2.35H132l-11.8.26h-1.95l-3.95.09c0 3.23.15 6.48.33 9.66l27.68-1.47c-3.38-2.89-6.83-5.77-10.22-8.54zM143 37.44l-27.3 1.45h-.97l.3 4.35L146 40zm-28.67-11.36l14.24-.61-2.51-2-.51-.41-11.21.61zm0-3l10.55-.58c-5.51-4.39-9.17-7.13-10.3-8-.11 2.85-.2 5.66-.23 8.61zm20.43-3a176.75 176.75 0 0 0-19.27-5.57l1.55 1.17.12.09.62.48.39.3.29.22.52.4.22.17.84.65.87.68.2.16.89.7.1.08 1.06.83.21.17.9.71.3.24 1.16.93 3.67 3 2.89 2.35 2.44 2c.07-1.01.05-9.36.05-9.72zm2.19.77l-1.64-.58v10l2.29 1.91zm1.25 11.82q2.51 2.1 5 4.24l3.6 3.09.28.25 2 1.73.91.79-.07-16.77c-4.1-1.75-8.27-3.39-12.39-4.87zm12.24-6.51c0 .8.09 16.84.09 17.08 3.89 3.41 7.8 6.91 11.64 10.41l1.63 1.49.29.27.21.2.06.05c3.08 2.83 6.19 5.74 9.25 8.66l4.72-23.89a233.1 233.1 0 0 0-27.87-14.22zm28.44 14.64l-4.75 24 3.5 3.36 6.5-24.12zm5.73 3.58l-6.53 24.24q3.26 3.15 6.54 6.4 2.12 2.1 4.21 4.22l8.33-26.11a214.14 214.14 0 0 0-12.55-8.75zm13 9.1l-8.36 26.21 2.15 2.17 7.73-27.23zm2 1.52l-7.75 27.31 1.91 2 10.32-25.71zm4.93 3.94L194.19 84.7c1.6 1.65 3.19 3.3 4.75 4.94l3.69 3.91 2.8 3 .42.45.22.23.22.24q2.13 2.31 4.25 4.66l13.34-25a201.64 201.64 0 0 0-19.35-18.2zm19.73 18.61l-13.35 25 3.17 3.54L226.5 80zm2.62 2.9l-12.4 26.11 2.54 2.88q2.33 2.66 4.6 5.31l15.81-21.35c-3.32-4.46-6.86-8.81-10.55-12.96zm10.89 13.42L222 115.17l2.66 3.14 15.1-21.72zm2.32 3.21L225 118.74l1.2 1.43 12.94-14 .3-.32 1.4-1.52.43-.46 1-1.1.39-.42.16-.17.31-.33.11-.12zm3.49 5.11l-.31.34-3.11 3.36-3.19 3.46-10.37 11.22 3.08 3.73 2.25 2.76.1.13.13.17.23.29.13.16.34.43 1.35 1.69 17.1-14.93c-2.4-4.37-5-8.67-7.74-12.83zm8 13.29l-17 15 .07.09.79 1 .22.28.21.27.07.09.18.22 16.52-15zm1.33 2.48l-16.44 14.88.68.87.21.27.12.16.64.81.07.09.57.73.91 1.18.15.2.29.38.1.13 1.45 1.9.37.49v.06l.48.64.07.09 1.53 2 .15.19 1 1.33.31.41.31.41 15.14-9.85c-2.39-5.89-5.13-11.75-8.11-17.38zm8.36 17.95l-14.48 9.42-.49.32h-.06l1.16 1.59.17.24.45.62.17.24.24.34.71 1 .06.09.27.37.09.13.1.14 2 2.78.15.21q2.07 2.94 4.08 5.89l11.9-4.75c-1.91-6.39-4.1-12.66-6.52-18.64zm6.67 19.16l-11.74 4.68 1.2 1.77 11.18-4.24zm.79 2.75l-11 4.17 1.57 2.37 10.09-4.18zm.78 2.89l-9.92 4.11c1.24 1.88 2.47 3.77 3.66 5.64l2.22 3.53 3.11 5.1q.89 1.49 1.77 3c1.72 2.93 3.38 5.85 5 8.72a231.92 231.92 0 0 0-5.85-30.11zM310.59 143c-.54-2.45-1.05-5-1.51-7.57l-.61-3.55-.08-.55v-.07l-.11-.72-.06-.36-.09-.59v-.2c-.1-.68-.19-1.37-.28-2.06s-.17-1.21-.25-1.83l-6.94 1.76a136.75 136.75 0 0 0 9.93 15.74zm-10.25-16.25l7.14-1.81c-.06-.49-.13-1-.19-1.48l-7.55 2.14zm-6.58-14.69l.6-.05h.77l.58-.05 1.3-.12h.3l8.79-.78v-.52l-.19-3.25v-.45l-.07-1.35-.08-2v-.08l-.05-1.49h-1.27l-1.12-.06-1.06-.05h-1.55l-1.07-.05h-.19l-1.69-.08h-.41l-1.14-.06-2.24-.11-1.65-.08h-.77l-1.08-.05a105.52 105.52 0 0 0 3.3 10.69zm6-11.07l5.86.29V100L290 99.43l.26 1.11zm-9.89-2.12l15.7.6-.05-2.15v-2.14-2.77L289 90.3h-.21l-.45-.06c.43 2.87.94 5.76 1.57 8.63zm15.61-7v-.91L288 86.53l.34 3.12zM287.92 86l17.61 4.41v-2.24l-17.77-4zm-.37-8.58c0 2.07.07 4.15.2 6.21l17.82 4q0-2 .09-4.09c0-.74.06-1.48.08-2.22l-18.12-7.45a99.25 99.25 0 0 0-.07 3.51zm.09-4.15l18.13 7.45c0-.87.07-1.74.11-2.62l-18.14-6.6zm.13-2.33l18.13 6.6c.06-1.22.12-2.44.19-3.64l.21-3.21.24-3.22c.1-1.33.23-2.67.35-4L290 55.34a104.11 104.11 0 0 0-2.23 15.55zm2.35-16.1l16.82 8c0-.35.06-.69.09-1v-.39l-16.18-9.75zm4.24-14.27l14.07 8.72.33-2.68-1.44-1-5.77-4.11-1.34-1-4.57-3.25zM309.3 12l4.55 5.38.12-.56.2-1-4.36-4.59zm.83-1.19l4.18 4.4.06-.28.13-.6.11-.53.05-.26.41-1.78V11.35l.65-2.76.29-1.2v-.16l.23-.94v-.2l.23-.93v-.1l.23-.9.3-.16.17-.65v-.16c.2-.78.37-1.41.51-1.89a106.53 106.53 0 0 0-7.55 9.49zm8.25-10c-.26.94-.95 3.45-1.87 7.22l3.59-2.25 2-1.27c-1.21-1.29-2.47-2.51-3.72-3.72zm4.14 4.1l-6.2 3.89-.45 1.91v.08l1.41-.91 6.2-4zm1.33 1.38l-6.24 4-1.39.89-.54.35-.32 1.4 5.56-3.73 3.49-2.34zm.92 1l-.28.19-.21.14-1.59 1.07-.41.27-7.1 4.77-1.18 5.45-.07.34-.08.38-.3 1.4 15.2-9.57c-1.26-1.49-2.6-3-3.97-4.47zm4.36 4.9l-6.73 4.21-2.6 1.6-.8.5-5 3.17-.55.35-.35 1.76-.07.33 17.78-10zM312 26.44l.31-1.66V24.63l.55-2.8v-.16l.08-.4v-.2l.21-1 .43-2-4.58-5.62c-1.51 2.19-3 4.46-4.36 6.77l7.29 7.72zm-2.36 14l.28-1.89.28-1.76c.5-3.08 1-6.15 1.58-9.13v-.06l-.24-.25-7.11-7.53-.11-.12a128.09 128.09 0 0 0-8.49 17l.32.23 12.68 9v-.07zm-2 14.73v-.36l.62-5L294.17 41c-1 2.84-2 5.73-2.76 8.61l15.93 9c.12-1.13.23-2.28.35-3.41zm-.41 4l-16-9-.24.91 16.1 9.7c.08-.51.14-1.04.19-1.57zm-.86 55.71l-.26-3.4-5.32.47-6.88.61a114.74 114.74 0 0 0 4.72 10.93l8.37-2.19-.18-1.75c-.09-.81-.18-1.62-.25-2.44zm-7.44 9.12l.55 1.08 7.75-2.19c0-.35-.08-.71-.12-1.07zm24.07 8.6l-14-2.85-.26-.05v.43l.13.86.07.45v.18l12.3 2.83zm-2.19 2.31l-3.52-.81-1.31-.3-.32-.07-6.1-1.41h-.28l-.22-.05.51 3 .19.05 8.49 2.28zm-3 3h-.1l-5.82-1.56-.42-.11-.74-.2h-.1l-.66-.18h-.24c.5 2.73 1 5.41 1.63 8 .79-.77 3.2-2.77 6.44-5.91zm-11.75 321.6l-2.17-3a173.62 173.62 0 0 1-4.3-6.39l-.85-1.33-1.17-1.9a176.12 176.12 0 0 1-3.56-6.09.2.2 0 0 1 0-.11l.07-.05A123.73 123.73 0 0 1 309.7 436l1.7-.38c3.37-.73 6.83-1.38 10.31-1.92q4.66-.73 9.36-1.2v.42q-4.5.46-9 1.15l.09.15.13.2.05.08 6.6 10.42.33.06 1.79.3v.42l-2.27-.38h-.14l-3.34-.53-18.78 14.67c1.79 2.4 3.66 4.75 5.56 7l19-15.14v.53l-18.71 14.93.75.87 3.46-2.62.56-.42.34-.26.78-.59.14-.11 3.2-2.42.57-.43 4.08-3.09 2.34-1.77.59-.44 1.1-.83.82-.62v.52l-17.69 13.39 3.16 3.5L331.06 458v.56l-.44.4-.57.53-1.91 1.76-10.05 9.28-1.15 1.06-.13.12a124.12 124.12 0 0 0 10.05 9.56l2.77-2.26.89-.73.54-.44v.53l-3.87 3.17q1.91 1.6 3.87 3.11v.52q-2.2-1.68-4.33-3.48a124.47 124.47 0 0 1-10.36-9.86l-3.46-3.83-1-1.19c-2.02-2.32-3.98-4.81-5.85-7.3zm.21-.42l18.47-14.42-2.4-.37-.46-.07h-.11l-17.43 12.22zm-2.16-3l17.06-12-8-1.12-1.9-.26-8.27 5.41-3 1.95c1.37 2.05 2.73 4.08 4.11 6.03zm-4.29-6.38l.17-.11 10.6-6.95-.44-.06-1.59-.2h-.06l-9.24 6.34zm-.85-1.34l8.84-6.06h-.4l-2.33-.28h-.17l-4.26 3-2.6 1.83zm-1.17-1.9l1.59-1.12 1.8-1.27 3.11-2.19c-5.26-.6-8.69-.89-9.75-1 1.04 1.88 2.11 3.7 3.26 5.6zm11.84-10.05a132.8 132.8 0 0 0-14.51 4.13l3 .27h1.01l.62.06h.87l.55.06h.34l.91.1h.32l.7.08h.39l1.07.12.76.09h.15l2 .24.53.06 2.78.35h.07l.93.13.52.07.85.12zm1.7-.38l-1.28.29 4 6.4 2.23.31zm10.28-1.92c-3.32.52-6.62 1.14-9.84 1.83l5.1 7.16 3 .42h.26l.58.08h.21l.44.06.37.05 2 .3.56.08.41.06h.6l2.95.47h.18zm-123.78-66.83c15.83-6.33 38-14.81 61.68-22.65l1.64-.54c-29.28-.38-74.33-12.8-75.89-13.24a93.66 93.66 0 0 1-13.7 1.39h-2.46a78.81 78.81 0 0 1-8.5-.49 72.71 72.71 0 0 1-8.1-1.39l-1.13-.27c-2.07-.51-4.13-1.13-6.13-1.83l-2.4-.89-1.5-.61a68.89 68.89 0 0 1-6.39-3.08l-1.38-.78a72.09 72.09 0 0 1-9.16-6.29l-2-1.67-.77-.67c-1.61-1.43-3.2-3-4.71-4.54l-1.9-2.06a88.19 88.19 0 0 1-8.04-10.57 74.277 74.277 0 0 1-3-5l-.47-.85a66.75 66.75 0 0 1-3.92-8.31l3.89-1.31 1.24-.38.87-.26 4.29-1.15 2.07-.48c1.77-.38 3.54-.7 5.26-1l.88-.13 2.9-.33a64.81 64.81 0 0 1 8-.27 55.86 55.86 0 0 1 10.2 1.23c1.26.27 2.5.59 3.7 1s2.65.84 3.9 1.33a50.23 50.23 0 0 1 5.06 2.3A53 53 0 0 1 162 290l1.56 1.4a63.65 63.65 0 0 1 7.06 7.74l.64.84 1.93 2.7c1.35 2 2.64 4.07 3.83 6.23l1 1.86a91 91 0 0 1 4 8.77l.77 2 1 2.75c1.1 3.32 1.64 5.63 1.76 6.18 2.57.71 48.09 13.18 76.93 13.21 21.62-7.07 46.44-14.2 68.66-18.12v.44c-9.84 1.73-21.29 4.28-34.62 7.9l-3.76 9.45c-6.29 17.55-14.54 36.19-22.52 52.86-2.5 23.36 3.64 61.37 4 63.51.43.15 2.25.78 4.85 2l2.15 1 1.57.8a74 74 0 0 1 6.76 4l1.42 1c1.65 1.16 3.23 2.39 4.71 3.65l2 1.8.63.6a51.86 51.86 0 0 1 5.66 6.39l1 1.39a43.17 43.17 0 0 1 4.64 8.67 41 41 0 0 1 1.42 4.3c.29 1.06.53 2.17.74 3.28.18 1 .33 2 .45 3.08a45.54 45.54 0 0 1 .1 8.37 53 53 0 0 1-.92 6.47l-.52 2.32-.18.7c-.36 1.38-.77 2.79-1.24 4.18l-.57 1.64-1.31 3.38-.29.69-.42 1-1.4 3a.16.16 0 0 1-.11.06.16.16 0 0 1-.09 0 54.41 54.41 0 0 1-6.39-3.9l-.65-.46a70.58 70.58 0 0 1-3.8-2.9 71.69 71.69 0 0 1-7.89-7.47L285 517a71.062 71.062 0 0 1-3.27-4.21l-.48-.68-1.25-1.75a58.7 58.7 0 0 1-4.3-8l-.51-1.19a56.29 56.29 0 0 1-1.94-5.45l-.36-1.27-.51-2a56.14 56.14 0 0 1-.94-5.12l-.12-.94a59.17 59.17 0 0 1-.42-6.69v-.35a64.52 64.52 0 0 1 .34-6.58l.11-1 .13-1a76.29 76.29 0 0 1 2.32-11c-.21-1.29-6.37-39-4.09-62.76-13.53 28.19-26.17 50.52-27 52 .21.5 1.49 3.64 3 8.64l1.13 4 .76 3a137.57 137.57 0 0 1 2.57 13.62l.38 3c.4 3.57.65 7.16.75 10.64V498.35a105.68 105.68 0 0 1-1.56 15.46l-.6 3.08a91 91 0 0 1-5.45 17.26c-.5 1.16-1 2.32-1.58 3.45h-.37q.84-1.72 1.6-3.48l-18.39-18.22-3.58-3.55-.23-.22L218 509l-.27-.26-1.2-1.19-3.7-3.67c-1.23 2.9-2.43 5.86-3.58 8.78l12.26 11.46.24.23 2.05 1.92 12.1 11.31h-.49L209.12 513l-.18.46-.09.23v.11l-.54 1.4-.21.53 7.13 7.67.21.23 1 1.07 2.58 2.77.07.08 5.11 5.5 4.21 4.53h-.46l-20-21.5-.68 1.8-.34.9L219.3 534l.85 1 .17.21 1 1.2 1 1.2h-.43l-15.1-18.4c-1.4 3.74-2.78 7.59-4.1 11.45l4.53 7h-.4l-4.27-6.54-2.17 6.54H200l.43-1.3-6.83 1.3h-1.8l8.75-1.67 1.62-4.89.14-.43q.59-1.73 1.2-3.45l-16.63 2.39c-.52 2.65-1 5.34-1.31 8h-.34c.37-2.76.81-5.52 1.34-8.23l.3-1.49.85-3.8a124 124 0 0 1 5-15.91l.88-2.21c1.35-3.27 2.86-6.52 4.5-9.66l1.14-2.13 1.9-3.32c1.62-2.73 3.36-5.42 5.19-8l1-1.4A120.44 120.44 0 0 1 215 472c2.73-3 5.7-6 8.81-8.85l1.31-1.17 1.38-1.21a142.91 142.91 0 0 1 15.94-11.87c.82-1.45 32.71-57.65 49.94-105.7L296 334c-10.84 2.95-22.92 6.58-36.38 11-8.58 2.84-17 5.77-24.92 8.64C205.3 382.5 179.24 420 177.87 422c.18.51 1 3 2 6.9l.72 3.17.47 2.36a100.45 100.45 0 0 1 1.37 10.57l.15 2.34c.14 2.74.16 5.47 0 8.12l-.23 3.68-.11 1.17a69.8 69.8 0 0 1-2.12 11.41l-.66 2.23a57.91 57.91 0 0 1-5.44 12.19 55 55 0 0 1-3.44 5.1c-.9 1.19-1.88 2.37-2.91 3.51s-1.93 2.06-2.95 3a61.34 61.34 0 0 1-8.94 7 71.88 71.88 0 0 1-7.76 4.36l-3 1.36-.91.39a91.2 91.2 0 0 1-5.55 2.13l-2.25.74c-1.55.49-3.15 1-4.75 1.39l-1 .26-1.4.35-4.47 1h-.06a.19.19 0 0 1-.09 0 .2.2 0 0 1 0-.1 73.78 73.78 0 0 1-1.2-10.13l-.06-1.09c-.07-1.51-.11-3-.11-4.58v-1.91a96.81 96.81 0 0 1 1.4-14.72l.58-3c.5-2.37 1.1-4.73 1.78-7l.33-1.08.91-2.74a78.86 78.86 0 0 1 5-11.24l.85-1.54a75.4 75.4 0 0 1 4.24-6.61l1.06-1.44 1.75-2.22c1.48-1.82 3.08-3.59 4.73-5.26l.91-.91a80 80 0 0 1 6.86-6 86.91 86.91 0 0 1 7.77-5.37l1.14-.69 1.21-.7a103.72 103.72 0 0 1 13.8-6.58c1.1-1.6 26.94-38.86 56.31-67.79-32.86 11.92-58.24 22.91-59.48 23.45a175.1 175.1 0 0 1-16.58 17.89l-1.65 1.52-1.6 1.44c-3.87 3.43-7.9 6.65-12 9.59A147.56 147.56 0 0 1 130 416l-1.84 1c-3.4 1.9-6.92 3.68-10.45 5.28l-4.3 1.88-2.75 1.11c-4 1.59-8.2 3-12.37 4.22l-2.82.79a152.11 152.11 0 0 1-20.06 4l-4.75.54-1.86.17c-3.94.34-8 .54-12 .6h-5.1a175.87 175.87 0 0 1-24-2.07c-3.47-.54-6.94-1.19-10.31-1.92l-1.7-.38a123.71 123.71 0 0 1-15.58-4.5l-.07-.06H0a.2.2 0 0 1 0-.11c1.13-2 2.29-4 3.56-6.09l1.17-1.9.85-1.33C7 415 8.45 412.8 9.91 410.74l2.17-3c1.87-2.51 3.83-5 5.83-7.33l1-1.19 3.46-3.83a124.6 124.6 0 0 1 10.36-9.86 112 112 0 0 1 15.13-10.79c2-1.18 4.05-2.31 6.12-3.36 2.27-1.15 4.58-2.22 6.86-3.18 3.09-1.3 6.33-2.47 9.61-3.49a111.62 111.62 0 0 1 21.77-4.38l3.83-.32a129.87 129.87 0 0 1 19.07.13l1.91.16c1.93.18 3.93.41 5.95.68 4.25.58 8.59 1.35 12.88 2.31l3.66.86a168.78 168.78 0 0 1 16.27 4.92l3.54 1.31 4.72 1.9c5.9 2.48 9.56 4.45 10.14 4.77 1-.42 9.8-4.24 23.37-9.67m-13.28-36.78c-1.64-.41-3.3-.86-5-1.35l-1.95-.59-.2-.06-.19-.06-1.63-.52h-.13l-1.21-.41-1.18-.4-1 4.65a92.88 92.88 0 0 0 12.49-1.26zm-12.86 1.24l1-4.81-.92-.32-.94 5.14zm-1.26 0l1-5.29-.65-.24-1.1 5.53zm-1.2 0l1.12-5.66-1.12-.42-1.55-.58-1.22-.48h-.14l-2.13-.86-3 7.61a78.43 78.43 0 0 0 8.08.41zm-8.44-.51l3-7.73-2.13-.91-.21-.09-1.12-.49-1.23-.55-.51-.23h-.08l-.37-.17-.14.25-1.8 3.23-.22.39-.15.26-2.67 4.77a72.34 72.34 0 0 0 7.62 1.29zm-8.06-1.33l1.34-2.41.33-.59 3.21-5.75.13-.23-.15-.07-.29-.13-.31-.14-5 9.16zm-1.12-.27l5-9.23-.76-.36-.54-.25-1.31-.63-1.44-.7-.26-.13-6.4 9.61c1.88.6 3.79 1.17 5.71 1.65zm-6.09-1.83l6.43-9.66-.41-.21h-.08l-7.88 9.2zm-2.37-.88l7.91-9.24-1.32-.68-7.69 9.47zm-1.49-.61l7.71-9.5-2.45-1.27-1.31-.72-9.91 8.62c1.94 1.01 3.94 1.97 5.96 2.83zm-6.34-3.07l9.91-8.63-.52-.29-.26-.15-.74-.41-9.4 8.9zm-1.38-.79l9.39-8.89-.38-.21-1.55-.85-.16-.09h-.06l-1.09-.63h-.07l-.68-.39h-.06l-1.89-1.11h.1-.1l-2.31-1.4-9.9 7.69a71.68 71.68 0 0 0 8.76 5.84zm-9.1-6.27l9.86-7.66-.8-.48-10.71 6.76zm-2-1.66l10.65-6.73-.88-.56-10.22 6.89zm-.76-.67l10.19-6.89-2-1.23-.47-.31-.32-.21-1.13-.74-.12-.08-1-.66-9.54 5.86c1.44 1.46 2.91 2.88 4.41 4.22zm5.63-9.77l-2.44-1.67-.28-.19.28.19zm-10.31 5.24l9.45-5.8-1.49-1-9.56 5.06zm-1.88-2.05l9.42-5-.65-.45-1.11-.76-2.23-1.54-.15-.1a.2.2 0 0 1-.09-.17.2.2 0 0 0 .09.17l-1-.7-3.53-2.67-1.53-1.15-7 2.08a87.72 87.72 0 0 0 7.8 10.24zm-8-10.56l.41-.12.24-.07h.09l.49-.15 5.19-1.55.39-.12-.9-.68-.35-.26a.2.2 0 0 1-.08-.15.2.2 0 0 0 .08.15l-1.54-1.18-1.77-1.39-.29-.23-4.77 1.14c.89 1.48 1.83 3.04 2.81 4.56zm-3-5l4.57-1.09-.82-.72-4 1.26zm-.47-.86l3.86-1.16-.86-.68-.37-.3-.4-.32-.3-.25h-.05l-1.49-1.23-.63-.52-.07-.06-.5-.42-.11-.09-.45-.38-.07-.06-.48-.41-.41-.35-.12-.1-.24-.21-.16-.14-.11-.1-.45-.39a72.71 72.71 0 0 0 3.39 7.11zm-3.61-8c.52.46 1.82 1.61 3.77 3.25l-.46-4.36zm3.71-1.25v.33l.48 4.47v.07l.68.56.34.28-.42-3.59-.28-2.39zm1.72-.52l-.48.14v.78l.34 2.86v.66l.25 2.16.71.57zm4.28-1.15l-3.88 1 .43 3.09v.59l.56 4 .1.08.2.15.16.12 3.64 2.87V291.27zm.49.74v.17l1.23 11.41.54.41.57.44v-.91l-.05-.93V289.68l-.59-10.13-1.65.38zm6.81-2.19c-1.59.24-3.21.53-4.84.88l.1 1.7v.47l.49 8.42v.31l.18 3.16.47.35 1 .77h.06l3.36 2.45zm.88-.14l-.47.07.92 18.94 1 .72-.93-12.75zm.41-.05l1.46 20.1.07.05.52.37v-5.58l.19-9.6v-2.03l.07-3.66zm10.48-.27v-.31a64.49 64.49 0 0 0-7.59.26l-.08 4v.31l-.06 3.25v4.36l-.05 2.64v6.55l1.15.79 3.18 2.19 4.7 3.09zm.4-.29l1 27.72c2.23 1.43 4.48 2.82 6.7 4.15l2-30.7a55.36 55.36 0 0 0-9.72-1.18zm10.13 1.26l-2 30.85 1.51.89 3.75-30.71v-.2c-1.07-.31-2.17-.59-3.28-.84zm3.67 1l-3.79 31 .49.28 1 .6 1.6-8.53v-.13l.19-1 .18-1 3.75-20c-1.08-.52-2.25-.91-3.44-1.31zm3.87 1.34l-5.76 30.77 5.14 2.84.2.11 5.07-31.6a49.83 49.83 0 0 0-4.67-2.17zm5 2.32L147 315.31l3 1.53 1.86 1 .15.08.12.06 1.29.63.34.17 4.24-15.52 3.28-11.85.12-.43.13-.47v-.29a52.64 52.64 0 0 0-9.53-6.52zm9.89 6.82l-6.17 22.29v.12l-1 3.44-.12.43-.27 1-.29 1v.1l.51.25.42.2 8.14-27.77zm1.55 1.41l-1.43 4.87-.18.62v.14l-.41 1.4-.08.27-6 20.32 2.46 1.15.65.3.3.14 11-21.2v-.08l.3-.57a63.27 63.27 0 0 0-6.59-7.41zm-1.75 24.47l-1.46 2.81-1.09 2.1.23.1.63.28 1.36-2.72.05-.11 5.66-11.32.52-1 .44-.87 2.26-4.52.47-.94-.37-.48zm9.36-15.91v.1l-10.63 21.26-.2-.09-.18-.08.18.08.2.09.73.32 10.08-16.88.13-.22 1.36-2.28zm1.9 2.69l-11.44 19.16 1.36.58.24.1.27.11.4.17h.06l.27.11.24.1.21.08 1.34.54L176.56 309c-1.12-2-2.32-4-3.56-5.82zm3.79 6.22l-6.51 9.39-.3.44-.4.58-3.15 4.55.37.14.63.25 10.15-13.91zm1 1.86l-.64.87-9.32 12.77c2.5 1 5 1.87 7.51 2.68l6.23-8a90.54 90.54 0 0 0-3.77-8.37zm4 8.77l-6 7.69 1.21.39 5.37-6.52zm.75 2l-5.1 6.2 1.92.58 4-4.49zm.95 2.74l-3.69 4.16c1.78.52 3.55 1 5.28 1.42-.2-.77-.7-2.79-1.62-5.62zm90.79 135.3c.19 1.43.42 2.91.69 4.4l3.7-2.63c-2.25-1.03-3.84-1.61-4.43-1.81zM279 462l-4 2.84.3 1.61 5.47-3.6zm2.14 1l-.38.25-5.37 3.53.21 1 6.76-4.18zm1.56.8l-2.89 1.79-4.13 2.56c.44 2.09 1 4.21 1.52 6.32l11.92-6.87a73.7 73.7 0 0 0-6.47-3.77zm6.73 4l-.43.2-.1.06-.14.08-11.42 6.58-.16.09.11.41.12.43 11-6 .57-.31.67-.36.33-.18.29-.16.22-.12zm1.41 1l-13.29 7.2.12.43.36 1.26v.14l.37 1.22.22.73.22-.1.36-.17.8-.37.44-.2.94-.43 13.62-6.22.21-.1a62.186 62.186 0 0 0-4.42-3.39zm4.69 3.64l-10.16 4.67-6.43 3-.13.06.17.54v.1l12.9-4.8.55-.21 1.19-.44 3.6-1.34zm2 1.79l-17 6.32-1.45.54.23.73 18.54-7.24zm.62.6l-18.7 7.3.27.81.1.28.09.26.5 1.46 23-4.14a51.52 51.52 0 0 0-5.31-5.98zm5.61 6.36l-.29.05-19.54 3.51h-.09l-.41.07-2.78.5h-.1l.28.8 23.7-3.89zm1 1.39h-.05l-23.75 3.89.19.53.17.46.1.28v.08l.54 1.4-.06-.16.19.5 1 2.5v.12l26.05-1.35a42.83 42.83 0 0 0-4.44-8.26zm-19.54 14.57l25.31-2h.12a40.58 40.58 0 0 0-1.31-4l-26 1.35 1.14 2.72zm25.52-1.65l-25.38 2 .58 1.31 4.29-.06h5.7l15.41-.22h.07c-.26-1.11-.48-2.09-.73-3.04zm.72 3.26h-.08l-25.29.36.58 1.27 24.82 1h.35c-.15-.84-.28-1.76-.44-2.64zm-21.84 7.8h.07l22.3 3.24c.09-1.16.14-2.32.14-3.47a43.74 43.74 0 0 0-.24-4.52h-.06l-24.7-1h-.3c.84 1.86 1.77 3.81 2.73 5.73zm22.35 3.59l-22.16-3.22 1.88 3.65.07.14.09.17.06.11 1.36 2.52.68 1.25 17.05 1.49a52.66 52.66 0 0 0 .91-6.13zm-.94 6.46l-16.89-1.48.14.25.12.21v.06l3.21.58 9.69 1.76 3.26.59zm-.52 2.3L294.58 516l.05.09.45.78 15.27 2.4zm-.19.7l-15-2.35.37.64.75 1.3.44.77.09.16v.13l.72 1.21 11.32 1.89c.54-1.21.92-2.5 1.25-3.77zm-1.32 4.15l-11-1.84.15.25.07.12.37.61 9.95 2.17zm-.57 1.62l-9.58-2.09.51.81 1.75 2.79 6.14 1.53zm-6.65 2.55l5.18 1.19.16-.38-5.75-1.44.15.22zm5 1.5l-1.33-.31-2.1-.48-1-.23-.36-.08.46.69.14.21h.07l3.83.83zm-.42 1l-3.49-.75 1.28 1.86 1 1.48zm-1.68 2.46l-2.11-3.07-.17-.25-.86-1.31-.68-1-.5-.79-1.28 3a59.19 59.19 0 0 0 5.67 3.39zm-5.92-3.68l1.35-3.18-.33-.52-.11-.17-1.29 3.61zm-.66-.47l1.34-3.76-.09-.15-1-1.66v-.07l-.57-.95v-.06l-.08-.13-.09-.15-.44-.74-.21-.35-1.44 3.42-.81 1.92c1.09.94 2.29 1.79 3.46 2.64zm-3.78-2.9l1-2.36 1.3-3.11-.15-.25-2-3.48-.08-.13-.21-.37-.14-.24-.48-.86-.14-.25-.07-.13-.09-.18-1.21-2.23-.05-.25-.09-.17-.1-.18-.14-.27-.38.57-4.49 6.65a71.43 71.43 0 0 0 7.59 7.21zm-7.82-7.45l1.05-1.56 2.34-3.47 1.53-2.27-.48-.94-.14-.27v-.09l-5.53 7.15zm-1.48-1.71l5.58-7.22-.46-.89-.18-.34-.22-.43-.49-1c-.28-.56-.55-1.12-.83-1.69l-6.42 7.61c1 1.28 2 2.64 3.08 3.92zm-3.25-4.2l6.48-7.68-.37-.76-6.38 8zm-.48-.69l6.42-8.09-.32-.69-7.07 7.32zM280.2 510l7.1-7.35c-.32-.67-.64-1.34-.94-2l-.74-1.63-.72-1.63-.78-1.85-8 6.83a58.32 58.32 0 0 0 4.08 7.63zm-4.2-7.95l8-6.84-.55-1.31-7.86 7.28zm-.51-1.2l7.85-7.27v-.05l-.45-1.07v-.11l-.77-2-8.37 5.42c.41 1.72 1.02 3.42 1.69 5.08zm-1.9-5.41l8.35-5.4-.42-1.08-8.18 5.6zm-.36-1.27l8.14-5.58-.17-.44-.66.34-.62.32-.2.1-1.22.64-4.77 2.48-.88.46zm-.49-2l8.33-4.33-.43-1.19-.07-.18v-.08l-.4-1.12-.38-1.11-7.91 3.26c.12 1.58.46 3.19.82 4.76zm-.93-5.09l7.86-3.24-.15-.43-.07-.2-.25.11-.6.25-6.84 2.91zm-.11-.94l.26-.11.32-.14 6.06-2.58 1-.43-.26-.78-.34-1-.3-1-.1-.34-.5-1.65h-.12l-5.93 1.6-.46.12a58.89 58.89 0 0 0 .33 6.32zm-.4-6.77v.13h.08l3.94-1.06 1.38-.37 1-.28-.07-.24-.37-1.29v-.19l-.32-1.18c-.2-.75-.38-1.5-.57-2.25l-4.7.42c-.29 2.07-.4 4.23-.4 6.32zm.37-6.75l4.58-.41-.14-.55-4.37.32zm.11-1l4.25-.31c-.06-.26-.11-.51-.17-.77l-4 .4zm.14-1l3.86-.39c-.16-.71-.33-1.41-.48-2.11l-.28-1.37-.08-.4-.24-1.25v-.31c-.25-1.39-.46-2.77-.65-4.11a75.75 75.75 0 0 0-2.17 9.95zm-29.36-21.27c-1.63 2.28-3.25 4.66-4.85 7.1l1 .14 4.88.67 1.39.19.37.05c-1.35-4.39-2.48-7.29-2.83-8.14zm2.91 8.5l-3-.41-.57-.08h-.07l-3.11-.43-.73-.1-.47-.06-1.79 2.78.95.17 1.71.31 7.37 1.32.75.13zm1.12 4l-1.12-.2-9.46-1.7h-.48l-.05.08-1 1.53-.16.25 7.67 1.63 5.23 1.11zm.75 3L237 462.64l-2.45-.52-.42-.09c-2.1 3.4-4.17 7-6.18 10.57l21.84 5.46c-.6-4.41-1.43-8.86-2.48-13.24zm2.55 13.59l-7.4-1.85-14.67-3.67-.26.47-.43.79-.22.4 22.1 6.18 1.22.34zm.37 3l-23.52-6.58-.65 1.21-.56 1-.15.28-.19.36-.1.2v.06l-.12.23-.06.12-1.62 3.13 4.25 1.55 23.46 8.7c-.14-3.36-.38-6.81-.77-10.25zm-27.19.41l-.69 1.35 18.31 8.53 10.27 4.78h.06v-4.49zm28 15.06l-28.79-13.41-.75 1.51L251 498.12zm0 1.56l-4.77-2.11-24.89-11-.75 1.54-.05.11v.09l-.13.28-.28.59-.2.03-1.25 2.61.33.24.26.19.46.34 5.41 4 .48.36 5.87 4.37.55.41 4.58 3.41.41.3 2.38 1.77.25.18 9.74 7.25a105.36 105.36 0 0 0 1.53-14.95zm-1.56 15.4L218.59 491l-.78 1.67 31.06 23.94zm-27.73-1.68l.63.63 21.18 21a90.71 90.71 0 0 0 5.32-16.86l-.11-.08-.16-.13-.1-.08-1.54-1.15h-.05L218 493.18l-.3-.23-1.19 2.59-.14.32-.14.32-.06.15-.25.58-.31.71-2.61 5.97.08.08.34.33 4.29 4.24.08.08 1.29 1.28 2 1.94zm-34.73 17l16.69-2.4.63-1.77-17.08 3zm.31-1.5l17.14-3 .57-1.58L188 524.3zm.85-3.77l17-1.18c.48-1.32 1-2.64 1.45-3.94l1.17-3.08.88-2.26.17-.43.12-.3v-.07c.47-1.19 1-2.39 1.44-3.59l-17.44-.64a123.65 123.65 0 0 0-4.9 15.57zm5-15.86l17.38.67 1.11-2.7-17.73.14zm.9-2.22l17.73-.14c.3-.72.6-1.45.9-2.17v-.09l.09-.21v-.08l.8-1.84.76-1.74-16-3c-1.65 3.04-3.1 6.17-4.39 9.31zm4.49-9.59l16 3 .15-.34.45-1 .41-.93-16-2.53zm17.15.38l.06-.13.4-.91-14.75-4.47-1.71 3zm-14.12-5.81l14.71 4.46 1.23-2.7.92-2 1-2.09-12.87-5.38c-1.87 2.54-3.55 5.13-5.11 7.75zm5.19-8l12.82 5.36.65-1.37-11.7-4.72-1-.39zm1-1.4l.85.34.59.24 10 4 1.18.47.26-.53.08-.16.32-.66v-.09l.05-.11.91-1.82.83-1.64v-.09l.27-.52.69-1.33.32-.62.24-.47v-.08l.16-.31.06-.11-9.48-5.72c-2.63 3.05-5.15 6.13-7.44 9.28zm7.67-9.41l5.13 3.09h.06l1.21.73 3 1.82 1.65-3.1v-.07l.91-1.67.1-.19.06-.11c.43-.78.87-1.55 1.31-2.32l.85-1.51-5.8-5.29c-3.07 2.87-5.97 5.75-8.59 8.69zm8.78-8.8l5.72 5.23.66-1.14-5.33-5zm1.3-1.17l5.25 5 .89-1.5-5-4.45zm1.39-1.21l4.92 4.37c.71-1.19 1.42-2.37 2.13-3.53l1.35-2.17 2-3.08c1.53-2.34 3.09-4.63 4.66-6.84a142.17 142.17 0 0 0-15.16 11.32zm-49.3-38.55c-1.4 1.42-2.82 2.91-4.22 4.45l5.72 1.75.32.1c-.93-3.23-1.66-5.47-1.92-6.23zm-15.94 18.92l-1.72 2.35 22.23 11.61c0-1 .06-2.1.06-3.16 0-1.48 0-3-.12-4.46l-9.1-4-9.92-4.36-.43.59zm-3.19 4.67l.14.08 23.34 14 .07-.71-7.11-4.41-.71-.44-1.28-.79-2.82-1.75-1.25-.77-9.73-6-.18-.08-.61.89zM182 458.8l.2-3.19h-.09l-22.36-11.68-.55.78zm-18.59-20l18.74 8.24-.15-1.84-17-7-.56-.23-.2-.08h-.1l-.09.13zm6.85-8.56h.06l10 3.75h.26l-.37-1.87-8.93-3.08-.52.6zm9.22-1.16l-6.46-2-.59.66-.87 1-.06.06 8.58 3zm1.17 5.5l-10.67-4c-1.88 2.2-3.74 4.52-5.57 6.9l15.76 6.52 1.82.75a100.18 100.18 0 0 0-1.34-10.14zm1.2 25.82l-23.73-14.19-.59.87-.07.11-.05.08-1.61 2.44 3.47 3.11.43.38 1.45 1.3 1.14 1 .11.1 17.44 15.64a69.42 69.42 0 0 0 2.02-10.81zm-2.12 11.33l-23.5-21.08-.65-.58-.64 1 24.27 22.44zm-.66 2.21l-.25-.23-.36-.34-22-20.31-.72-.66-.32-.3-.72-.66-1 1.63-.06.1-2.25 3.73.18-.29-.57.95-.64 1.06 23.51 27.09a57.55 57.55 0 0 0 5.2-11.71zm-5.44 12.11l-5.17-6-7.78-9-.59-.67-1-1.1-9-10.39-.31.55-.41.72-2.63 4.66 6.32 6.92 8.12 8.88.29.32.68.75 1.07 1.17 7.18 7.85a54.84 54.84 0 0 0 3.23-4.62zm-3.44 5.06l-23.62-25.84-.8 1.48-.15.27 21.59 26.82.12.15.15.19.07.09c.94-.99 1.82-2.05 2.64-3.12zm-5.54 6.2c.91-.88 1.8-1.79 2.64-2.72l-21.88-27.17-.28.52-.65 1.23 20.16 28.13zm-.3.29l-13.13-18.32-.16-.22-2.29-3.19-.21-.29-.4-.56-3.89-5.43c-1.34 2.58-2.66 5.21-3.93 7.85l.73 1.28.27.46.39.69.06.11 14 24.38a60.93 60.93 0 0 0 8.56-6.72zm-8.92 7l-15.3-26.69-.19.42-2.45 5.26v.08l-.72 1.64-.18.42-.09.2-.09.21-.49 1.11-.74 1.68.07.11.13.2L148 508.77a71.56 71.56 0 0 0 7.43-4.16zm-7.76 4.4l-12.72-19.6-.29.69v.07l.33.63 10.17 19.3zm-3.46 1.56l.53-.22-10.33-19.6-.54 1.31zm-5.54 2.13c1.76-.61 3.48-1.27 5.15-2l-10.15-18.19-.27.66-.1.25-.11.28-.38.94-.06.14-.58 1.43-.12.29-.1.24V496.88l-.74 1.91zm-2.23.75l1.84-.61-7.35-13.47v.13l-.21.55-.31.82v.05l4.07 8.42.15.32.14.28.81 1.67.18.37.37.76.34.7zm-4.73 1.39c1.46-.39 2.91-.82 4.33-1.26l-4-8.34-.25-.51-.41-.85-1-2.13-.08-.17V501.4l-1 2.65-1 2.84zm-.55-.23l-.06-.14-.1-.23-.19-.42-.07-.15-.27-.6-.11-.25-.21-.46-.08-.18-.61-1.37-.1-.23-1.1-2.46-.29-.65-.27.78-.09.25.27.57 1.77 3.76.16.33v.09l.88 1.87.58-.15zm-1.83.85l1-.25-2.71-5.75-.19-.41-.49 1.46.21.43zm-.41.1l-1-2-.9-1.85-.29-.6c-.92 2.77-1.48 4.64-1.69 5.35zm-4.12.27l.27-.89.13-.43.06-.2.11-.34.09-.28.14-.44.14-.44.12-.37.14-.43.14-.43.11-.32.27-.81.69-2 .55-1.59.45-1.24-4.42 1.14a80.14 80.14 0 0 0 1.01 9zm-1-9.49l4.61-1.19.4-1.1-5 1.62zm-.15-5.4c0 1.45 0 2.88.1 4.3l5.24-1.68 1-2.65.21-.55.55-1.45v-.05l.62-1.6-7.73 2q-.03.75-.03 1.61zm7.93-4.24l1.89-4.62.1-.26.66-1.6.52-1.24v-.27l.14-.31.19-.43v-.06l1.36-3.09v-.06l.09-.2.31-.7h-.12l-2 .12-9.88.59a96.34 96.34 0 0 0-1.36 14.22zM125.07 484l12.1-.72.86-1.84-12.45-.05zm.59-3l12.55.05.58-1.25.05-.11.23-.5.57-1.23.1-.22.07-.15.1-.22c.37-.77.76-1.55 1.14-2.32l-13.74-.64c-.62 2.17-1.18 4.38-1.65 6.59zm1.79-7l13.81.64.53-1.08-14.14-.23zm.34-1.08l14.2.24.49-1-13.93-1.58zm.91-2.7l14 1.59c.46-.9.91-1.81 1.38-2.69l.91-1.72.19-.37v-.05l1.15-2.13.85-1.5.5-.89-14.21-3a78.39 78.39 0 0 0-4.77 10.78zm5-11.18l14.22 3 .43-.76.31-.55.22-.4-14.55-2.48zm.87-1.54l14.52 2.5.22-.4.56-1v-.06l.72-1.2.87-1.44-13-4.58c-1.36 2-2.69 4.08-3.91 6.2zm4.23-6.54l12.94 4.57.87-1.44-13-4.21zm1.07-1.44l13 4.2.35-.57-11.85-5.47zm1.73-2.18l3.69 1.71.34.16 7.76 3.58 1.11-1.79.87-1.35.86-1.31-10.23-5.9c-1.54 1.56-3 3.22-4.42 4.92zm4.72-5.22l10.16 5.88.52-.79-5.7-3.21-.57-.32-.29-.16-3.53-2zm2.32-.12l2.42 1.35 5.51 3.08.68.38.14-.2.38-.57.11-.16v-.05l.85-1.23.78-1.11.25-.35 1.38-1.94-7.44-5.63a79.59 79.59 0 0 0-6.5 5.67zm5.44-6.71l7.35 5.55 1.37-1.86.15-.2.2-.27.79-1 .09-.12 1-1.34.81-1-4.44-4.75a86.66 86.66 0 0 0-7.34 5.01zm7.73-5.31l4.34 4.65.5-.63-4.07-4.49zm1.14-.68l4 4.38.71-.87-3.83-4zm1.22-.7l3.72 3.89.87-1 1-1.23 1.24-1.43 1.8-2c1.32-1.46 2.66-2.87 4-4.22a103 103 0 0 0-12.66 6zm-107.48 6.62l5.48-18-2.81.61h-.08l-.28.06-.31.07h-.1l-4.71 12.39-1.88 4.86zm-5.09 0l6.51-17.12-3.18.62h-.13l-1 .2-.59.12h-.06l-1.85.36-.26.05-.84.16h-.13l-.65.13-.6.12h-.06l-2.2.41c-3.74.69-7.52 1.34-11.24 1.94l-.35.06-6.87 10.92a175.45 175.45 0 0 0 23.5 2.02zm-23.95-2.09l6.77-10.7-2.55.4-.34.05H31.3l-3.52.54-.39.05h-.3l-1.25.17-1.29.18-1.63.23-5.09 7.16c3.17.79 6.5 1.39 9.82 1.91zm-10.28-1.92l5-7-2.23.31-4 6.4zm-1.7-.38l3.92-6.23h-.11l-1.35.19-.84.12h-.07l-2.78.35-3.52.42-1.07.12h-.38l-.73.08h-.3l-.93.1h-.29l-.64.07h-.32l-.62.06h-.21l-.73.07H2.17l-1 .09a133 133 0 0 0 14.5 4.54zM.58 426.31c1.06-.09 4.49-.38 9.75-1l-.52-.31-5.35-3.77-.63-.45c-1.15 1.88-2.22 3.7-3.25 5.53zm3.42-5.9l6.9 4.86.76-.09.55-.06h.43l1.13-.13L5 418.86zm1.17-1.9l9.24 6.34h.07l1.64-.21.44-.05-9.75-6.39-1-.66zm6.89 2.63l1 .67.21.14 2.14 1.41.51.34 1.23.81 1.34-.19.38-.05h.2l7.56-1h.06l.42-.06-.5-.35-16.48-11.72c-1.38 2-2.75 4-4.06 6zm-1.74-10.33L27.79 423l.8-.12 2.17-.33-18.47-14.4zm2.17-3l18.79 14.67 3.49-.55c2.65-.43 5.34-.91 8-1.38L18.1 400.83c-1.91 2.25-3.78 4.6-5.56 6.99zm30.83 12.64L46 420l-.34-.26-26.55-20.1-.75.87zm-24-21.13l27.19 20.58H46.85l1.37-.25-2.74-2.53-.6-.56-.11-.1-11.28-10.53-.77-.71-1.12-1-8.07-7.46-1-.91zm3.45-3.8l13.79 12.68 12.11 11.18.09.09 9.43-1.85h.18l10.44-2.25-.75-.62L32.89 386a124.12 124.12 0 0 0-10.06 9.53zm10.37-9.83l33.62 27.48.38.31.3.24 1.85 1.51c4.89-1.11 9.76-2.28 14.5-3.5L48 375.18a111.66 111.66 0 0 0-14.79 10.51zM48.32 375l36 36.66 3.47-.91-15.72-18.15L54 371.83c-1.89.98-3.81 2.04-5.68 3.17zm6.1-3.34L59 377l.47.54.88 1 1 1.2.54.63 3.29 3.63.37.43 1.62 1.87.86 1 2.05 2.37 18.14 20.92 3.48-.94-23.63-31.43v-.06l-1-1.3-.31-.41-5.86-7.8c-2.17.9-4.34 1.91-6.48 2.98zm37.71 37.92c3.76-1 7.52-2.11 11.18-3.21l-1.18-1.47-.07-.09-.34-.42-31.25-39.24c-3.14 1-6.23 2.1-9.19 3.34zM70.89 365l32.85 41.19c2.61-.79 5.18-1.59 7.7-2.39l2.56-.8 3.37-1.13-5.86-9.57-.37-.61-1.6-2.61-.48-.79-.79-1.3-.13-.22-1-1.6L92.3 361l-.14-.22A111.25 111.25 0 0 0 70.89 365zm36 19l.19.3 1.68 2.74 8.74 14.28.16.27.09.15.8-.27 1-.32.39-.13L113 389.3l-1.12-1.9-13.29-22.54-.07-.13-.6-1-1.92-3.3-3.36.28zm-10.45-23.6l23.84 40.48 3.86-1.36 1-.36.26-.09.15-.05 1.53-.56-5.13-16-.14-.44-.79-2.45-.07-.22-.32-1-.61-1.9-5.02-15.91a129.46 129.46 0 0 0-18.56-.14zm26.64 24.08l.11.34 2.1 6.56.26.81.06.18 1.9 5.94 1.95-.72-8.52-25-.3-.87-.12-.34-1.59-4.67-.11-.31-1.95-5.71-1.46-.13zm-.27-23.11c-1.86-.25-3.69-.46-5.47-.63l12.51 36.69 1.74-.66zm.44.06l8.75 35.2 1.61-.62h.09l2.51-1 .24-.09h.1l3-1.2 1.06-.43-4.93-29.56c-4.17-.98-8.34-1.73-12.44-2.29zm16.06 3.08l-3.22-.76 4.89 29.3.27-.11 1.89-.79zm16.37 6.15l-.13-1.25c-5.2-1.86-10.52-3.46-15.82-4.79l2.09 15.13.08.61.15 1v.09l.28 2 .11.76.16 1.16.4 2.63.21 1.5.1.7v.33l.07.53v.25l.06.47V392c4.66-2 9.27-4 13.7-6.14zm1.94 15l.17-.08.77-.37 1.5-.72-1-13.76-3.1-1.15zm6.46-3.19l-.29-9.86-4.28-1.72.95 13.4 3.62-1.81.12-.06zm.13-9.69v1.26l.13 4.52V382.25c3.18-1.63 6.3-3.3 9.29-5-.84-.49-4.22-2.25-9.42-4.46zm9.13 5.21c-2.89 1.61-5.89 3.22-9 4.78l-3.82 1.91h-.05l-.15.07-2.83 1.37c-1.51.72-3 1.43-4.58 2.14l4.69 6.58A174.34 174.34 0 0 0 173.34 378zm-16 17.16l-4.77-6.69-1.94.88 5.36 7.05zm-1.66 1.52l-5.44-7.16-1.47.65 5.62 7.67zm-1.6 1.43l-5.7-7.77-1.94.84c-1 .44-2 .87-3 1.3l-2.54 1.06-.65.26h-.07l-1.16.47-1.38.56-.83.33 5.69 12.22c3.93-2.81 7.83-5.93 11.58-9.25zm-11.92 9.54l-5.63-12.11-.08-.16-.79.31-.17.07-.55.21-2.26.87-.24.09-.25.1h-.13l-.14.06-.54.2-1.52.58h-.06l-2.34.86-1.94.71.06.21 4.42 15.89c4.16-2.4 8.24-5.05 12.16-7.87zm-14 8.92l1.47-.84-.55-1.95-.08-.29-.2-.71-.15-.54-.27-1-.31-1.09-.66-2.32-.13-.47-.9-3.17-.24-.84-1.07-3.79-.35.12-.86.3-.55.19zm-.37.2l-4.88-16.41-.85.3-1.41.5-.42.15h-.1l-2.43.83-3.15 1.05-.3.1.41 2.17.07.39.29 1.55.1.55.34 1.82.19 1 2.09 11.07c3.43-1.52 6.8-3.22 10.07-5.04zm-14.3 6.95l3.88-1.69-3.51-18.58-1.33.43zm-2.76 1.12l2.35-.95-1-19.88-2.95.94zm-.4.16l-1.57-19.92q-2.5.78-5.05 1.55l-2.77.83-2.5 21.6c4.03-1.15 8.02-2.52 11.91-4.05zM98 429.21l2.5-21.6-3.43 1-1.47 21.28zm-2.82.78l1.47-21.28-4.54 1.29-3.9 1-3.91 1-5 1.25-3.68 20.56A151.68 151.68 0 0 0 95.21 430zm-20 3.94l3.67-20.51-2 .49-5.95 20.51zm-4.73.53L76.4 414l-2.24.53L69 434.6zm-1.86.17l5.1-20-4.37 1-.48.1-.71.15-.28.06-1.29.28-4 .85-5.51 18.09c3.95-.01 7.77-.16 11.56-.53zm83.73 20.67l-.14.24zm.79-1.31l-.79 1.31zm-1.49 2.48l.56-.94zm2-3.3l-.49.82.49-.82zm0 0zm-2.07 3.43l.08-.14zm130 31.64l.33.85zm-.11-.28l.11.28zm0 0v-.1z" fill="#977243" opacity=".5" data-name="Layer 1"/></g></svg>