<svg xmlns="http://www.w3.org/2000/svg" viewBox="0 0 38.74 48.41"><defs><style>.cls-2{fill:#fff}</style></defs><g id="Layer_2" data-name="Layer 2"><g id="Layer_1-2" data-name="Layer 1"><path d="M21.84 46.91l12.35-15.07c3-3.91 4.55-7.23 4.55-12.38a19.37 19.37 0 1 0-38.74 0c0 5.16 1.54 8.47 4.57 12.39l12.34 15.06c1.64 2 3.28 2 4.93 0" fill="#3b2314" fill-rule="evenodd"/><path class="cls-2" d="M19.91 15.47c-2.53 0-4.4-3.33-4.42-5.58a4.39 4.39 0 0 1 4.34-4.44h.05a4.41 4.41 0 0 1 4.39 4.34 6.71 6.71 0 0 1-1.19 3.67 4 4 0 0 1-3.14 2zm0-9.09a3.47 3.47 0 0 0-3.43 3.5c0 2 1.72 4.66 3.5 4.66a3.15 3.15 0 0 0 2.38-1.6 5.83 5.83 0 0 0 1-3.14 3.48 3.48 0 0 0-3.48-3.43zM19.63 31.41c-4 0-5-.59-5.14-.71a.46.46 0 0 1-.16-.47l1.34-5.46a.46.46 0 1 1 .9.22l-1.25 5.09a16.2 16.2 0 0 0 4.79.41h.23a.46.46 0 0 1 0 .93h-.73z"/><path class="cls-2" d="M21.92 31.33a.46.46 0 0 1 0-.93 11.69 11.69 0 0 0 2.8-.34L23.37 25a.46.46 0 0 1 .26-.54l.92-.41-3-6.68a2 2 0 0 0-1.55-.52 3 3 0 0 0-1.9.62L13.59 25a.46.46 0 1 1-.8-.48l4.52-7.57.06-.08a3.72 3.72 0 0 1 2.63-.95 2.7 2.7 0 0 1 2.41 1v.06l3.16 7.15a.46.46 0 0 1-.24.61l-1 .43 1.21 4.63a.63.63 0 0 1 .14.58c-.11.42-.5.84-3.78 1z"/><path class="cls-2" d="M19.07 35.4a.46.46 0 0 1-.46-.4L18 31a.46.46 0 1 1 1-.1l.52 3.57h1.58l.36-3.62a.46.46 0 1 1 .92.09l-.4 4a.46.46 0 0 1-.46.42h-2.4zM11.74 35.48a.46.46 0 0 1-.46-.46l-.08-7.52a2.21 2.21 0 0 1 .59-1.7 1.69 1.69 0 0 1 1.21-.45 1.71 1.71 0 0 1 1.34.52 2 2 0 0 1 .45 1.43.46.46 0 0 1-.92-.09 1.06 1.06 0 0 0-.21-.72.83.83 0 0 0-.65-.21.77.77 0 0 0-.51.21 1.37 1.37 0 0 0-.3 1V35a.46.46 0 0 1-.46.47z"/></g></g></svg>