<svg xmlns="http://www.w3.org/2000/svg" viewBox="0 0 38.74 48.41"><defs><style>.cls-2{fill:#fff}</style></defs><g id="Layer_2" data-name="Layer 2"><g id="Layer_1-2" data-name="Layer 1"><path d="M21.84 46.91l12.35-15.07c3-3.91 4.55-7.23 4.55-12.38a19.37 19.37 0 1 0-38.74 0c0 5.16 1.54 8.47 4.57 12.39l12.34 15.06c1.64 2 3.28 2 4.93 0" fill="#3b2314" fill-rule="evenodd"/><path class="cls-2" d="M15.34 14.76c-2 0-3-2.51-3.26-4.85a5.09 5.09 0 0 1 .29-2.76 2.6 2.6 0 0 1 2.22-1.46h.45A4 4 0 0 1 19 9.2a6.11 6.11 0 0 1-.74 3.44 3.63 3.63 0 0 1-2.65 2.1zM15 6.5h-.36a1.78 1.78 0 0 0-1.55 1 4.37 4.37 0 0 0-.21 2.3c.17 1.52.88 4.1 2.43 4.1h.18a2.87 2.87 0 0 0 2-1.66 5.31 5.31 0 0 0 .64-2.94A3.15 3.15 0 0 0 15 6.5zM21.57 21.77a.42.42 0 0 1-.39-.27c-.63-1.56-2.75-5.61-5-5.58a4.73 4.73 0 0 0-2.28.33l.94 4.92a.42.42 0 1 1-.83.16l-.94-5a.66.66 0 0 1 .09-.53c.2-.31.73-.73 3-.76 3.28 0 5.69 5.86 5.79 6.11a.42.42 0 0 1-.39.58z"/><path class="cls-2" d="M26.49 32a.42.42 0 0 1-.39-.27l-2.22-5.81a.42.42 0 1 1 .79-.3l2.11 5.53h1l-.29-7.47-6.05-1.88a.42.42 0 0 1 .25-.81l6.34 2a.42.42 0 0 1 .3.39l.32 8.2a.42.42 0 0 1-.42.44L26.5 32z"/><path class="cls-2" d="M16.72 33.64a6.62 6.62 0 0 1-.07-13.25h.08a6.62 6.62 0 0 1 .07 13.25zm0-12.4h-.07a5.78 5.78 0 0 0 .06 11.56h.07a5.78 5.78 0 0 0-.06-11.56z"/></g></g></svg>