<svg xmlns="http://www.w3.org/2000/svg" viewBox="0 0 20.04 20.04"><g data-name="Layer 2"><g data-name="Layer 1"><circle cx="10.02" cy="10.02" r="10.02" fill="#38281c"/><path d="M12.6 11.9A6.93 6.93 0 0 0 14.41 7a2.52 2.52 0 0 0-1.87-2c-.25-.07-.46.09-.83.49a1.72 1.72 0 0 0-.6 1.51 1.08 1.08 0 0 0 1.21.77 6 6 0 0 1-1.19 2.46L10 11.47a6 6 0 0 1-2.36 1.38 1.08 1.08 0 0 0-.86-1.15 1.72 1.72 0 0 0-1.51.73c-.37.4-.51.62-.43.87A2.51 2.51 0 0 0 7 15a6.92 6.92 0 0 0 4.74-2.21z" fill="#fff"/></g></g></svg>