<svg xmlns="http://www.w3.org/2000/svg" viewBox="0 0 126.92 115.45"><defs><style>.cls-1{isolation:isolate;}.cls-2{fill:#977243;}.cls-3,.cls-9{fill:#604428;}.cls-16,.cls-4{fill:#fff;}.cls-5,.cls-8{fill:#a32330;}.cls-6{fill:#f2f2f2;}.cls-7{mix-blend-mode:multiply;}.cls-8{font-size:33.33px;font-family:Probel, Probel;}.cls-9{font-size:15.69px;}.cls-16,.cls-9{font-family:21CentCondensed, 21CentCondensed;}.cls-10{letter-spacing:-0.01em;}.cls-11{letter-spacing:0.01em;}.cls-12{letter-spacing:0em;}.cls-13{letter-spacing:0.01em;}.cls-14{letter-spacing:0.02em;}.cls-15{letter-spacing:-0.01em;}.cls-16{font-size:14.58px;}</style></defs><title>logo-tabl</title><g class="cls-1"><g id="Layer_2" data-name="Layer 2"><g id="Layer_1-2" data-name="Layer 1"><polygon class="cls-2" points="92.72 10.06 124.23 15.82 99.8 24.68 92.72 10.06"/><path class="cls-3" d="M93.29,10.49,123,15.92l-23,8.36L93.29,10.49m-1.13-.86,7.48,15.45,25.82-9.37L92.15,9.63Z"/><polygon class="cls-2" points="2.69 102.46 27.12 93.6 34.2 108.22 2.69 102.46"/><path class="cls-3" d="M27,94l6.67,13.79L3.92,102.36,27,94m.33-.8L1.46,102.56l33.3,6.09L27.28,93.2Z"/><polygon class="cls-3" points="4.2 59.37 5.47 56.81 4.28 54.22 5.77 51.79 4.82 49.1 6.52 46.81 5.81 44.05 7.72 41.92 7.26 39.11 9.35 37.16 9.15 34.32 11.41 32.57 11.46 29.72 13.87 28.18 14.18 25.34 16.71 24.03 17.28 21.23 19.91 20.14 20.73 17.41 23.45 16.56 24.5 13.91 27.29 13.31 28.58 10.77 31.41 10.42 32.92 8 35.77 7.9 37.49 5.63 40.33 5.79 42.25 3.68 45.07 4.1 47.17 2.17 49.95 2.85 52.21 1.11 54.91 2.03 57.33 0.51 59.93 1.67 62.47 0.36 64.97 1.75 67.61 0.67 69.97 2.27 72.7 1.44 74.91 3.25 77.7 2.67 79.74 4.67 82.57 4.34 84.42 6.51 87.27 6.44 88.92 8.77 91.76 8.96 93.19 11.43 96.01 11.87 97.21 14.45 99.98 15.14 100.95 17.83 103.64 18.76 104.37 21.52 106.97 22.69 107.44 25.5 109.93 26.9 110.15 29.74 112.5 31.36 112.47 34.21 114.66 36.03 114.37 38.87 116.39 40.88 115.84 43.68 117.68 45.87 116.88 48.6 118.51 50.95 117.47 53.6 118.88 56.08 117.61 58.64 118.8 61.23 117.31 63.66 118.26 66.35 116.56 68.64 117.27 71.4 115.36 73.53 115.82 76.34 113.73 78.29 113.93 81.13 111.67 82.88 111.61 85.73 109.21 87.27 108.9 90.11 106.37 91.42 105.8 94.22 103.17 95.3 102.35 98.04 99.63 98.89 98.58 101.54 95.79 102.14 94.5 104.68 91.67 105.03 90.16 107.45 87.31 107.55 85.59 109.82 82.75 109.66 80.83 111.77 78.01 111.35 75.91 113.28 73.13 112.6 70.87 114.33 68.17 113.42 65.75 114.94 63.15 113.78 60.61 115.08 58.11 113.7 55.47 114.78 53.11 113.18 50.38 114.01 48.17 112.2 45.38 112.78 43.34 110.78 40.51 111.11 38.66 108.94 35.81 109.01 34.16 106.68 31.32 106.49 29.89 104.02 27.07 103.58 25.87 101 23.1 100.31 22.13 97.62 19.44 96.69 18.71 93.93 16.11 92.76 15.63 89.95 13.15 88.55 12.93 85.71 10.58 84.09 10.61 81.24 8.42 79.42 8.71 76.58 6.69 74.57 7.24 71.77 5.4 69.58 6.2 66.84 4.57 64.5 5.61 61.84 4.2 59.37"/><path class="cls-4" d="M65.78,115.3l-2.62-1.16-2.55,1.31-2.51-1.39-2.66,1.08-2.38-1.61-2.75.84-2.22-1.82-2.81.58-2-2-2.85.33-1.86-2.19-2.87.07L34,107l-2.86-.19-1.44-2.48-2.84-.44-1.21-2.6-2.79-.69-1-2.7-2.71-.94-.73-2.78L15.82,93l-.48-2.83-2.5-1.41-.22-2.86-2.36-1.63,0-2.87L8.08,79.56l.29-2.86-2-2,.55-2.82L5,69.66l.8-2.76L4.21,64.54l1-2.67L3.83,59.38l1.28-2.57L3.91,54.2l1.5-2.45L4.46,49l1.72-2.3L5.46,44l1.92-2.14L6.92,39,9,37l-.2-2.86,2.27-1.76.06-2.87L13.56,28l.32-2.85,2.55-1.33L17,21l2.65-1.09.82-2.75,2.74-.85,1.06-2.67,2.8-.6,1.29-2.56,2.85-.35,1.52-2.44,2.87-.09L37.33,5.3l2.87.17,1.93-2.12L45,3.76l2.11-1.94,2.79.68L52.15.76l2.72.93L57.3.15l2.62,1.16L62.48,0,65,1.39,67.65.31,70,1.92l2.75-.84L75,2.9l2.81-.58,2,2L82.71,4l1.86,2.19,2.87-.07,1.66,2.35L92,8.65l1.44,2.48,2.84.44,1.21,2.6,2.78.69,1,2.7,2.71.94.73,2.78,2.62,1.18.48,2.83,2.5,1.41.22,2.86,2.37,1.63,0,2.87L115,35.89l-.29,2.86,2,2-.55,2.82,1.84,2.2-.8,2.76,1.64,2.36-1,2.67,1.42,2.49L118,58.64l1.2,2.61-1.5,2.45,1,2.71-1.71,2.3.71,2.78-1.92,2.14.46,2.83-2.1,2,.2,2.86L112,83l-.06,2.87-2.42,1.55-.32,2.85-2.55,1.33-.57,2.81-2.65,1.09-.82,2.75-2.74.85-1.06,2.67-2.81.6L94.71,105l-2.85.35-1.52,2.44-2.87.09-1.73,2.29L82.88,110,81,112.11l-2.84-.42L76,113.63,73.21,113l-2.28,1.74-2.72-.93Zm-2.65-1.88,2.59,1.15,2.4-1.51,2.68.91,2.25-1.72,2.75.67L77.9,111l2.8.42,1.91-2.1,2.83.16,1.71-2.26,2.83-.09,1.5-2.41,2.81-.35,1.28-2.53,2.77-.6,1-2.63,2.71-.84.81-2.72L105.52,94l.56-2.78,2.51-1.31.31-2.82,2.39-1.53.06-2.83L113.6,81l-.2-2.83,2.07-1.93-.45-2.8,1.89-2.11-.7-2.75,1.69-2.27L117,63.62l1.48-2.42-1.18-2.58,1.26-2.54-1.41-2.46,1-2.64-1.62-2.33.79-2.72-1.82-2.17L116,41l-2-2,.29-2.82-2.18-1.81,0-2.83-2.34-1.61-.22-2.83-2.47-1.39-.47-2.8-2.58-1.16L103.38,19l-2.68-.93-1-2.67L97,14.73l-1.2-2.57L93,11.72,91.57,9.27l-2.83-.18L87.11,6.77l-2.83.07L82.44,4.68,79.62,5l-2-2-2.77.58L72.63,1.8l-2.71.83L67.57,1,64.95,2.1,62.47.73,59.94,2,57.35.88,55,2.39l-2.68-.91L50,3.2l-2.76-.67L45.18,4.44,42.38,4l-1.91,2.1L37.64,6,35.93,8.22l-2.83.09-1.5,2.4-2.81.35-1.28,2.53-2.77.6-1,2.63L21,17.67l-.81,2.72-2.62,1.08L17,24.24l-2.51,1.31-.31,2.82L11.78,29.9l-.06,2.83L9.48,34.47l.2,2.83L7.61,39.23,8.06,42,6.17,44.13l.7,2.75L5.18,49.15l.95,2.67L4.64,54.24l1.18,2.58L4.56,59.36,6,61.82l-1,2.64,1.62,2.33-.79,2.72,1.82,2.17L7,74.46l2,2-.29,2.82,2.18,1.81,0,2.83,2.34,1.61.22,2.83,2.47,1.39.47,2.8L19,93.7l.72,2.74,2.68.93,1,2.67,2.75.69,1.2,2.57,2.8.44,1.42,2.45,2.83.19L36,108.68l2.83-.07,1.84,2.16,2.82-.32,2,2,2.77-.58,2.19,1.79,2.71-.83,2.35,1.59,2.63-1.07,2.48,1.37Z"/><circle class="cls-4" cx="61.54" cy="57.72" r="52.64" transform="translate(-1.63 1.79) rotate(-1.64)"/><path class="cls-4" d="M63.06,110.66a53,53,0,1,1,51.42-54.46A53,53,0,0,1,63.06,110.66ZM60,5.43a52.32,52.32,0,1,0,53.8,50.8A52.38,52.38,0,0,0,60,5.43Z"/><path class="cls-4" d="M63.05,110.5a52.8,52.8,0,1,1,51.27-54.29A52.86,52.86,0,0,1,63.05,110.5ZM60,5.27a52.48,52.48,0,1,0,54,51A52.54,52.54,0,0,0,60,5.27Z"/><path class="cls-4" d="M63.06,110.83A53.12,53.12,0,1,1,114.64,56.2,53.18,53.18,0,0,1,63.06,110.83ZM60,5.59a52.16,52.16,0,1,0,53.63,50.64A52.22,52.22,0,0,0,60,5.59Z"/><circle class="cls-5" cx="61.54" cy="57.72" r="51.5" transform="translate(-1.63 1.79) rotate(-1.64)"/><path class="cls-4" d="M63,109.52a51.82,51.82,0,1,1,50.31-53.28A51.88,51.88,0,0,1,63,109.52Zm-2.95-103A51.18,51.18,0,1,0,112.7,56.26,51.23,51.23,0,0,0,60.07,6.57Z"/><path class="cls-4" d="M63,109.36a51.66,51.66,0,1,1,50.16-53.12A51.72,51.72,0,0,1,63,109.36Zm-2.95-103a51.34,51.34,0,1,0,52.79,49.85A51.39,51.39,0,0,0,60.07,6.41Z"/><path class="cls-4" d="M63,109.68A52,52,0,1,1,113.5,56.24,52,52,0,0,1,63,109.68Zm-2.95-103a51,51,0,1,0,52.46,49.53A51.07,51.07,0,0,0,60.08,6.73Z"/><polygon class="cls-6" points="0.17 51.62 125.3 15.93 126.75 66.65 1.62 102.33 0.17 51.62"/><path class="cls-3" d="M125.14,16.14l1.44,50.39L1.77,102.12.33,51.74,125.14,16.14m.31-.42L0,51.5l1.46,51.05L126.92,66.77l-1.46-51.05Z"/><g class="cls-7"><path class="cls-2" d="M4.49,99.48a.16.16,0,0,1,0-.32l2.47-.71a.16.16,0,0,1,.09.31l-2.48.71Zm4.95-1.41a.16.16,0,0,1,0-.32l2.48-.71a.16.16,0,0,1,.09.31l-2.48.71Zm-5.1-1a.16.16,0,0,1-.17-.16L4.1,94.29a.16.16,0,0,1,.32,0l.07,2.57A.16.16,0,0,1,4.34,97Zm10.05-.36a.16.16,0,0,1,0-.32l2.48-.71a.16.16,0,1,1,.09.31l-2.48.71Zm4.95-1.41a.16.16,0,0,1,0-.32l2.48-.71a.16.16,0,1,1,.09.31l-2.48.71Zm5-1.41a.16.16,0,0,1,0-.32l2.48-.71a.16.16,0,1,1,.09.31l-2.48.71Zm4.95-1.41a.16.16,0,0,1,0-.32l2.48-.71a.16.16,0,0,1,.09.31l-2.48.71ZM4.19,91.88A.16.16,0,0,1,4,91.72l-.07-2.57a.16.16,0,1,1,.32,0l.07,2.57A.16.16,0,0,1,4.19,91.88Zm30-.86a.16.16,0,0,1,0-.32L36.62,90a.16.16,0,1,1,.09.31L34.23,91Zm5-1.41a.16.16,0,0,1,0-.32l2.48-.71a.16.16,0,1,1,.09.31l-2.48.71Zm4.95-1.41a.16.16,0,0,1,0-.32l2.48-.71a.16.16,0,0,1,.09.31l-2.47.71ZM49,86.78a.16.16,0,0,1,0-.32l2.48-.71a.16.16,0,1,1,.09.31l-2.48.71Zm5-1.41a.16.16,0,0,1,0-.32l2.48-.71a.16.16,0,0,1,.09.31L54,85.36ZM4,86.73a.16.16,0,0,1-.17-.16L3.8,84a.16.16,0,1,1,.32,0l.07,2.57A.16.16,0,0,1,4,86.73ZM58.94,84a.16.16,0,0,1,0-.32l2.48-.71a.16.16,0,1,1,.09.31L59,84Zm5-1.41a.16.16,0,0,1,0-.32l2.48-.71a.16.16,0,1,1,.09.31l-2.48.71Zm5-1.41a.16.16,0,0,1,0-.32l2.47-.71a.16.16,0,1,1,.09.31l-2.47.71Zm5-1.41a.16.16,0,0,1,0-.32l2.47-.71a.16.16,0,0,1,.09.31l-2.47.71ZM3.89,81.59a.16.16,0,0,1-.17-.16l-.07-2.57a.16.16,0,0,1,.32,0L4,81.42A.16.16,0,0,1,3.89,81.59Zm74.85-3.28a.16.16,0,0,1,0-.32l2.47-.71a.16.16,0,0,1,.09.31l-2.47.71Zm5-1.41a.16.16,0,0,1,0-.32l2.47-.71a.16.16,0,0,1,.09.31l-2.47.71Zm4.95-1.41a.16.16,0,0,1,0-.32l2.47-.71a.16.16,0,0,1,.09.31l-2.47.71Zm4.95-1.41a.16.16,0,0,1,0-.32L96,73.05a.16.16,0,1,1,.09.31l-2.47.71ZM3.75,76.44a.16.16,0,0,1-.17-.16l-.07-2.57a.16.16,0,0,1,.32,0l.07,2.57A.16.16,0,0,1,3.75,76.44Zm94.79-3.78a.16.16,0,0,1,0-.32l2.47-.71a.16.16,0,0,1,.09.31l-2.47.71Zm4.95-1.41a.16.16,0,0,1,0-.32l2.47-.71a.16.16,0,0,1,.09.31l-2.47.71Zm4.95-1.41a.16.16,0,0,1,0-.32l2.47-.71a.16.16,0,0,1,.09.31l-2.47.71Zm5-1.41a.16.16,0,0,1,0-.32l2.47-.71a.16.16,0,1,1,.09.31l-2.47.71ZM3.6,71.3a.16.16,0,0,1-.17-.16l-.07-2.57a.16.16,0,1,1,.32,0l.07,2.57A.16.16,0,0,1,3.6,71.3ZM118.34,67a.16.16,0,0,1,0-.32l2.47-.71a.16.16,0,0,1,.09.31l-2.47.71Zm4.95-1.41a.16.16,0,0,1,0-.32l1.35-.38,0-.92a.16.16,0,0,1,.32,0l0,1a.16.16,0,0,1-.12.16l-1.47.42ZM3.45,66.15A.16.16,0,0,1,3.29,66l-.07-2.57a.16.16,0,1,1,.32,0L3.61,66A.16.16,0,0,1,3.45,66.15Zm121.2-4.59a.16.16,0,0,1-.17-.16l-.07-2.57a.16.16,0,1,1,.32,0l.07,2.57A.16.16,0,0,1,124.65,61.57ZM3.3,61a.16.16,0,0,1-.17-.16l-.07-2.57a.16.16,0,1,1,.32,0l.07,2.57A.16.16,0,0,1,3.3,61Zm121.2-4.59a.16.16,0,0,1-.17-.16l-.07-2.57a.16.16,0,1,1,.32,0l.07,2.57A.16.16,0,0,1,124.5,56.42ZM3.16,55.86A.16.16,0,0,1,3,55.71l-.06-2.1A.16.16,0,0,1,3,53.45l2.48-.71a.16.16,0,1,1,.09.31l-2.36.67.06,2A.16.16,0,0,1,3.16,55.86Zm121.2-4.59a.16.16,0,0,1-.17-.16l-.07-2.57a.16.16,0,0,1,.32,0l.07,2.57A.16.16,0,0,1,124.36,51.28ZM8,52.36A.16.16,0,0,1,8,52l2.48-.71a.16.16,0,0,1,.09.31l-2.48.71ZM13,50.94a.16.16,0,0,1,0-.32l2.48-.71a.16.16,0,1,1,.09.31L13,50.94Zm5-1.41a.16.16,0,0,1,0-.32l2.48-.71a.16.16,0,0,1,.09.31L18,49.53Zm106.26-3.4A.16.16,0,0,1,124,46L124,43.4a.16.16,0,0,1,.32,0l.07,2.57A.16.16,0,0,1,124.21,46.13Zm-101.31,2a.16.16,0,0,1,0-.32l2.47-.71a.16.16,0,0,1,.09.31l-2.48.71Zm4.95-1.41a.16.16,0,0,1,0-.32l2.48-.71a.16.16,0,1,1,.09.31l-2.48.71Zm5-1.41a.16.16,0,0,1,0-.32l2.48-.71a.16.16,0,0,1,.09.31l-2.48.71Zm4.95-1.41a.16.16,0,0,1,0-.32l2.48-.71a.16.16,0,0,1,.09.31l-2.48.71ZM124.06,41a.16.16,0,0,1-.17-.16l-.07-2.57a.16.16,0,1,1,.32,0l.07,2.57A.16.16,0,0,1,124.06,41ZM42.7,42.47a.16.16,0,0,1,0-.32l2.48-.71a.16.16,0,0,1,.09.31l-2.48.71Zm4.95-1.41a.16.16,0,0,1,0-.32L50.07,40a.16.16,0,1,1,.09.31l-2.48.71Zm4.95-1.41a.16.16,0,0,1,0-.32L55,38.63a.16.16,0,1,1,.09.31l-2.48.71Zm5-1.41a.16.16,0,0,1,0-.32L60,37.22a.16.16,0,0,1,.09.31l-2.48.71Zm66.37-2.4a.16.16,0,0,1-.17-.16l-.07-2.57a.16.16,0,1,1,.32,0l.07,2.57A.16.16,0,0,1,123.91,35.84Zm-61.42,1a.16.16,0,0,1,0-.32l2.48-.71a.16.16,0,0,1,.09.31l-2.47.71Zm5-1.41a.16.16,0,0,1,0-.32l2.48-.71a.16.16,0,1,1,.09.31l-2.48.71ZM72.39,34a.16.16,0,0,1,0-.32L74.82,33a.16.16,0,0,1,.09.31L72.43,34Zm4.95-1.41a.16.16,0,0,1,0-.32l2.48-.71a.16.16,0,0,1,.09.31l-2.48.71Zm46.42-1.9a.16.16,0,0,1-.17-.16L123.53,28a.16.16,0,0,1,.32,0l.07,2.57A.16.16,0,0,1,123.77,30.7Zm-41.47.48a.16.16,0,0,1,0-.32l2.48-.71a.16.16,0,1,1,.09.31l-2.48.71Zm4.95-1.41a.16.16,0,0,1,0-.32l2.47-.71a.16.16,0,1,1,.09.31l-2.48.71Zm4.95-1.41a.16.16,0,0,1,0-.32l2.48-.71a.16.16,0,1,1,.09.31l-2.48.71Zm5-1.41a.16.16,0,0,1,0-.32l2.48-.71a.16.16,0,1,1,.09.31l-2.48.71Zm26.48-1.39a.16.16,0,0,1-.17-.16l-.07-2.57a.16.16,0,0,1,.32,0l.07,2.57A.16.16,0,0,1,123.62,25.55Zm-21.53,0a.16.16,0,0,1,0-.32l2.47-.71a.16.16,0,0,1,.09.31l-2.48.71ZM107,24.12a.16.16,0,0,1,0-.32l2.48-.71a.16.16,0,0,1,.09.31l-2.48.71Zm5-1.41a.16.16,0,0,1,0-.32l2.48-.71a.16.16,0,1,1,.09.31l-2.48.71Zm4.95-1.41a.16.16,0,0,1,0-.32l2.48-.71a.16.16,0,0,1,.09.31l-2.48.71Zm6.53-.89a.16.16,0,0,1-.17-.16l0-.75-1.35.39a.16.16,0,1,1-.09-.31l1.55-.44a.16.16,0,0,1,.14,0,.16.16,0,0,1,.07.13l0,1A.16.16,0,0,1,123.47,20.41Z"/></g><text class="cls-8" transform="matrix(0.96, -0.27, 0, 1, 34.76, 71.15)">990</text><text class="cls-9" transform="matrix(0.96, -0.27, 0, 1, 18.81, 90.84)"><tspan class="cls-10">р</tspan><tspan class="cls-11" x="8.77" y="0">у</tspan><tspan class="cls-12" x="16.29" y="0">б</tspan><tspan x="24.64" y="0">лей в </tspan><tspan class="cls-13" x="63.65" y="0">с</tspan><tspan class="cls-14" x="70.9" y="0">у</tspan><tspan class="cls-15" x="78.63" y="0">т</tspan><tspan x="84.97" y="0">ки</tspan></text><text class="cls-16" transform="matrix(0.96, -0.27, 0, 1, 32.95, 36.7)">АКЦИЯ</text><circle class="cls-2" cx="17.2" cy="68.73" r="3.14"/><circle class="cls-2" cx="110.07" cy="41.92" r="3.14"/></g></g></g></svg>