<svg xmlns="http://www.w3.org/2000/svg" viewBox="0 0 33.88 33.88"><defs><style>.cls-2{fill:#604529}</style></defs><g id="Layer_2" data-name="Layer 2"><g id="Layer_1-2" data-name="Layer 1"><circle cx="16.94" cy="16.94" r="16.94" fill="#d0d1d2"/><path class="cls-2" d="M28.51 24.37h-1.35a.34.34 0 0 1-.34-.34v-4.55a.34.34 0 0 1 .68 0v4.22h.68V14h-.68v3.82a.34.34 0 0 1-.68 0V13.7a.34.34 0 0 1 .34-.34h1.35a.34.34 0 0 1 .34.34V24a.34.34 0 0 1-.34.37zM7.84 24.37H6.49a.34.34 0 0 1-.34-.37V9.85a.34.34 0 0 1 .34-.34h1.35a.34.34 0 0 1 .34.34v7.43a.34.34 0 1 1-.68 0v-7.09h-.67V23.7h.67v-5.24a.34.34 0 0 1 .68 0V24a.34.34 0 0 1-.34.37z"/><path class="cls-2" d="M27.16 19.82H7.84a.34.34 0 0 1 0-.68h19.32a.34.34 0 0 1 0 .68zM27.16 17.62H7.84a.34.34 0 0 1 0-.68h19.32a.34.34 0 0 1 0 .68z"/><path class="cls-2" d="M12.47 17.62a4.76 4.76 0 0 1-2.81-1 6.79 6.79 0 0 1-2.16-4.57.34.34 0 0 1 .28-.35 4 4 0 0 1 .61 0 6.45 6.45 0 0 1 4.64 2c1.37 1.41.4 3.12-.3 3.83a.34.34 0 0 1-.23.1zm-4.26-5.28A5.92 5.92 0 0 0 10.07 16a4.18 4.18 0 0 0 2.28.89c.32-.37 1.28-1.67.2-2.78a5.78 5.78 0 0 0-4.16-1.82z"/></g></g></svg>